<svg width="898" height="429" viewBox="0 0 898 429" fill="none" xmlns="http://www.w3.org/2000/svg">
<g clip-path="url(#clip0_639_9348)">
<mask id="mask0_639_9348" style="mask-type:alpha" maskUnits="userSpaceOnUse" x="0" y="142" width="144" height="145">
<rect x="0.546814" y="142.754" width="143.273" height="143.273" rx="40.8476" fill="#121212"/>
</mask>
<g mask="url(#mask0_639_9348)">
<g filter="url(#filter0_ii_639_9348)">
<rect x="0.546814" y="142.754" width="143.273" height="143.273" rx="40.8476" fill="#121212"/>
<rect x="0.546814" y="142.754" width="143.273" height="143.273" rx="40.8476" fill="url(#paint0_linear_639_9348)"/>
</g>
<rect x="0.762587" y="142.969" width="142.842" height="142.842" rx="40.6319" stroke="url(#paint1_linear_639_9348)" stroke-width="0.431545"/>
<g filter="url(#filter1_ddi_639_9348)">
<path d="M31.2482 178.573C31.2482 177.16 32.3972 176.006 33.8071 176.098C53.8921 177.41 69.7754 194.053 69.7754 214.391V250.21C69.7754 251.623 68.6264 252.777 67.2164 252.685C47.1314 251.373 31.2482 234.73 31.2482 214.391V178.573Z" fill="url(#paint2_linear_639_9348)"/>
<path d="M74.5913 178.573C74.5913 177.16 75.7403 176.006 77.1503 176.098C96.386 177.354 111.768 192.673 113.034 211.832C113.127 213.242 111.973 214.391 110.56 214.391H74.5913V178.573Z" fill="url(#paint3_linear_639_9348)"/>
<path d="M74.5913 214.391C95.006 214.391 111.712 230.207 113.034 250.209C113.127 251.619 111.973 252.768 110.56 252.768H77.1497C75.7367 252.768 74.5913 251.623 74.5913 250.21V214.391Z" fill="url(#paint4_linear_639_9348)"/>
<path d="M74.8409 214.644C95.0103 214.772 111.476 230.437 112.784 250.226C112.867 251.481 111.839 252.518 110.56 252.518H77.1495C75.8748 252.517 74.8411 251.485 74.8409 250.21V214.644ZM33.7911 176.348C53.7462 177.651 69.5255 194.187 69.5255 214.392V250.21C69.5253 251.489 68.4877 252.518 67.2325 252.436C47.2775 251.132 31.4983 234.596 31.4982 214.392V178.573C31.4982 177.294 32.5359 176.266 33.7911 176.348ZM77.1339 176.348C96.2452 177.596 111.526 192.815 112.784 211.849C112.867 213.104 111.839 214.142 110.56 214.142H74.8409V178.573C74.8409 177.294 75.8787 176.266 77.1339 176.348Z" stroke="url(#paint5_linear_639_9348)" stroke-width="0.5"/>
</g>
</g>
<mask id="path-6-inside-1_639_9348" fill="white">
<path d="M368.848 239.409C368.848 242.235 371.139 244.494 373.964 244.494H376.358L376.36 259.435H369.257C360.78 259.435 353.907 252.584 353.907 244.106C353.907 221.808 353.907 181.881 353.907 170.872H368.848C368.848 177.453 368.848 223.836 368.848 239.409ZM278.65 229.79C278.65 239.995 282.208 245.419 291.539 245.419C300.869 245.419 304.426 239.995 304.426 229.79V196.431H319.123V257.082H305.127V250.084C301.336 254.458 295.795 258.482 287.922 258.482C272.293 258.482 263.954 248.451 263.954 229.79V196.431H278.65V229.79ZM533.21 196.43H550.122V209.494H533.21V236.32C533.21 242.21 536.358 245.418 542.015 245.418C544.931 245.418 548.43 244.31 550.122 242.91L553.796 256.148C550.938 257.315 546.681 258.481 541.899 258.481C526.503 258.481 518.513 249.792 518.513 236.32V209.494H505.275V197.13H509.474C515.422 197.129 519.505 193.048 519.505 187.099V180.101H533.21V196.43ZM585.509 194.798C601.022 194.798 613.211 200.746 613.211 221.157V240.344C613.211 243.843 615.135 246.234 618.925 246.234L615.543 258.481C608.953 257.956 604.229 255.215 601.488 251.658C597.231 255.857 590.874 258.481 583.002 258.481C566.964 258.481 557.808 249.033 557.808 237.37C557.808 225.706 569.472 216.725 585.509 216.725C590.7 216.725 595.074 217.949 598.514 220.107V219.349C598.514 211.651 594.432 207.803 585.509 207.802C573.929 207.802 567.051 213.028 567.022 213.051L560.316 201.796C560.364 201.761 569.978 194.798 585.509 194.798ZM211.071 203.426C214.278 199.518 219.411 195.027 227.284 195.027C244.546 195.027 255.743 208.383 255.743 226.753C255.743 245.123 244.546 258.477 227.284 258.477C219.411 258.477 213.462 253.987 210.488 250.08V257.078H196.375V170.767H211.071V203.426ZM441.847 247.28C441.847 253.228 441.964 257.078 441.964 257.078H427.851C427.851 257.078 427.851 253.579 427.851 250.08C424.877 253.987 418.87 258.477 410.997 258.477C393.676 258.477 382.479 245.123 382.479 226.753C382.479 208.383 393.676 195.027 410.997 195.027C418.87 195.027 423.943 199.518 427.151 203.426V170.767H441.847V247.28ZM475.718 195.027C489.89 195.027 497.646 202.025 500.095 210.715L486.507 215.905C485.399 211.356 482.658 208.091 475.718 208.091C469.478 208.091 466.854 210.54 466.854 213.805C466.854 217.071 469.245 218.88 475.718 220.338C490.764 223.662 501.261 227.16 501.261 239.64C501.261 252.12 490.181 258.477 475.718 258.477C462.072 258.477 452.566 251.304 450.058 242.032L463.763 236.842C464.871 241.624 468.37 245.356 475.718 245.356C483.066 245.356 486.566 243.489 486.566 239.64C486.566 235.792 482.192 234.275 475.718 232.817C461.022 229.551 452.158 224.594 452.158 213.805C452.158 203.017 461.547 195.027 475.718 195.027ZM649.531 195.027C663.702 195.027 671.458 202.025 673.908 210.715L660.319 215.905C659.211 211.356 656.47 208.091 649.531 208.091C643.291 208.091 640.666 210.54 640.666 213.805C640.666 217.071 643.058 218.88 649.531 220.338C664.577 223.662 675.074 227.161 675.074 239.64C675.074 252.12 663.994 258.477 649.531 258.477C635.885 258.477 626.379 251.304 623.871 242.032L637.575 236.842C638.683 241.624 642.183 245.356 649.531 245.356C656.879 245.356 660.378 243.489 660.378 239.64C660.377 235.792 656.004 234.275 649.531 232.817C634.835 229.551 625.97 224.594 625.97 213.805C625.97 203.017 635.36 195.027 649.531 195.027ZM343.897 257.08H329.201V196.429H343.897V257.08ZM697.397 203.426C701.188 199.052 706.67 195.027 714.543 195.027C730.113 195.027 738.454 205.058 738.454 223.719V257.078H723.757V223.719C723.757 213.514 720.2 208.091 710.869 208.091C701.538 208.091 697.98 213.514 697.98 223.719V257.078H683.285V170.767H697.397V203.426ZM585.509 228.855C576.878 228.855 572.505 232.004 572.505 237.136C572.505 242.268 576.878 245.418 585.509 245.418C593.091 245.418 598.514 242.268 598.514 237.136C598.514 232.005 594.14 228.855 585.509 228.855ZM225.767 208.091C216.261 208.091 210.663 215.906 210.663 226.986C210.663 238.066 216.378 245.414 225.767 245.414C235.215 245.414 241.046 237.833 241.047 226.753C241.047 215.672 235.215 208.091 225.767 208.091ZM412.513 208.091C403.007 208.091 397.175 215.672 397.175 226.753C397.176 237.833 403.008 245.414 412.513 245.414C421.844 245.414 427.618 238.066 427.618 226.986C427.618 215.906 422.019 208.091 412.513 208.091ZM336.548 169.078C341.68 169.078 345.705 173.102 345.705 178.234C345.705 183.366 341.68 187.389 336.548 187.389C331.417 187.389 327.393 183.366 327.393 178.234C327.393 173.102 331.417 169.078 336.548 169.078Z"/>
</mask>
<g filter="url(#filter2_i_639_9348)">
<path d="M368.848 239.409C368.848 242.235 371.139 244.494 373.964 244.494H376.358L376.36 259.435H369.257C360.78 259.435 353.907 252.584 353.907 244.106C353.907 221.808 353.907 181.881 353.907 170.872H368.848C368.848 177.453 368.848 223.836 368.848 239.409ZM278.65 229.79C278.65 239.995 282.208 245.419 291.539 245.419C300.869 245.419 304.426 239.995 304.426 229.79V196.431H319.123V257.082H305.127V250.084C301.336 254.458 295.795 258.482 287.922 258.482C272.293 258.482 263.954 248.451 263.954 229.79V196.431H278.65V229.79ZM533.21 196.43H550.122V209.494H533.21V236.32C533.21 242.21 536.358 245.418 542.015 245.418C544.931 245.418 548.43 244.31 550.122 242.91L553.796 256.148C550.938 257.315 546.681 258.481 541.899 258.481C526.503 258.481 518.513 249.792 518.513 236.32V209.494H505.275V197.13H509.474C515.422 197.129 519.505 193.048 519.505 187.099V180.101H533.21V196.43ZM585.509 194.798C601.022 194.798 613.211 200.746 613.211 221.157V240.344C613.211 243.843 615.135 246.234 618.925 246.234L615.543 258.481C608.953 257.956 604.229 255.215 601.488 251.658C597.231 255.857 590.874 258.481 583.002 258.481C566.964 258.481 557.808 249.033 557.808 237.37C557.808 225.706 569.472 216.725 585.509 216.725C590.7 216.725 595.074 217.949 598.514 220.107V219.349C598.514 211.651 594.432 207.803 585.509 207.802C573.929 207.802 567.051 213.028 567.022 213.051L560.316 201.796C560.364 201.761 569.978 194.798 585.509 194.798ZM211.071 203.426C214.278 199.518 219.411 195.027 227.284 195.027C244.546 195.027 255.743 208.383 255.743 226.753C255.743 245.123 244.546 258.477 227.284 258.477C219.411 258.477 213.462 253.987 210.488 250.08V257.078H196.375V170.767H211.071V203.426ZM441.847 247.28C441.847 253.228 441.964 257.078 441.964 257.078H427.851C427.851 257.078 427.851 253.579 427.851 250.08C424.877 253.987 418.87 258.477 410.997 258.477C393.676 258.477 382.479 245.123 382.479 226.753C382.479 208.383 393.676 195.027 410.997 195.027C418.87 195.027 423.943 199.518 427.151 203.426V170.767H441.847V247.28ZM475.718 195.027C489.89 195.027 497.646 202.025 500.095 210.715L486.507 215.905C485.399 211.356 482.658 208.091 475.718 208.091C469.478 208.091 466.854 210.54 466.854 213.805C466.854 217.071 469.245 218.88 475.718 220.338C490.764 223.662 501.261 227.16 501.261 239.64C501.261 252.12 490.181 258.477 475.718 258.477C462.072 258.477 452.566 251.304 450.058 242.032L463.763 236.842C464.871 241.624 468.37 245.356 475.718 245.356C483.066 245.356 486.566 243.489 486.566 239.64C486.566 235.792 482.192 234.275 475.718 232.817C461.022 229.551 452.158 224.594 452.158 213.805C452.158 203.017 461.547 195.027 475.718 195.027ZM649.531 195.027C663.702 195.027 671.458 202.025 673.908 210.715L660.319 215.905C659.211 211.356 656.47 208.091 649.531 208.091C643.291 208.091 640.666 210.54 640.666 213.805C640.666 217.071 643.058 218.88 649.531 220.338C664.577 223.662 675.074 227.161 675.074 239.64C675.074 252.12 663.994 258.477 649.531 258.477C635.885 258.477 626.379 251.304 623.871 242.032L637.575 236.842C638.683 241.624 642.183 245.356 649.531 245.356C656.879 245.356 660.378 243.489 660.378 239.64C660.377 235.792 656.004 234.275 649.531 232.817C634.835 229.551 625.97 224.594 625.97 213.805C625.97 203.017 635.36 195.027 649.531 195.027ZM343.897 257.08H329.201V196.429H343.897V257.08ZM697.397 203.426C701.188 199.052 706.67 195.027 714.543 195.027C730.113 195.027 738.454 205.058 738.454 223.719V257.078H723.757V223.719C723.757 213.514 720.2 208.091 710.869 208.091C701.538 208.091 697.98 213.514 697.98 223.719V257.078H683.285V170.767H697.397V203.426ZM585.509 228.855C576.878 228.855 572.505 232.004 572.505 237.136C572.505 242.268 576.878 245.418 585.509 245.418C593.091 245.418 598.514 242.268 598.514 237.136C598.514 232.005 594.14 228.855 585.509 228.855ZM225.767 208.091C216.261 208.091 210.663 215.906 210.663 226.986C210.663 238.066 216.378 245.414 225.767 245.414C235.215 245.414 241.046 237.833 241.047 226.753C241.047 215.672 235.215 208.091 225.767 208.091ZM412.513 208.091C403.007 208.091 397.175 215.672 397.175 226.753C397.176 237.833 403.008 245.414 412.513 245.414C421.844 245.414 427.618 238.066 427.618 226.986C427.618 215.906 422.019 208.091 412.513 208.091ZM336.548 169.078C341.68 169.078 345.705 173.102 345.705 178.234C345.705 183.366 341.68 187.389 336.548 187.389C331.417 187.389 327.393 183.366 327.393 178.234C327.393 173.102 331.417 169.078 336.548 169.078Z" fill="url(#paint6_linear_639_9348)"/>
</g>
<path d="M368.848 239.409L368.417 239.409L368.848 239.409ZM373.964 244.494L373.964 244.925H373.964V244.494ZM376.358 244.494L376.79 244.494L376.79 244.062H376.358V244.494ZM376.36 259.435V259.867H376.792L376.792 259.435L376.36 259.435ZM369.257 259.435L369.257 259.867H369.257V259.435ZM353.907 244.106L353.475 244.106L353.907 244.106ZM353.907 170.872V170.44H353.475L353.475 170.872L353.907 170.872ZM368.848 170.872L369.28 170.872L369.28 170.44H368.848V170.872ZM278.65 229.79L278.218 229.79L278.218 229.79L278.65 229.79ZM291.539 245.419L291.539 245.85L291.539 245.85L291.539 245.419ZM304.426 229.79L304.858 229.79V229.79H304.426ZM304.426 196.431V196H303.995V196.431H304.426ZM319.123 196.431H319.554V196H319.123V196.431ZM319.123 257.082V257.513H319.554V257.082H319.123ZM305.127 257.082H304.695V257.513H305.127V257.082ZM305.127 250.084H305.558V248.927L304.8 249.801L305.127 250.084ZM287.922 258.482L287.922 258.914H287.922V258.482ZM263.954 229.79L263.522 229.79L263.522 229.79L263.954 229.79ZM263.954 196.431V196H263.522V196.431H263.954ZM278.65 196.431H279.082V196H278.65V196.431ZM533.21 196.43H532.778V196.862H533.21V196.43ZM550.122 196.43H550.553V195.999H550.122V196.43ZM550.122 209.494V209.925H550.553V209.494H550.122ZM533.21 209.494V209.062H532.778V209.494H533.21ZM533.21 236.32L532.778 236.32L532.778 236.32L533.21 236.32ZM542.015 245.418L542.015 245.849H542.015V245.418ZM550.122 242.91L550.538 242.795L550.359 242.153L549.847 242.577L550.122 242.91ZM553.796 256.148L553.959 256.548L554.314 256.403L554.211 256.033L553.796 256.148ZM541.899 258.481L541.899 258.913L541.899 258.913L541.899 258.481ZM518.513 236.32L518.082 236.32L518.082 236.32L518.513 236.32ZM518.513 209.494H518.945V209.062H518.513V209.494ZM505.275 209.494H504.843V209.925H505.275V209.494ZM505.275 197.13V196.698H504.843V197.13H505.275ZM509.474 197.13L509.474 197.561L509.474 197.561L509.474 197.13ZM519.505 180.101V179.67H519.073V180.101H519.505ZM533.21 180.101H533.641V179.67H533.21V180.101ZM585.509 194.798L585.509 194.366H585.509V194.798ZM613.211 221.157L613.642 221.157L613.642 221.157L613.211 221.157ZM618.925 246.234L619.341 246.349L619.492 245.803L618.925 245.803L618.925 246.234ZM615.543 258.481L615.508 258.911L615.864 258.94L615.959 258.596L615.543 258.481ZM601.488 251.658L601.83 251.395L601.532 251.008L601.185 251.351L601.488 251.658ZM583.002 258.481L583.002 258.913L583.002 258.913L583.002 258.481ZM557.808 237.37L557.377 237.37L557.377 237.37L557.808 237.37ZM585.509 216.725L585.509 216.294H585.509V216.725ZM598.514 220.107L598.285 220.473L598.946 220.887V220.107H598.514ZM585.509 207.802L585.509 207.371H585.509V207.802ZM567.022 213.051L566.651 213.271L566.899 213.687L567.284 213.394L567.022 213.051ZM560.316 201.796L560.063 201.446L559.744 201.678L559.945 202.017L560.316 201.796ZM211.071 203.426H210.639V204.631L211.404 203.699L211.071 203.426ZM227.284 195.027L227.284 194.596H227.284V195.027ZM255.743 226.753L256.174 226.753V226.753H255.743ZM227.284 258.477L227.284 258.909L227.284 258.909L227.284 258.477ZM210.488 250.08L210.831 249.818L210.056 248.8V250.08H210.488ZM210.488 257.078V257.509H210.919V257.078H210.488ZM196.375 257.078H195.943V257.509H196.375V257.078ZM196.375 170.767V170.336H195.943V170.767H196.375ZM211.071 170.767H211.502V170.336H211.071V170.767ZM441.964 257.078V257.509H442.408L442.395 257.065L441.964 257.078ZM427.851 257.078H427.42V257.509H427.851V257.078ZM427.851 250.08H428.283V248.8L427.508 249.818L427.851 250.08ZM410.997 258.477L410.997 258.909H410.997V258.477ZM382.479 226.753L382.048 226.753L382.048 226.753L382.479 226.753ZM410.997 195.027L410.997 194.596L410.997 194.596L410.997 195.027ZM427.151 203.426L426.817 203.699L427.583 204.631V203.426H427.151ZM427.151 170.767V170.336H426.719V170.767H427.151ZM441.847 170.767H442.279V170.336H441.847V170.767ZM475.718 195.027L475.718 194.596H475.718L475.718 195.027ZM500.095 210.715L500.249 211.118L500.618 210.977L500.511 210.598L500.095 210.715ZM486.507 215.905L486.088 216.007L486.204 216.483L486.661 216.308L486.507 215.905ZM475.718 208.091L475.718 207.659H475.718L475.718 208.091ZM466.854 213.805L466.423 213.805V213.805H466.854ZM475.718 220.338L475.624 220.759L475.625 220.759L475.718 220.338ZM501.261 239.64L501.693 239.64L501.693 239.64L501.261 239.64ZM475.718 258.477L475.718 258.909H475.718V258.477ZM450.058 242.032L449.905 241.628L449.54 241.767L449.642 242.145L450.058 242.032ZM463.763 236.842L464.184 236.744L464.072 236.263L463.61 236.438L463.763 236.842ZM475.718 245.356L475.718 245.788H475.718V245.356ZM486.566 239.64L486.998 239.64L486.998 239.64L486.566 239.64ZM475.718 232.817L475.813 232.396L475.812 232.396L475.718 232.817ZM452.158 213.805L451.726 213.805V213.805H452.158ZM649.531 195.027L649.531 194.596H649.531V195.027ZM673.908 210.715L674.062 211.118L674.43 210.977L674.323 210.598L673.908 210.715ZM660.319 215.905L659.9 216.007L660.016 216.483L660.473 216.308L660.319 215.905ZM649.531 208.091L649.531 207.659H649.531V208.091ZM640.666 213.805L640.234 213.805V213.805H640.666ZM649.531 220.338L649.436 220.759L649.438 220.759L649.531 220.338ZM675.074 239.64L675.505 239.64L675.505 239.64L675.074 239.64ZM649.531 258.477L649.531 258.909L649.531 258.909L649.531 258.477ZM623.871 242.032L623.718 241.628L623.352 241.767L623.454 242.145L623.871 242.032ZM637.575 236.842L637.995 236.744L637.884 236.263L637.422 236.438L637.575 236.842ZM649.531 245.356L649.531 245.788L649.531 245.788L649.531 245.356ZM660.378 239.64L660.809 239.64L660.809 239.64L660.378 239.64ZM649.531 232.817L649.626 232.396L649.624 232.396L649.531 232.817ZM625.97 213.805L625.539 213.805V213.805H625.97ZM343.897 257.08V257.511H344.329V257.08H343.897ZM329.201 257.08H328.769V257.511H329.201V257.08ZM329.201 196.429V195.998H328.769V196.429H329.201ZM343.897 196.429H344.329V195.998H343.897V196.429ZM697.397 203.426H696.966V204.582L697.723 203.708L697.397 203.426ZM714.543 195.027L714.543 194.596L714.543 194.596L714.543 195.027ZM738.454 223.719L738.885 223.719L738.885 223.719L738.454 223.719ZM738.454 257.078V257.509H738.885V257.078H738.454ZM723.757 257.078H723.326V257.509H723.757V257.078ZM723.757 223.719L724.189 223.719L724.189 223.719L723.757 223.719ZM710.869 208.091L710.869 207.659L710.869 207.659L710.869 208.091ZM697.98 223.719L697.549 223.719V223.719H697.98ZM697.98 257.078V257.509H698.412V257.078H697.98ZM683.285 257.078H682.853V257.509H683.285V257.078ZM683.285 170.767V170.336H682.853V170.767H683.285ZM697.397 170.767H697.829V170.336H697.397V170.767ZM585.509 228.855L585.509 228.424H585.509V228.855ZM572.505 237.136L572.073 237.136L572.073 237.136L572.505 237.136ZM585.509 245.418L585.509 245.849L585.509 245.849L585.509 245.418ZM598.514 237.136L598.946 237.136V237.136H598.514ZM225.767 208.091L225.767 207.659H225.767V208.091ZM210.663 226.986L210.231 226.986L210.231 226.986L210.663 226.986ZM225.767 245.414L225.767 245.845L225.767 245.845L225.767 245.414ZM241.047 226.753L241.478 226.753V226.753H241.047ZM412.513 208.091L412.513 207.659H412.513V208.091ZM397.175 226.753L396.744 226.753L396.744 226.753L397.175 226.753ZM412.513 245.414L412.513 245.845L412.513 245.845L412.513 245.414ZM427.618 226.986L428.049 226.986V226.986H427.618ZM336.548 169.078L336.548 168.646L336.548 168.646L336.548 169.078ZM345.705 178.234L346.136 178.234V178.234H345.705ZM336.548 187.389L336.548 187.821H336.548V187.389ZM327.393 178.234L326.962 178.234L326.962 178.234L327.393 178.234ZM368.848 239.409L368.417 239.409C368.417 242.477 370.904 244.925 373.964 244.925L373.964 244.494L373.965 244.062C371.374 244.062 369.28 241.993 369.28 239.409L368.848 239.409ZM373.964 244.494V244.925H376.358V244.494V244.062H373.964V244.494ZM376.358 244.494L375.926 244.494L375.928 259.435L376.36 259.435L376.792 259.435L376.79 244.494L376.358 244.494ZM376.36 259.435V259.004H369.257V259.435V259.867H376.36V259.435ZM369.257 259.435L369.257 259.004C361.017 259.004 354.338 252.345 354.338 244.106L353.907 244.106L353.475 244.106C353.475 252.823 360.542 259.867 369.257 259.867L369.257 259.435ZM353.907 244.106L354.338 244.106C354.338 221.808 354.338 181.881 354.338 170.872L353.907 170.872L353.475 170.872C353.475 181.881 353.475 221.808 353.475 244.106L353.907 244.106ZM353.907 170.872V171.303H368.848V170.872V170.44H353.907V170.872ZM368.848 170.872L368.417 170.872C368.417 177.453 368.417 223.836 368.417 239.409L368.848 239.409L369.28 239.409C369.28 223.836 369.28 177.453 369.28 170.872L368.848 170.872ZM278.65 229.79L278.218 229.79C278.219 234.927 279.111 238.952 281.255 241.697C283.418 244.465 286.787 245.85 291.539 245.85V245.419V244.987C286.959 244.987 283.884 243.66 281.935 241.166C279.968 238.647 279.082 234.858 279.082 229.79L278.65 229.79ZM291.539 245.419L291.539 245.85C296.29 245.85 299.659 244.465 301.822 241.697C303.966 238.952 304.858 234.927 304.858 229.79L304.426 229.79L303.995 229.79C303.995 234.858 303.108 238.647 301.141 241.166C299.193 243.66 296.118 244.987 291.539 244.987L291.539 245.419ZM304.426 229.79H304.858V196.431H304.426H303.995V229.79H304.426ZM304.426 196.431V196.863H319.123V196.431V196H304.426V196.431ZM319.123 196.431H318.691V257.082H319.123H319.554V196.431H319.123ZM319.123 257.082V256.65H305.127V257.082V257.513H319.123V257.082ZM305.127 257.082H305.558V250.084H305.127H304.695V257.082H305.127ZM305.127 250.084L304.8 249.801C301.06 254.117 295.629 258.051 287.922 258.051V258.482V258.914C295.962 258.914 301.612 254.798 305.453 250.366L305.127 250.084ZM287.922 258.482L287.922 258.051C280.206 258.051 274.347 255.579 270.409 250.858C266.459 246.123 264.385 239.065 264.385 229.79L263.954 229.79L263.522 229.79C263.522 239.177 265.619 246.464 269.746 251.41C273.884 256.37 280.01 258.914 287.922 258.914L287.922 258.482ZM263.954 229.79H264.385V196.431H263.954H263.522V229.79H263.954ZM263.954 196.431V196.863H278.65V196.431V196H263.954V196.431ZM278.65 196.431H278.218V229.79H278.65H279.082V196.431H278.65ZM533.21 196.43V196.862H550.122V196.43V195.999H533.21V196.43ZM550.122 196.43H549.69V209.494H550.122H550.553V196.43H550.122ZM550.122 209.494V209.062H533.21V209.494V209.925H550.122V209.494ZM533.21 209.494H532.778V236.32H533.21H533.641V209.494H533.21ZM533.21 236.32L532.778 236.32C532.778 239.339 533.586 241.736 535.182 243.378C536.779 245.023 539.106 245.849 542.015 245.849L542.015 245.418L542.015 244.986C539.267 244.986 537.192 244.209 535.801 242.777C534.408 241.343 533.641 239.191 533.641 236.32L533.21 236.32ZM542.015 245.418V245.849C543.523 245.849 545.171 245.563 546.656 245.101C548.136 244.64 549.492 243.991 550.397 243.242L550.122 242.91L549.847 242.577C549.06 243.228 547.821 243.834 546.399 244.277C544.983 244.718 543.423 244.986 542.015 244.986V245.418ZM550.122 242.91L549.706 243.025L553.38 256.264L553.796 256.148L554.211 256.033L550.538 242.795L550.122 242.91ZM553.796 256.148L553.632 255.749C550.816 256.898 546.614 258.05 541.899 258.05L541.899 258.481L541.899 258.913C546.748 258.913 551.06 257.731 553.959 256.548L553.796 256.148ZM541.899 258.481V258.05C534.281 258.05 528.556 255.901 524.735 252.145C520.915 248.389 518.945 242.971 518.945 236.32L518.513 236.32L518.082 236.32C518.082 243.141 520.106 248.803 524.13 252.76C528.154 256.716 534.121 258.913 541.899 258.913V258.481ZM518.513 236.32H518.945V209.494H518.513H518.082V236.32H518.513ZM518.513 209.494V209.062H505.275V209.494V209.925H518.513V209.494ZM505.275 209.494H505.707V197.13H505.275H504.843V209.494H505.275ZM505.275 197.13V197.561H509.474V197.13V196.698H505.275V197.13ZM509.474 197.13L509.474 197.561C512.55 197.561 515.171 196.504 517.025 194.65C518.879 192.796 519.936 190.175 519.936 187.099H519.505H519.073C519.073 189.972 518.089 192.366 516.415 194.04C514.741 195.714 512.347 196.698 509.474 196.698L509.474 197.13ZM519.505 187.099H519.936V180.101H519.505H519.073V187.099H519.505ZM519.505 180.101V180.533H533.21V180.101V179.67H519.505V180.101ZM533.21 180.101H532.778V196.43H533.21H533.641V180.101H533.21ZM585.509 194.798L585.509 195.229C593.223 195.229 600.031 196.71 604.906 200.659C609.762 204.592 612.779 211.04 612.779 221.157L613.211 221.157L613.642 221.157C613.642 210.863 610.564 204.131 605.449 199.988C600.351 195.859 593.308 194.366 585.509 194.366L585.509 194.798ZM613.211 221.157H612.779V240.344H613.211H613.642V221.157H613.211ZM613.211 240.344H612.779C612.779 242.169 613.281 243.757 614.329 244.894C615.382 246.035 616.936 246.666 618.925 246.666L618.925 246.234L618.925 245.803C617.124 245.803 615.821 245.237 614.964 244.308C614.102 243.374 613.642 242.017 613.642 240.344H613.211ZM618.925 246.234L618.509 246.119L615.127 258.366L615.543 258.481L615.959 258.596L619.341 246.349L618.925 246.234ZM615.543 258.481L615.577 258.051C609.092 257.534 604.487 254.843 601.83 251.395L601.488 251.658L601.146 251.921C603.971 255.588 608.814 258.378 615.508 258.911L615.543 258.481ZM601.488 251.658L601.185 251.351C597.02 255.459 590.777 258.05 583.002 258.05L583.002 258.481L583.002 258.913C590.971 258.913 597.442 256.254 601.791 251.965L601.488 251.658ZM583.002 258.481V258.05C575.067 258.05 568.878 255.714 564.678 251.977C560.48 248.242 558.24 243.084 558.24 237.37L557.808 237.37L557.377 237.37C557.377 243.32 559.715 248.717 564.104 252.622C568.491 256.525 574.898 258.913 583.002 258.913V258.481ZM557.808 237.37H558.24C558.24 226.05 569.588 217.157 585.509 217.157V216.725V216.294C569.355 216.294 557.377 225.362 557.377 237.37H557.808ZM585.509 216.725L585.509 217.157C590.632 217.157 594.923 218.365 598.285 220.473L598.514 220.107L598.744 219.742C595.224 217.534 590.768 216.294 585.509 216.294L585.509 216.725ZM598.514 220.107H598.946V219.349H598.514H598.083V220.107H598.514ZM598.514 219.349H598.946C598.946 215.427 597.904 212.403 595.647 210.369C593.398 208.343 590.022 207.371 585.509 207.371L585.509 207.802L585.509 208.234C589.919 208.234 593.045 209.187 595.069 211.01C597.083 212.825 598.083 215.574 598.083 219.349H598.514ZM585.509 207.802V207.371C573.798 207.371 566.83 212.655 566.761 212.707L567.022 213.051L567.284 213.394C567.272 213.402 574.059 208.234 585.509 208.234V207.802ZM567.022 213.051L567.393 212.83L560.687 201.575L560.316 201.796L559.945 202.017L566.651 213.271L567.022 213.051ZM560.316 201.796L560.57 202.145C560.581 202.137 570.105 195.229 585.509 195.229V194.798V194.366C569.85 194.366 560.148 201.384 560.063 201.446L560.316 201.796ZM211.071 203.426L211.404 203.699C214.575 199.837 219.598 195.459 227.284 195.459V195.027V194.596C219.224 194.596 213.982 199.2 210.737 203.152L211.071 203.426ZM227.284 195.027L227.284 195.459C235.796 195.459 242.791 198.748 247.663 204.286C252.539 209.829 255.311 217.654 255.311 226.753H255.743H256.174C256.174 217.481 253.348 209.443 248.311 203.716C243.268 197.984 236.034 194.596 227.284 194.596L227.284 195.027ZM255.743 226.753L255.311 226.753C255.311 235.852 252.539 243.676 247.662 249.219C242.791 254.757 235.796 258.046 227.284 258.046L227.284 258.477L227.284 258.909C236.034 258.909 243.268 255.52 248.31 249.789C253.348 244.062 256.174 236.024 256.174 226.753L255.743 226.753ZM227.284 258.477V258.046C219.579 258.046 213.747 253.648 210.831 249.818L210.488 250.08L210.145 250.341C213.178 254.326 219.243 258.909 227.284 258.909V258.477ZM210.488 250.08H210.056V257.078H210.488H210.919V250.08H210.488ZM210.488 257.078V256.646H196.375V257.078V257.509H210.488V257.078ZM196.375 257.078H196.806V170.767H196.375H195.943V257.078H196.375ZM196.375 170.767V171.199H211.071V170.767V170.336H196.375V170.767ZM211.071 170.767H210.639V203.426H211.071H211.502V170.767H211.071ZM441.847 247.28H441.416C441.416 250.257 441.445 252.709 441.474 254.417C441.488 255.271 441.503 255.939 441.514 256.394C441.519 256.621 441.524 256.795 441.527 256.913C441.529 256.971 441.53 257.016 441.531 257.046C441.531 257.061 441.532 257.072 441.532 257.079C441.532 257.083 441.532 257.086 441.532 257.088C441.532 257.089 441.532 257.09 441.532 257.09C441.532 257.09 441.532 257.091 441.532 257.091C441.532 257.091 441.532 257.091 441.532 257.091C441.532 257.091 441.532 257.091 441.964 257.078C442.395 257.065 442.395 257.065 442.395 257.065C442.395 257.065 442.395 257.065 442.395 257.065C442.395 257.065 442.395 257.064 442.395 257.064C442.395 257.064 442.395 257.063 442.395 257.062C442.395 257.06 442.395 257.058 442.395 257.054C442.394 257.047 442.394 257.036 442.394 257.021C442.393 256.991 442.391 256.947 442.39 256.889C442.387 256.773 442.382 256.6 442.377 256.373C442.366 255.92 442.351 255.254 442.337 254.402C442.308 252.698 442.279 250.251 442.279 247.28H441.847ZM441.964 257.078V256.646H427.851V257.078V257.509H441.964V257.078ZM427.851 257.078C428.283 257.078 428.283 257.078 428.283 257.078C428.283 257.078 428.283 257.078 428.283 257.078C428.283 257.078 428.283 257.078 428.283 257.078C428.283 257.077 428.283 257.077 428.283 257.077C428.283 257.077 428.283 257.077 428.283 257.077C428.283 257.077 428.283 257.077 428.283 257.076C428.283 257.076 428.283 257.076 428.283 257.076C428.283 257.076 428.283 257.076 428.283 257.075C428.283 257.075 428.283 257.075 428.283 257.075C428.283 257.074 428.283 257.074 428.283 257.074C428.283 257.074 428.283 257.073 428.283 257.073C428.283 257.073 428.283 257.072 428.283 257.072C428.283 257.072 428.283 257.072 428.283 257.071C428.283 257.071 428.283 257.07 428.283 257.07C428.283 257.07 428.283 257.069 428.283 257.069C428.283 257.069 428.283 257.068 428.283 257.068C428.283 257.067 428.283 257.067 428.283 257.066C428.283 257.066 428.283 257.066 428.283 257.065C428.283 257.065 428.283 257.064 428.283 257.064C428.283 257.063 428.283 257.063 428.283 257.062C428.283 257.062 428.283 257.061 428.283 257.06C428.283 257.06 428.283 257.059 428.283 257.059C428.283 257.058 428.283 257.058 428.283 257.057C428.283 257.056 428.283 257.056 428.283 257.055C428.283 257.055 428.283 257.054 428.283 257.053C428.283 257.053 428.283 257.052 428.283 257.051C428.283 257.051 428.283 257.05 428.283 257.049C428.283 257.049 428.283 257.048 428.283 257.047C428.283 257.046 428.283 257.046 428.283 257.045C428.283 257.044 428.283 257.043 428.283 257.043C428.283 257.042 428.283 257.041 428.283 257.04C428.283 257.039 428.283 257.039 428.283 257.038C428.283 257.037 428.283 257.036 428.283 257.035C428.283 257.034 428.283 257.033 428.283 257.033C428.283 257.032 428.283 257.031 428.283 257.03C428.283 257.029 428.283 257.028 428.283 257.027C428.283 257.026 428.283 257.025 428.283 257.024C428.283 257.023 428.283 257.022 428.283 257.021C428.283 257.021 428.283 257.02 428.283 257.019C428.283 257.018 428.283 257.017 428.283 257.015C428.283 257.014 428.283 257.013 428.283 257.012C428.283 257.011 428.283 257.01 428.283 257.009C428.283 257.008 428.283 257.007 428.283 257.006C428.283 257.005 428.283 257.004 428.283 257.003C428.283 257.001 428.283 257 428.283 256.999C428.283 256.998 428.283 256.997 428.283 256.996C428.283 256.995 428.283 256.993 428.283 256.992C428.283 256.991 428.283 256.99 428.283 256.989C428.283 256.987 428.283 256.986 428.283 256.985C428.283 256.984 428.283 256.982 428.283 256.981C428.283 256.98 428.283 256.978 428.283 256.977C428.283 256.976 428.283 256.975 428.283 256.973C428.283 256.972 428.283 256.971 428.283 256.969C428.283 256.968 428.283 256.967 428.283 256.965C428.283 256.964 428.283 256.962 428.283 256.961C428.283 256.96 428.283 256.958 428.283 256.957C428.283 256.955 428.283 256.954 428.283 256.953C428.283 256.951 428.283 256.95 428.283 256.948C428.283 256.947 428.283 256.945 428.283 256.944C428.283 256.942 428.283 256.941 428.283 256.939C428.283 256.938 428.283 256.936 428.283 256.935C428.283 256.933 428.283 256.932 428.283 256.93C428.283 256.929 428.283 256.927 428.283 256.925C428.283 256.924 428.283 256.922 428.283 256.921C428.283 256.919 428.283 256.917 428.283 256.916C428.283 256.914 428.283 256.913 428.283 256.911C428.283 256.909 428.283 256.908 428.283 256.906C428.283 256.904 428.283 256.903 428.283 256.901C428.283 256.899 428.283 256.898 428.283 256.896C428.283 256.894 428.283 256.892 428.283 256.891C428.283 256.889 428.283 256.887 428.283 256.885C428.283 256.884 428.283 256.882 428.283 256.88C428.283 256.878 428.283 256.876 428.283 256.875C428.283 256.873 428.283 256.871 428.283 256.869C428.283 256.867 428.283 256.865 428.283 256.864C428.283 256.862 428.283 256.86 428.283 256.858C428.283 256.856 428.283 256.854 428.283 256.852C428.283 256.85 428.283 256.849 428.283 256.847C428.283 256.845 428.283 256.843 428.283 256.841C428.283 256.839 428.283 256.837 428.283 256.835C428.283 256.833 428.283 256.831 428.283 256.829C428.283 256.827 428.283 256.825 428.283 256.823C428.283 256.821 428.283 256.819 428.283 256.817C428.283 256.815 428.283 256.813 428.283 256.811C428.283 256.809 428.283 256.807 428.283 256.805C428.283 256.802 428.283 256.8 428.283 256.798C428.283 256.796 428.283 256.794 428.283 256.792C428.283 256.79 428.283 256.788 428.283 256.786C428.283 256.783 428.283 256.781 428.283 256.779C428.283 256.777 428.283 256.775 428.283 256.773C428.283 256.77 428.283 256.768 428.283 256.766C428.283 256.764 428.283 256.761 428.283 256.759C428.283 256.757 428.283 256.755 428.283 256.753C428.283 256.75 428.283 256.748 428.283 256.746C428.283 256.743 428.283 256.741 428.283 256.739C428.283 256.737 428.283 256.734 428.283 256.732C428.283 256.73 428.283 256.727 428.283 256.725C428.283 256.723 428.283 256.72 428.283 256.718C428.283 256.715 428.283 256.713 428.283 256.711C428.283 256.708 428.283 256.706 428.283 256.704C428.283 256.701 428.283 256.699 428.283 256.696C428.283 256.694 428.283 256.691 428.283 256.689C428.283 256.686 428.283 256.684 428.283 256.682C428.283 256.679 428.283 256.677 428.283 256.674C428.283 256.672 428.283 256.669 428.283 256.667C428.283 256.664 428.283 256.662 428.283 256.659C428.283 256.656 428.283 256.654 428.283 256.651C428.283 256.649 428.283 256.646 428.283 256.644C428.283 256.641 428.283 256.638 428.283 256.636C428.283 256.633 428.283 256.631 428.283 256.628C428.283 256.625 428.283 256.623 428.283 256.62C428.283 256.618 428.283 256.615 428.283 256.612C428.283 256.61 428.283 256.607 428.283 256.604C428.283 256.602 428.283 256.599 428.283 256.596C428.283 256.593 428.283 256.591 428.283 256.588C428.283 256.585 428.283 256.583 428.283 256.58C428.283 256.577 428.283 256.574 428.283 256.571C428.283 256.569 428.283 256.566 428.283 256.563C428.283 256.56 428.283 256.558 428.283 256.555C428.283 256.552 428.283 256.549 428.283 256.546C428.283 256.543 428.283 256.541 428.283 256.538C428.283 256.535 428.283 256.532 428.283 256.529C428.283 256.526 428.283 256.523 428.283 256.521C428.283 256.518 428.283 256.515 428.283 256.512C428.283 256.509 428.283 256.506 428.283 256.503C428.283 256.5 428.283 256.497 428.283 256.494C428.283 256.491 428.283 256.488 428.283 256.485C428.283 256.482 428.283 256.479 428.283 256.476C428.283 256.473 428.283 256.47 428.283 256.467C428.283 256.464 428.283 256.461 428.283 256.458C428.283 256.455 428.283 256.452 428.283 256.449C428.283 256.446 428.283 256.443 428.283 256.44C428.283 256.437 428.283 256.434 428.283 256.431C428.283 256.428 428.283 256.425 428.283 256.422C428.283 256.418 428.283 256.415 428.283 256.412C428.283 256.409 428.283 256.406 428.283 256.403C428.283 256.4 428.283 256.397 428.283 256.393C428.283 256.39 428.283 256.387 428.283 256.384C428.283 256.381 428.283 256.377 428.283 256.374C428.283 256.371 428.283 256.368 428.283 256.365C428.283 256.361 428.283 256.358 428.283 256.355C428.283 256.352 428.283 256.348 428.283 256.345C428.283 256.342 428.283 256.339 428.283 256.335C428.283 256.332 428.283 256.329 428.283 256.325C428.283 256.322 428.283 256.319 428.283 256.315C428.283 256.312 428.283 256.309 428.283 256.305C428.283 256.302 428.283 256.299 428.283 256.295C428.283 256.292 428.283 256.289 428.283 256.285C428.283 256.282 428.283 256.279 428.283 256.275C428.283 256.272 428.283 256.268 428.283 256.265C428.283 256.261 428.283 256.258 428.283 256.255C428.283 256.251 428.283 256.248 428.283 256.244C428.283 256.241 428.283 256.237 428.283 256.234C428.283 256.23 428.283 256.227 428.283 256.223C428.283 256.22 428.283 256.216 428.283 256.213C428.283 256.209 428.283 256.206 428.283 256.202C428.283 256.199 428.283 256.195 428.283 256.192C428.283 256.188 428.283 256.185 428.283 256.181C428.283 256.178 428.283 256.174 428.283 256.17C428.283 256.167 428.283 256.163 428.283 256.16C428.283 256.156 428.283 256.152 428.283 256.149C428.283 256.145 428.283 256.141 428.283 256.138C428.283 256.134 428.283 256.131 428.283 256.127C428.283 256.123 428.283 256.12 428.283 256.116C428.283 256.112 428.283 256.109 428.283 256.105C428.283 256.101 428.283 256.097 428.283 256.094C428.283 256.09 428.283 256.086 428.283 256.083C428.283 256.079 428.283 256.075 428.283 256.071C428.283 256.068 428.283 256.064 428.283 256.06C428.283 256.056 428.283 256.053 428.283 256.049C428.283 256.045 428.283 256.041 428.283 256.037C428.283 256.034 428.283 256.03 428.283 256.026C428.283 256.022 428.283 256.018 428.283 256.014C428.283 256.011 428.283 256.007 428.283 256.003C428.283 255.999 428.283 255.995 428.283 255.991C428.283 255.987 428.283 255.984 428.283 255.98C428.283 255.976 428.283 255.972 428.283 255.968C428.283 255.964 428.283 255.96 428.283 255.956C428.283 255.952 428.283 255.948 428.283 255.944C428.283 255.94 428.283 255.936 428.283 255.933C428.283 255.929 428.283 255.925 428.283 255.921C428.283 255.917 428.283 255.913 428.283 255.909C428.283 255.905 428.283 255.901 428.283 255.897C428.283 255.893 428.283 255.889 428.283 255.885C428.283 255.881 428.283 255.877 428.283 255.872C428.283 255.868 428.283 255.864 428.283 255.86C428.283 255.856 428.283 255.852 428.283 255.848C428.283 255.844 428.283 255.84 428.283 255.836C428.283 255.832 428.283 255.828 428.283 255.824C428.283 255.819 428.283 255.815 428.283 255.811C428.283 255.807 428.283 255.803 428.283 255.799C428.283 255.795 428.283 255.79 428.283 255.786C428.283 255.782 428.283 255.778 428.283 255.774C428.283 255.77 428.283 255.765 428.283 255.761C428.283 255.757 428.283 255.753 428.283 255.749C428.283 255.744 428.283 255.74 428.283 255.736C428.283 255.732 428.283 255.727 428.283 255.723C428.283 255.719 428.283 255.715 428.283 255.71C428.283 255.706 428.283 255.702 428.283 255.698C428.283 255.693 428.283 255.689 428.283 255.685C428.283 255.68 428.283 255.676 428.283 255.672C428.283 255.667 428.283 255.663 428.283 255.659C428.283 255.655 428.283 255.65 428.283 255.646C428.283 255.641 428.283 255.637 428.283 255.633C428.283 255.628 428.283 255.624 428.283 255.62C428.283 255.615 428.283 255.611 428.283 255.607C428.283 255.602 428.283 255.598 428.283 255.593C428.283 255.589 428.283 255.584 428.283 255.58C428.283 255.576 428.283 255.571 428.283 255.567C428.283 255.562 428.283 255.558 428.283 255.553C428.283 255.549 428.283 255.544 428.283 255.54C428.283 255.536 428.283 255.531 428.283 255.527C428.283 255.522 428.283 255.518 428.283 255.513C428.283 255.509 428.283 255.504 428.283 255.5C428.283 255.495 428.283 255.491 428.283 255.486C428.283 255.481 428.283 255.477 428.283 255.472C428.283 255.468 428.283 255.463 428.283 255.459C428.283 255.454 428.283 255.45 428.283 255.445C428.283 255.44 428.283 255.436 428.283 255.431C428.283 255.427 428.283 255.422 428.283 255.417C428.283 255.413 428.283 255.408 428.283 255.404C428.283 255.399 428.283 255.394 428.283 255.39C428.283 255.385 428.283 255.38 428.283 255.376C428.283 255.371 428.283 255.366 428.283 255.362C428.283 255.357 428.283 255.352 428.283 255.348C428.283 255.343 428.283 255.338 428.283 255.334C428.283 255.329 428.283 255.324 428.283 255.319C428.283 255.315 428.283 255.31 428.283 255.305C428.283 255.301 428.283 255.296 428.283 255.291C428.283 255.286 428.283 255.282 428.283 255.277C428.283 255.272 428.283 255.267 428.283 255.262C428.283 255.258 428.283 255.253 428.283 255.248C428.283 255.243 428.283 255.239 428.283 255.234C428.283 255.229 428.283 255.224 428.283 255.219C428.283 255.214 428.283 255.21 428.283 255.205C428.283 255.2 428.283 255.195 428.283 255.19C428.283 255.185 428.283 255.181 428.283 255.176C428.283 255.171 428.283 255.166 428.283 255.161C428.283 255.156 428.283 255.151 428.283 255.146C428.283 255.142 428.283 255.137 428.283 255.132C428.283 255.127 428.283 255.122 428.283 255.117C428.283 255.112 428.283 255.107 428.283 255.102C428.283 255.097 428.283 255.092 428.283 255.087C428.283 255.083 428.283 255.078 428.283 255.073C428.283 255.068 428.283 255.063 428.283 255.058C428.283 255.053 428.283 255.048 428.283 255.043C428.283 255.038 428.283 255.033 428.283 255.028C428.283 255.023 428.283 255.018 428.283 255.013C428.283 255.008 428.283 255.003 428.283 254.998C428.283 254.993 428.283 254.988 428.283 254.983C428.283 254.977 428.283 254.972 428.283 254.967C428.283 254.962 428.283 254.957 428.283 254.952C428.283 254.947 428.283 254.942 428.283 254.937C428.283 254.932 428.283 254.927 428.283 254.922C428.283 254.917 428.283 254.911 428.283 254.906C428.283 254.901 428.283 254.896 428.283 254.891C428.283 254.886 428.283 254.881 428.283 254.876C428.283 254.87 428.283 254.865 428.283 254.86C428.283 254.855 428.283 254.85 428.283 254.845C428.283 254.84 428.283 254.834 428.283 254.829C428.283 254.824 428.283 254.819 428.283 254.814C428.283 254.808 428.283 254.803 428.283 254.798C428.283 254.793 428.283 254.788 428.283 254.782C428.283 254.777 428.283 254.772 428.283 254.767C428.283 254.761 428.283 254.756 428.283 254.751C428.283 254.746 428.283 254.741 428.283 254.735C428.283 254.73 428.283 254.725 428.283 254.719C428.283 254.714 428.283 254.709 428.283 254.704C428.283 254.698 428.283 254.693 428.283 254.688C428.283 254.682 428.283 254.677 428.283 254.672C428.283 254.667 428.283 254.661 428.283 254.656C428.283 254.651 428.283 254.645 428.283 254.64C428.283 254.635 428.283 254.629 428.283 254.624C428.283 254.619 428.283 254.613 428.283 254.608C428.283 254.603 428.283 254.597 428.283 254.592C428.283 254.586 428.283 254.581 428.283 254.576C428.283 254.57 428.283 254.565 428.283 254.56C428.283 254.554 428.283 254.549 428.283 254.543C428.283 254.538 428.283 254.532 428.283 254.527C428.283 254.522 428.283 254.516 428.283 254.511C428.283 254.505 428.283 254.5 428.283 254.494C428.283 254.489 428.283 254.484 428.283 254.478C428.283 254.473 428.283 254.467 428.283 254.462C428.283 254.456 428.283 254.451 428.283 254.445C428.283 254.44 428.283 254.434 428.283 254.429C428.283 254.423 428.283 254.418 428.283 254.412C428.283 254.407 428.283 254.401 428.283 254.396C428.283 254.39 428.283 254.385 428.283 254.379C428.283 254.374 428.283 254.368 428.283 254.363C428.283 254.357 428.283 254.352 428.283 254.346C428.283 254.341 428.283 254.335 428.283 254.329C428.283 254.324 428.283 254.318 428.283 254.313C428.283 254.307 428.283 254.302 428.283 254.296C428.283 254.29 428.283 254.285 428.283 254.279C428.283 254.274 428.283 254.268 428.283 254.262C428.283 254.257 428.283 254.251 428.283 254.246C428.283 254.24 428.283 254.234 428.283 254.229C428.283 254.223 428.283 254.217 428.283 254.212C428.283 254.206 428.283 254.201 428.283 254.195C428.283 254.189 428.283 254.184 428.283 254.178C428.283 254.172 428.283 254.167 428.283 254.161C428.283 254.155 428.283 254.15 428.283 254.144C428.283 254.138 428.283 254.132 428.283 254.127C428.283 254.121 428.283 254.115 428.283 254.11C428.283 254.104 428.283 254.098 428.283 254.093C428.283 254.087 428.283 254.081 428.283 254.075C428.283 254.07 428.283 254.064 428.283 254.058C428.283 254.052 428.283 254.047 428.283 254.041C428.283 254.035 428.283 254.029 428.283 254.024C428.283 254.018 428.283 254.012 428.283 254.006C428.283 254.001 428.283 253.995 428.283 253.989C428.283 253.983 428.283 253.977 428.283 253.972C428.283 253.966 428.283 253.96 428.283 253.954C428.283 253.949 428.283 253.943 428.283 253.937C428.283 253.931 428.283 253.925 428.283 253.919C428.283 253.914 428.283 253.908 428.283 253.902C428.283 253.896 428.283 253.89 428.283 253.884C428.283 253.879 428.283 253.873 428.283 253.867C428.283 253.861 428.283 253.855 428.283 253.849C428.283 253.843 428.283 253.838 428.283 253.832C428.283 253.826 428.283 253.82 428.283 253.814C428.283 253.808 428.283 253.802 428.283 253.796C428.283 253.791 428.283 253.785 428.283 253.779C428.283 253.773 428.283 253.767 428.283 253.761C428.283 253.755 428.283 253.749 428.283 253.743C428.283 253.737 428.283 253.731 428.283 253.725C428.283 253.72 428.283 253.714 428.283 253.708C428.283 253.702 428.283 253.696 428.283 253.69C428.283 253.684 428.283 253.678 428.283 253.672C428.283 253.666 428.283 253.66 428.283 253.654C428.283 253.648 428.283 253.642 428.283 253.636C428.283 253.63 428.283 253.624 428.283 253.618C428.283 253.612 428.283 253.606 428.283 253.6C428.283 253.594 428.283 253.588 428.283 253.582C428.283 253.576 428.283 253.57 428.283 253.564C428.283 253.558 428.283 253.552 428.283 253.546C428.283 253.54 428.283 253.534 428.283 253.528C428.283 253.522 428.283 253.516 428.283 253.51C428.283 253.504 428.283 253.498 428.283 253.492C428.283 253.486 428.283 253.48 428.283 253.474C428.283 253.467 428.283 253.461 428.283 253.455C428.283 253.449 428.283 253.443 428.283 253.437C428.283 253.431 428.283 253.425 428.283 253.419C428.283 253.413 428.283 253.407 428.283 253.401C428.283 253.394 428.283 253.388 428.283 253.382C428.283 253.376 428.283 253.37 428.283 253.364C428.283 253.358 428.283 253.352 428.283 253.346C428.283 253.339 428.283 253.333 428.283 253.327C428.283 253.321 428.283 253.315 428.283 253.309C428.283 253.303 428.283 253.296 428.283 253.29C428.283 253.284 428.283 253.278 428.283 253.272C428.283 253.266 428.283 253.26 428.283 253.253C428.283 253.247 428.283 253.241 428.283 253.235C428.283 253.229 428.283 253.223 428.283 253.216C428.283 253.21 428.283 253.204 428.283 253.198C428.283 253.192 428.283 253.185 428.283 253.179C428.283 253.173 428.283 253.167 428.283 253.161C428.283 253.154 428.283 253.148 428.283 253.142C428.283 253.136 428.283 253.13 428.283 253.123C428.283 253.117 428.283 253.111 428.283 253.105C428.283 253.098 428.283 253.092 428.283 253.086C428.283 253.08 428.283 253.073 428.283 253.067C428.283 253.061 428.283 253.055 428.283 253.048C428.283 253.042 428.283 253.036 428.283 253.03C428.283 253.023 428.283 253.017 428.283 253.011C428.283 253.005 428.283 252.998 428.283 252.992C428.283 252.986 428.283 252.979 428.283 252.973C428.283 252.967 428.283 252.961 428.283 252.954C428.283 252.948 428.283 252.942 428.283 252.935C428.283 252.929 428.283 252.923 428.283 252.916C428.283 252.91 428.283 252.904 428.283 252.898C428.283 252.891 428.283 252.885 428.283 252.879C428.283 252.872 428.283 252.866 428.283 252.86C428.283 252.853 428.283 252.847 428.283 252.841C428.283 252.834 428.283 252.828 428.283 252.822C428.283 252.815 428.283 252.809 428.283 252.803C428.283 252.796 428.283 252.79 428.283 252.783C428.283 252.777 428.283 252.771 428.283 252.764C428.283 252.758 428.283 252.752 428.283 252.745C428.283 252.739 428.283 252.733 428.283 252.726C428.283 252.72 428.283 252.713 428.283 252.707C428.283 252.701 428.283 252.694 428.283 252.688C428.283 252.681 428.283 252.675 428.283 252.669C428.283 252.662 428.283 252.656 428.283 252.649C428.283 252.643 428.283 252.637 428.283 252.63C428.283 252.624 428.283 252.617 428.283 252.611C428.283 252.605 428.283 252.598 428.283 252.592C428.283 252.585 428.283 252.579 428.283 252.572C428.283 252.566 428.283 252.56 428.283 252.553C428.283 252.547 428.283 252.54 428.283 252.534C428.283 252.527 428.283 252.521 428.283 252.514C428.283 252.508 428.283 252.502 428.283 252.495C428.283 252.489 428.283 252.482 428.283 252.476C428.283 252.469 428.283 252.463 428.283 252.456C428.283 252.45 428.283 252.443 428.283 252.437C428.283 252.43 428.283 252.424 428.283 252.417C428.283 252.411 428.283 252.404 428.283 252.398C428.283 252.391 428.283 252.385 428.283 252.378C428.283 252.372 428.283 252.365 428.283 252.359C428.283 252.352 428.283 252.346 428.283 252.339C428.283 252.333 428.283 252.326 428.283 252.32C428.283 252.313 428.283 252.307 428.283 252.3C428.283 252.294 428.283 252.287 428.283 252.281C428.283 252.274 428.283 252.268 428.283 252.261C428.283 252.255 428.283 252.248 428.283 252.242C428.283 252.235 428.283 252.229 428.283 252.222C428.283 252.215 428.283 252.209 428.283 252.202C428.283 252.196 428.283 252.189 428.283 252.183C428.283 252.176 428.283 252.17 428.283 252.163C428.283 252.157 428.283 252.15 428.283 252.143C428.283 252.137 428.283 252.13 428.283 252.124C428.283 252.117 428.283 252.111 428.283 252.104C428.283 252.097 428.283 252.091 428.283 252.084C428.283 252.078 428.283 252.071 428.283 252.065C428.283 252.058 428.283 252.051 428.283 252.045C428.283 252.038 428.283 252.032 428.283 252.025C428.283 252.018 428.283 252.012 428.283 252.005C428.283 251.999 428.283 251.992 428.283 251.985C428.283 251.979 428.283 251.972 428.283 251.966C428.283 251.959 428.283 251.952 428.283 251.946C428.283 251.939 428.283 251.933 428.283 251.926C428.283 251.919 428.283 251.913 428.283 251.906C428.283 251.899 428.283 251.893 428.283 251.886C428.283 251.88 428.283 251.873 428.283 251.866C428.283 251.86 428.283 251.853 428.283 251.846C428.283 251.84 428.283 251.833 428.283 251.826C428.283 251.82 428.283 251.813 428.283 251.807C428.283 251.8 428.283 251.793 428.283 251.787C428.283 251.78 428.283 251.773 428.283 251.767C428.283 251.76 428.283 251.753 428.283 251.747C428.283 251.74 428.283 251.733 428.283 251.727C428.283 251.72 428.283 251.713 428.283 251.707C428.283 251.7 428.283 251.693 428.283 251.687C428.283 251.68 428.283 251.673 428.283 251.667C428.283 251.66 428.283 251.653 428.283 251.647C428.283 251.64 428.283 251.633 428.283 251.627C428.283 251.62 428.283 251.613 428.283 251.606C428.283 251.6 428.283 251.593 428.283 251.586C428.283 251.58 428.283 251.573 428.283 251.566C428.283 251.56 428.283 251.553 428.283 251.546C428.283 251.54 428.283 251.533 428.283 251.526C428.283 251.519 428.283 251.513 428.283 251.506C428.283 251.499 428.283 251.493 428.283 251.486C428.283 251.479 428.283 251.472 428.283 251.466C428.283 251.459 428.283 251.452 428.283 251.446C428.283 251.439 428.283 251.432 428.283 251.425C428.283 251.419 428.283 251.412 428.283 251.405C428.283 251.399 428.283 251.392 428.283 251.385C428.283 251.378 428.283 251.372 428.283 251.365C428.283 251.358 428.283 251.351 428.283 251.345C428.283 251.338 428.283 251.331 428.283 251.325C428.283 251.318 428.283 251.311 428.283 251.304C428.283 251.298 428.283 251.291 428.283 251.284C428.283 251.277 428.283 251.271 428.283 251.264C428.283 251.257 428.283 251.25 428.283 251.244C428.283 251.237 428.283 251.23 428.283 251.223C428.283 251.217 428.283 251.21 428.283 251.203C428.283 251.196 428.283 251.19 428.283 251.183C428.283 251.176 428.283 251.169 428.283 251.163C428.283 251.156 428.283 251.149 428.283 251.142C428.283 251.136 428.283 251.129 428.283 251.122C428.283 251.115 428.283 251.108 428.283 251.102C428.283 251.095 428.283 251.088 428.283 251.081C428.283 251.075 428.283 251.068 428.283 251.061C428.283 251.054 428.283 251.048 428.283 251.041C428.283 251.034 428.283 251.027 428.283 251.02C428.283 251.014 428.283 251.007 428.283 251C428.283 250.993 428.283 250.986 428.283 250.98C428.283 250.973 428.283 250.966 428.283 250.959C428.283 250.953 428.283 250.946 428.283 250.939C428.283 250.932 428.283 250.925 428.283 250.919C428.283 250.912 428.283 250.905 428.283 250.898C428.283 250.891 428.283 250.885 428.283 250.878C428.283 250.871 428.283 250.864 428.283 250.857C428.283 250.851 428.283 250.844 428.283 250.837C428.283 250.83 428.283 250.823 428.283 250.817C428.283 250.81 428.283 250.803 428.283 250.796C428.283 250.789 428.283 250.783 428.283 250.776C428.283 250.769 428.283 250.762 428.283 250.755C428.283 250.749 428.283 250.742 428.283 250.735C428.283 250.728 428.283 250.721 428.283 250.715C428.283 250.708 428.283 250.701 428.283 250.694C428.283 250.687 428.283 250.681 428.283 250.674C428.283 250.667 428.283 250.66 428.283 250.653C428.283 250.647 428.283 250.64 428.283 250.633C428.283 250.626 428.283 250.619 428.283 250.612C428.283 250.606 428.283 250.599 428.283 250.592C428.283 250.585 428.283 250.578 428.283 250.572C428.283 250.565 428.283 250.558 428.283 250.551C428.283 250.544 428.283 250.537 428.283 250.531C428.283 250.524 428.283 250.517 428.283 250.51C428.283 250.503 428.283 250.496 428.283 250.49C428.283 250.483 428.283 250.476 428.283 250.469C428.283 250.462 428.283 250.456 428.283 250.449C428.283 250.442 428.283 250.435 428.283 250.428C428.283 250.421 428.283 250.415 428.283 250.408C428.283 250.401 428.283 250.394 428.283 250.387C428.283 250.38 428.283 250.374 428.283 250.367C428.283 250.36 428.283 250.353 428.283 250.346C428.283 250.339 428.283 250.333 428.283 250.326C428.283 250.319 428.283 250.312 428.283 250.305C428.283 250.298 428.283 250.292 428.283 250.285C428.283 250.278 428.283 250.271 428.283 250.264C428.283 250.258 428.283 250.251 428.283 250.244C428.283 250.237 428.283 250.23 428.283 250.223C428.283 250.217 428.283 250.21 428.283 250.203C428.283 250.196 428.283 250.189 428.283 250.182C428.283 250.176 428.283 250.169 428.283 250.162C428.283 250.155 428.283 250.148 428.283 250.141C428.283 250.135 428.283 250.128 428.283 250.121C428.283 250.114 428.283 250.107 428.283 250.1C428.283 250.094 428.283 250.087 428.283 250.08H427.851H427.42C427.42 250.087 427.42 250.094 427.42 250.1C427.42 250.107 427.42 250.114 427.42 250.121C427.42 250.128 427.42 250.135 427.42 250.141C427.42 250.148 427.42 250.155 427.42 250.162C427.42 250.169 427.42 250.176 427.42 250.182C427.42 250.189 427.42 250.196 427.42 250.203C427.42 250.21 427.42 250.217 427.42 250.223C427.42 250.23 427.42 250.237 427.42 250.244C427.42 250.251 427.42 250.258 427.42 250.264C427.42 250.271 427.42 250.278 427.42 250.285C427.42 250.292 427.42 250.298 427.42 250.305C427.42 250.312 427.42 250.319 427.42 250.326C427.42 250.333 427.42 250.339 427.42 250.346C427.42 250.353 427.42 250.36 427.42 250.367C427.42 250.374 427.42 250.38 427.42 250.387C427.42 250.394 427.42 250.401 427.42 250.408C427.42 250.415 427.42 250.421 427.42 250.428C427.42 250.435 427.42 250.442 427.42 250.449C427.42 250.456 427.42 250.462 427.42 250.469C427.42 250.476 427.42 250.483 427.42 250.49C427.42 250.496 427.42 250.503 427.42 250.51C427.42 250.517 427.42 250.524 427.42 250.531C427.42 250.537 427.42 250.544 427.42 250.551C427.42 250.558 427.42 250.565 427.42 250.572C427.42 250.578 427.42 250.585 427.42 250.592C427.42 250.599 427.42 250.606 427.42 250.612C427.42 250.619 427.42 250.626 427.42 250.633C427.42 250.64 427.42 250.647 427.42 250.653C427.42 250.66 427.42 250.667 427.42 250.674C427.42 250.681 427.42 250.687 427.42 250.694C427.42 250.701 427.42 250.708 427.42 250.715C427.42 250.721 427.42 250.728 427.42 250.735C427.42 250.742 427.42 250.749 427.42 250.755C427.42 250.762 427.42 250.769 427.42 250.776C427.42 250.783 427.42 250.789 427.42 250.796C427.42 250.803 427.42 250.81 427.42 250.817C427.42 250.823 427.42 250.83 427.42 250.837C427.42 250.844 427.42 250.851 427.42 250.857C427.42 250.864 427.42 250.871 427.42 250.878C427.42 250.885 427.42 250.891 427.42 250.898C427.42 250.905 427.42 250.912 427.42 250.919C427.42 250.925 427.42 250.932 427.42 250.939C427.42 250.946 427.42 250.953 427.42 250.959C427.42 250.966 427.42 250.973 427.42 250.98C427.42 250.986 427.42 250.993 427.42 251C427.42 251.007 427.42 251.014 427.42 251.02C427.42 251.027 427.42 251.034 427.42 251.041C427.42 251.048 427.42 251.054 427.42 251.061C427.42 251.068 427.42 251.075 427.42 251.081C427.42 251.088 427.42 251.095 427.42 251.102C427.42 251.108 427.42 251.115 427.42 251.122C427.42 251.129 427.42 251.136 427.42 251.142C427.42 251.149 427.42 251.156 427.42 251.163C427.42 251.169 427.42 251.176 427.42 251.183C427.42 251.19 427.42 251.196 427.42 251.203C427.42 251.21 427.42 251.217 427.42 251.223C427.42 251.23 427.42 251.237 427.42 251.244C427.42 251.25 427.42 251.257 427.42 251.264C427.42 251.271 427.42 251.277 427.42 251.284C427.42 251.291 427.42 251.298 427.42 251.304C427.42 251.311 427.42 251.318 427.42 251.325C427.42 251.331 427.42 251.338 427.42 251.345C427.42 251.351 427.42 251.358 427.42 251.365C427.42 251.372 427.42 251.378 427.42 251.385C427.42 251.392 427.42 251.399 427.42 251.405C427.42 251.412 427.42 251.419 427.42 251.425C427.42 251.432 427.42 251.439 427.42 251.446C427.42 251.452 427.42 251.459 427.42 251.466C427.42 251.472 427.42 251.479 427.42 251.486C427.42 251.493 427.42 251.499 427.42 251.506C427.42 251.513 427.42 251.519 427.42 251.526C427.42 251.533 427.42 251.54 427.42 251.546C427.42 251.553 427.42 251.56 427.42 251.566C427.42 251.573 427.42 251.58 427.42 251.586C427.42 251.593 427.42 251.6 427.42 251.606C427.42 251.613 427.42 251.62 427.42 251.627C427.42 251.633 427.42 251.64 427.42 251.647C427.42 251.653 427.42 251.66 427.42 251.667C427.42 251.673 427.42 251.68 427.42 251.687C427.42 251.693 427.42 251.7 427.42 251.707C427.42 251.713 427.42 251.72 427.42 251.727C427.42 251.733 427.42 251.74 427.42 251.747C427.42 251.753 427.42 251.76 427.42 251.767C427.42 251.773 427.42 251.78 427.42 251.787C427.42 251.793 427.42 251.8 427.42 251.807C427.42 251.813 427.42 251.82 427.42 251.826C427.42 251.833 427.42 251.84 427.42 251.846C427.42 251.853 427.42 251.86 427.42 251.866C427.42 251.873 427.42 251.88 427.42 251.886C427.42 251.893 427.42 251.899 427.42 251.906C427.42 251.913 427.42 251.919 427.42 251.926C427.42 251.933 427.42 251.939 427.42 251.946C427.42 251.952 427.42 251.959 427.42 251.966C427.42 251.972 427.42 251.979 427.42 251.985C427.42 251.992 427.42 251.999 427.42 252.005C427.42 252.012 427.42 252.018 427.42 252.025C427.42 252.032 427.42 252.038 427.42 252.045C427.42 252.051 427.42 252.058 427.42 252.065C427.42 252.071 427.42 252.078 427.42 252.084C427.42 252.091 427.42 252.097 427.42 252.104C427.42 252.111 427.42 252.117 427.42 252.124C427.42 252.13 427.42 252.137 427.42 252.143C427.42 252.15 427.42 252.157 427.42 252.163C427.42 252.17 427.42 252.176 427.42 252.183C427.42 252.189 427.42 252.196 427.42 252.202C427.42 252.209 427.42 252.215 427.42 252.222C427.42 252.229 427.42 252.235 427.42 252.242C427.42 252.248 427.42 252.255 427.42 252.261C427.42 252.268 427.42 252.274 427.42 252.281C427.42 252.287 427.42 252.294 427.42 252.3C427.42 252.307 427.42 252.313 427.42 252.32C427.42 252.326 427.42 252.333 427.42 252.339C427.42 252.346 427.42 252.352 427.42 252.359C427.42 252.365 427.42 252.372 427.42 252.378C427.42 252.385 427.42 252.391 427.42 252.398C427.42 252.404 427.42 252.411 427.42 252.417C427.42 252.424 427.42 252.43 427.42 252.437C427.42 252.443 427.42 252.45 427.42 252.456C427.42 252.463 427.42 252.469 427.42 252.476C427.42 252.482 427.42 252.489 427.42 252.495C427.42 252.502 427.42 252.508 427.42 252.514C427.42 252.521 427.42 252.527 427.42 252.534C427.42 252.54 427.42 252.547 427.42 252.553C427.42 252.56 427.42 252.566 427.42 252.572C427.42 252.579 427.42 252.585 427.42 252.592C427.42 252.598 427.42 252.605 427.42 252.611C427.42 252.617 427.42 252.624 427.42 252.63C427.42 252.637 427.42 252.643 427.42 252.649C427.42 252.656 427.42 252.662 427.42 252.669C427.42 252.675 427.42 252.681 427.42 252.688C427.42 252.694 427.42 252.701 427.42 252.707C427.42 252.713 427.42 252.72 427.42 252.726C427.42 252.733 427.42 252.739 427.42 252.745C427.42 252.752 427.42 252.758 427.42 252.764C427.42 252.771 427.42 252.777 427.42 252.783C427.42 252.79 427.42 252.796 427.42 252.803C427.42 252.809 427.42 252.815 427.42 252.822C427.42 252.828 427.42 252.834 427.42 252.841C427.42 252.847 427.42 252.853 427.42 252.86C427.42 252.866 427.42 252.872 427.42 252.879C427.42 252.885 427.42 252.891 427.42 252.898C427.42 252.904 427.42 252.91 427.42 252.916C427.42 252.923 427.42 252.929 427.42 252.935C427.42 252.942 427.42 252.948 427.42 252.954C427.42 252.961 427.42 252.967 427.42 252.973C427.42 252.979 427.42 252.986 427.42 252.992C427.42 252.998 427.42 253.005 427.42 253.011C427.42 253.017 427.42 253.023 427.42 253.03C427.42 253.036 427.42 253.042 427.42 253.048C427.42 253.055 427.42 253.061 427.42 253.067C427.42 253.073 427.42 253.08 427.42 253.086C427.42 253.092 427.42 253.098 427.42 253.105C427.42 253.111 427.42 253.117 427.42 253.123C427.42 253.13 427.42 253.136 427.42 253.142C427.42 253.148 427.42 253.154 427.42 253.161C427.42 253.167 427.42 253.173 427.42 253.179C427.42 253.185 427.42 253.192 427.42 253.198C427.42 253.204 427.42 253.21 427.42 253.216C427.42 253.223 427.42 253.229 427.42 253.235C427.42 253.241 427.42 253.247 427.42 253.253C427.42 253.26 427.42 253.266 427.42 253.272C427.42 253.278 427.42 253.284 427.42 253.29C427.42 253.296 427.42 253.303 427.42 253.309C427.42 253.315 427.42 253.321 427.42 253.327C427.42 253.333 427.42 253.339 427.42 253.346C427.42 253.352 427.42 253.358 427.42 253.364C427.42 253.37 427.42 253.376 427.42 253.382C427.42 253.388 427.42 253.394 427.42 253.401C427.42 253.407 427.42 253.413 427.42 253.419C427.42 253.425 427.42 253.431 427.42 253.437C427.42 253.443 427.42 253.449 427.42 253.455C427.42 253.461 427.42 253.467 427.42 253.474C427.42 253.48 427.42 253.486 427.42 253.492C427.42 253.498 427.42 253.504 427.42 253.51C427.42 253.516 427.42 253.522 427.42 253.528C427.42 253.534 427.42 253.54 427.42 253.546C427.42 253.552 427.42 253.558 427.42 253.564C427.42 253.57 427.42 253.576 427.42 253.582C427.42 253.588 427.42 253.594 427.42 253.6C427.42 253.606 427.42 253.612 427.42 253.618C427.42 253.624 427.42 253.63 427.42 253.636C427.42 253.642 427.42 253.648 427.42 253.654C427.42 253.66 427.42 253.666 427.42 253.672C427.42 253.678 427.42 253.684 427.42 253.69C427.42 253.696 427.42 253.702 427.42 253.708C427.42 253.714 427.42 253.72 427.42 253.725C427.42 253.731 427.42 253.737 427.42 253.743C427.42 253.749 427.42 253.755 427.42 253.761C427.42 253.767 427.42 253.773 427.42 253.779C427.42 253.785 427.42 253.791 427.42 253.796C427.42 253.802 427.42 253.808 427.42 253.814C427.42 253.82 427.42 253.826 427.42 253.832C427.42 253.838 427.42 253.843 427.42 253.849C427.42 253.855 427.42 253.861 427.42 253.867C427.42 253.873 427.42 253.879 427.42 253.884C427.42 253.89 427.42 253.896 427.42 253.902C427.42 253.908 427.42 253.914 427.42 253.919C427.42 253.925 427.42 253.931 427.42 253.937C427.42 253.943 427.42 253.949 427.42 253.954C427.42 253.96 427.42 253.966 427.42 253.972C427.42 253.977 427.42 253.983 427.42 253.989C427.42 253.995 427.42 254.001 427.42 254.006C427.42 254.012 427.42 254.018 427.42 254.024C427.42 254.029 427.42 254.035 427.42 254.041C427.42 254.047 427.42 254.052 427.42 254.058C427.42 254.064 427.42 254.07 427.42 254.075C427.42 254.081 427.42 254.087 427.42 254.093C427.42 254.098 427.42 254.104 427.42 254.11C427.42 254.115 427.42 254.121 427.42 254.127C427.42 254.132 427.42 254.138 427.42 254.144C427.42 254.15 427.42 254.155 427.42 254.161C427.42 254.167 427.42 254.172 427.42 254.178C427.42 254.184 427.42 254.189 427.42 254.195C427.42 254.201 427.42 254.206 427.42 254.212C427.42 254.217 427.42 254.223 427.42 254.229C427.42 254.234 427.42 254.24 427.42 254.246C427.42 254.251 427.42 254.257 427.42 254.262C427.42 254.268 427.42 254.274 427.42 254.279C427.42 254.285 427.42 254.29 427.42 254.296C427.42 254.302 427.42 254.307 427.42 254.313C427.42 254.318 427.42 254.324 427.42 254.329C427.42 254.335 427.42 254.341 427.42 254.346C427.42 254.352 427.42 254.357 427.42 254.363C427.42 254.368 427.42 254.374 427.42 254.379C427.42 254.385 427.42 254.39 427.42 254.396C427.42 254.401 427.42 254.407 427.42 254.412C427.42 254.418 427.42 254.423 427.42 254.429C427.42 254.434 427.42 254.44 427.42 254.445C427.42 254.451 427.42 254.456 427.42 254.462C427.42 254.467 427.42 254.473 427.42 254.478C427.42 254.484 427.42 254.489 427.42 254.494C427.42 254.5 427.42 254.505 427.42 254.511C427.42 254.516 427.42 254.522 427.42 254.527C427.42 254.532 427.42 254.538 427.42 254.543C427.42 254.549 427.42 254.554 427.42 254.56C427.42 254.565 427.42 254.57 427.42 254.576C427.42 254.581 427.42 254.586 427.42 254.592C427.42 254.597 427.42 254.603 427.42 254.608C427.42 254.613 427.42 254.619 427.42 254.624C427.42 254.629 427.42 254.635 427.42 254.64C427.42 254.645 427.42 254.651 427.42 254.656C427.42 254.661 427.42 254.667 427.42 254.672C427.42 254.677 427.42 254.682 427.42 254.688C427.42 254.693 427.42 254.698 427.42 254.704C427.42 254.709 427.42 254.714 427.42 254.719C427.42 254.725 427.42 254.73 427.42 254.735C427.42 254.741 427.42 254.746 427.42 254.751C427.42 254.756 427.42 254.761 427.42 254.767C427.42 254.772 427.42 254.777 427.42 254.782C427.42 254.788 427.42 254.793 427.42 254.798C427.42 254.803 427.42 254.808 427.42 254.814C427.42 254.819 427.42 254.824 427.42 254.829C427.42 254.834 427.42 254.84 427.42 254.845C427.42 254.85 427.42 254.855 427.42 254.86C427.42 254.865 427.42 254.87 427.42 254.876C427.42 254.881 427.42 254.886 427.42 254.891C427.42 254.896 427.42 254.901 427.42 254.906C427.42 254.911 427.42 254.917 427.42 254.922C427.42 254.927 427.42 254.932 427.42 254.937C427.42 254.942 427.42 254.947 427.42 254.952C427.42 254.957 427.42 254.962 427.42 254.967C427.42 254.972 427.42 254.977 427.42 254.983C427.42 254.988 427.42 254.993 427.42 254.998C427.42 255.003 427.42 255.008 427.42 255.013C427.42 255.018 427.42 255.023 427.42 255.028C427.42 255.033 427.42 255.038 427.42 255.043C427.42 255.048 427.42 255.053 427.42 255.058C427.42 255.063 427.42 255.068 427.42 255.073C427.42 255.078 427.42 255.083 427.42 255.087C427.42 255.092 427.42 255.097 427.42 255.102C427.42 255.107 427.42 255.112 427.42 255.117C427.42 255.122 427.42 255.127 427.42 255.132C427.42 255.137 427.42 255.142 427.42 255.146C427.42 255.151 427.42 255.156 427.42 255.161C427.42 255.166 427.42 255.171 427.42 255.176C427.42 255.181 427.42 255.185 427.42 255.19C427.42 255.195 427.42 255.2 427.42 255.205C427.42 255.21 427.42 255.214 427.42 255.219C427.42 255.224 427.42 255.229 427.42 255.234C427.42 255.239 427.42 255.243 427.42 255.248C427.42 255.253 427.42 255.258 427.42 255.262C427.42 255.267 427.42 255.272 427.42 255.277C427.42 255.282 427.42 255.286 427.42 255.291C427.42 255.296 427.42 255.301 427.42 255.305C427.42 255.31 427.42 255.315 427.42 255.319C427.42 255.324 427.42 255.329 427.42 255.334C427.42 255.338 427.42 255.343 427.42 255.348C427.42 255.352 427.42 255.357 427.42 255.362C427.42 255.366 427.42 255.371 427.42 255.376C427.42 255.38 427.42 255.385 427.42 255.39C427.42 255.394 427.42 255.399 427.42 255.404C427.42 255.408 427.42 255.413 427.42 255.417C427.42 255.422 427.42 255.427 427.42 255.431C427.42 255.436 427.42 255.44 427.42 255.445C427.42 255.45 427.42 255.454 427.42 255.459C427.42 255.463 427.42 255.468 427.42 255.472C427.42 255.477 427.42 255.481 427.42 255.486C427.42 255.491 427.42 255.495 427.42 255.5C427.42 255.504 427.42 255.509 427.42 255.513C427.42 255.518 427.42 255.522 427.42 255.527C427.42 255.531 427.42 255.536 427.42 255.54C427.42 255.544 427.42 255.549 427.42 255.553C427.42 255.558 427.42 255.562 427.42 255.567C427.42 255.571 427.42 255.576 427.42 255.58C427.42 255.584 427.42 255.589 427.42 255.593C427.42 255.598 427.42 255.602 427.42 255.607C427.42 255.611 427.42 255.615 427.42 255.62C427.42 255.624 427.42 255.628 427.42 255.633C427.42 255.637 427.42 255.641 427.42 255.646C427.42 255.65 427.42 255.655 427.42 255.659C427.42 255.663 427.42 255.667 427.42 255.672C427.42 255.676 427.42 255.68 427.42 255.685C427.42 255.689 427.42 255.693 427.42 255.698C427.42 255.702 427.42 255.706 427.42 255.71C427.42 255.715 427.42 255.719 427.42 255.723C427.42 255.727 427.42 255.732 427.42 255.736C427.42 255.74 427.42 255.744 427.42 255.749C427.42 255.753 427.42 255.757 427.42 255.761C427.42 255.765 427.42 255.77 427.42 255.774C427.42 255.778 427.42 255.782 427.42 255.786C427.42 255.79 427.42 255.795 427.42 255.799C427.42 255.803 427.42 255.807 427.42 255.811C427.42 255.815 427.42 255.819 427.42 255.824C427.42 255.828 427.42 255.832 427.42 255.836C427.42 255.84 427.42 255.844 427.42 255.848C427.42 255.852 427.42 255.856 427.42 255.86C427.42 255.864 427.42 255.868 427.42 255.872C427.42 255.877 427.42 255.881 427.42 255.885C427.42 255.889 427.42 255.893 427.42 255.897C427.42 255.901 427.42 255.905 427.42 255.909C427.42 255.913 427.42 255.917 427.42 255.921C427.42 255.925 427.42 255.929 427.42 255.933C427.42 255.936 427.42 255.94 427.42 255.944C427.42 255.948 427.42 255.952 427.42 255.956C427.42 255.96 427.42 255.964 427.42 255.968C427.42 255.972 427.42 255.976 427.42 255.98C427.42 255.984 427.42 255.987 427.42 255.991C427.42 255.995 427.42 255.999 427.42 256.003C427.42 256.007 427.42 256.011 427.42 256.014C427.42 256.018 427.42 256.022 427.42 256.026C427.42 256.03 427.42 256.034 427.42 256.037C427.42 256.041 427.42 256.045 427.42 256.049C427.42 256.053 427.42 256.056 427.42 256.06C427.42 256.064 427.42 256.068 427.42 256.071C427.42 256.075 427.42 256.079 427.42 256.083C427.42 256.086 427.42 256.09 427.42 256.094C427.42 256.097 427.42 256.101 427.42 256.105C427.42 256.109 427.42 256.112 427.42 256.116C427.42 256.12 427.42 256.123 427.42 256.127C427.42 256.131 427.42 256.134 427.42 256.138C427.42 256.141 427.42 256.145 427.42 256.149C427.42 256.152 427.42 256.156 427.42 256.16C427.42 256.163 427.42 256.167 427.42 256.17C427.42 256.174 427.42 256.178 427.42 256.181C427.42 256.185 427.42 256.188 427.42 256.192C427.42 256.195 427.42 256.199 427.42 256.202C427.42 256.206 427.42 256.209 427.42 256.213C427.42 256.216 427.42 256.22 427.42 256.223C427.42 256.227 427.42 256.23 427.42 256.234C427.42 256.237 427.42 256.241 427.42 256.244C427.42 256.248 427.42 256.251 427.42 256.255C427.42 256.258 427.42 256.261 427.42 256.265C427.42 256.268 427.42 256.272 427.42 256.275C427.42 256.279 427.42 256.282 427.42 256.285C427.42 256.289 427.42 256.292 427.42 256.295C427.42 256.299 427.42 256.302 427.42 256.305C427.42 256.309 427.42 256.312 427.42 256.315C427.42 256.319 427.42 256.322 427.42 256.325C427.42 256.329 427.42 256.332 427.42 256.335C427.42 256.339 427.42 256.342 427.42 256.345C427.42 256.348 427.42 256.352 427.42 256.355C427.42 256.358 427.42 256.361 427.42 256.365C427.42 256.368 427.42 256.371 427.42 256.374C427.42 256.377 427.42 256.381 427.42 256.384C427.42 256.387 427.42 256.39 427.42 256.393C427.42 256.397 427.42 256.4 427.42 256.403C427.42 256.406 427.42 256.409 427.42 256.412C427.42 256.415 427.42 256.418 427.42 256.422C427.42 256.425 427.42 256.428 427.42 256.431C427.42 256.434 427.42 256.437 427.42 256.44C427.42 256.443 427.42 256.446 427.42 256.449C427.42 256.452 427.42 256.455 427.42 256.458C427.42 256.461 427.42 256.464 427.42 256.467C427.42 256.47 427.42 256.473 427.42 256.476C427.42 256.479 427.42 256.482 427.42 256.485C427.42 256.488 427.42 256.491 427.42 256.494C427.42 256.497 427.42 256.5 427.42 256.503C427.42 256.506 427.42 256.509 427.42 256.512C427.42 256.515 427.42 256.518 427.42 256.521C427.42 256.523 427.42 256.526 427.42 256.529C427.42 256.532 427.42 256.535 427.42 256.538C427.42 256.541 427.42 256.543 427.42 256.546C427.42 256.549 427.42 256.552 427.42 256.555C427.42 256.558 427.42 256.56 427.42 256.563C427.42 256.566 427.42 256.569 427.42 256.571C427.42 256.574 427.42 256.577 427.42 256.58C427.42 256.583 427.42 256.585 427.42 256.588C427.42 256.591 427.42 256.593 427.42 256.596C427.42 256.599 427.42 256.602 427.42 256.604C427.42 256.607 427.42 256.61 427.42 256.612C427.42 256.615 427.42 256.618 427.42 256.62C427.42 256.623 427.42 256.625 427.42 256.628C427.42 256.631 427.42 256.633 427.42 256.636C427.42 256.638 427.42 256.641 427.42 256.644C427.42 256.646 427.42 256.649 427.42 256.651C427.42 256.654 427.42 256.656 427.42 256.659C427.42 256.662 427.42 256.664 427.42 256.667C427.42 256.669 427.42 256.672 427.42 256.674C427.42 256.677 427.42 256.679 427.42 256.682C427.42 256.684 427.42 256.686 427.42 256.689C427.42 256.691 427.42 256.694 427.42 256.696C427.42 256.699 427.42 256.701 427.42 256.704C427.42 256.706 427.42 256.708 427.42 256.711C427.42 256.713 427.42 256.715 427.42 256.718C427.42 256.72 427.42 256.723 427.42 256.725C427.42 256.727 427.42 256.73 427.42 256.732C427.42 256.734 427.42 256.737 427.42 256.739C427.42 256.741 427.42 256.743 427.42 256.746C427.42 256.748 427.42 256.75 427.42 256.753C427.42 256.755 427.42 256.757 427.42 256.759C427.42 256.761 427.42 256.764 427.42 256.766C427.42 256.768 427.42 256.77 427.42 256.773C427.42 256.775 427.42 256.777 427.42 256.779C427.42 256.781 427.42 256.783 427.42 256.786C427.42 256.788 427.42 256.79 427.42 256.792C427.42 256.794 427.42 256.796 427.42 256.798C427.42 256.8 427.42 256.802 427.42 256.805C427.42 256.807 427.42 256.809 427.42 256.811C427.42 256.813 427.42 256.815 427.42 256.817C427.42 256.819 427.42 256.821 427.42 256.823C427.42 256.825 427.42 256.827 427.42 256.829C427.42 256.831 427.42 256.833 427.42 256.835C427.42 256.837 427.42 256.839 427.42 256.841C427.42 256.843 427.42 256.845 427.42 256.847C427.42 256.849 427.42 256.85 427.42 256.852C427.42 256.854 427.42 256.856 427.42 256.858C427.42 256.86 427.42 256.862 427.42 256.864C427.42 256.865 427.42 256.867 427.42 256.869C427.42 256.871 427.42 256.873 427.42 256.875C427.42 256.876 427.42 256.878 427.42 256.88C427.42 256.882 427.42 256.884 427.42 256.885C427.42 256.887 427.42 256.889 427.42 256.891C427.42 256.892 427.42 256.894 427.42 256.896C427.42 256.898 427.42 256.899 427.42 256.901C427.42 256.903 427.42 256.904 427.42 256.906C427.42 256.908 427.42 256.909 427.42 256.911C427.42 256.913 427.42 256.914 427.42 256.916C427.42 256.917 427.42 256.919 427.42 256.921C427.42 256.922 427.42 256.924 427.42 256.925C427.42 256.927 427.42 256.929 427.42 256.93C427.42 256.932 427.42 256.933 427.42 256.935C427.42 256.936 427.42 256.938 427.42 256.939C427.42 256.941 427.42 256.942 427.42 256.944C427.42 256.945 427.42 256.947 427.42 256.948C427.42 256.95 427.42 256.951 427.42 256.953C427.42 256.954 427.42 256.955 427.42 256.957C427.42 256.958 427.42 256.96 427.42 256.961C427.42 256.962 427.42 256.964 427.42 256.965C427.42 256.967 427.42 256.968 427.42 256.969C427.42 256.971 427.42 256.972 427.42 256.973C427.42 256.975 427.42 256.976 427.42 256.977C427.42 256.978 427.42 256.98 427.42 256.981C427.42 256.982 427.42 256.984 427.42 256.985C427.42 256.986 427.42 256.987 427.42 256.989C427.42 256.99 427.42 256.991 427.42 256.992C427.42 256.993 427.42 256.995 427.42 256.996C427.42 256.997 427.42 256.998 427.42 256.999C427.42 257 427.42 257.001 427.42 257.003C427.42 257.004 427.42 257.005 427.42 257.006C427.42 257.007 427.42 257.008 427.42 257.009C427.42 257.01 427.42 257.011 427.42 257.012C427.42 257.013 427.42 257.014 427.42 257.015C427.42 257.017 427.42 257.018 427.42 257.019C427.42 257.02 427.42 257.021 427.42 257.021C427.42 257.022 427.42 257.023 427.42 257.024C427.42 257.025 427.42 257.026 427.42 257.027C427.42 257.028 427.42 257.029 427.42 257.03C427.42 257.031 427.42 257.032 427.42 257.033C427.42 257.033 427.42 257.034 427.42 257.035C427.42 257.036 427.42 257.037 427.42 257.038C427.42 257.039 427.42 257.039 427.42 257.04C427.42 257.041 427.42 257.042 427.42 257.043C427.42 257.043 427.42 257.044 427.42 257.045C427.42 257.046 427.42 257.046 427.42 257.047C427.42 257.048 427.42 257.049 427.42 257.049C427.42 257.05 427.42 257.051 427.42 257.051C427.42 257.052 427.42 257.053 427.42 257.053C427.42 257.054 427.42 257.055 427.42 257.055C427.42 257.056 427.42 257.056 427.42 257.057C427.42 257.058 427.42 257.058 427.42 257.059C427.42 257.059 427.42 257.06 427.42 257.06C427.42 257.061 427.42 257.062 427.42 257.062C427.42 257.063 427.42 257.063 427.42 257.064C427.42 257.064 427.42 257.065 427.42 257.065C427.42 257.066 427.42 257.066 427.42 257.066C427.42 257.067 427.42 257.067 427.42 257.068C427.42 257.068 427.42 257.069 427.42 257.069C427.42 257.069 427.42 257.07 427.42 257.07C427.42 257.07 427.42 257.071 427.42 257.071C427.42 257.072 427.42 257.072 427.42 257.072C427.42 257.072 427.42 257.073 427.42 257.073C427.42 257.073 427.42 257.074 427.42 257.074C427.42 257.074 427.42 257.074 427.42 257.075C427.42 257.075 427.42 257.075 427.42 257.075C427.42 257.076 427.42 257.076 427.42 257.076C427.42 257.076 427.42 257.076 427.42 257.076C427.42 257.077 427.42 257.077 427.42 257.077C427.42 257.077 427.42 257.077 427.42 257.077C427.42 257.077 427.42 257.077 427.42 257.078C427.42 257.078 427.42 257.078 427.42 257.078C427.42 257.078 427.42 257.078 427.42 257.078C427.42 257.078 427.42 257.078 427.851 257.078ZM427.851 250.08L427.508 249.818C424.593 253.647 418.703 258.046 410.997 258.046V258.477V258.909C419.037 258.909 425.161 254.327 428.195 250.341L427.851 250.08ZM410.997 258.477L410.997 258.046C402.455 258.046 395.446 254.756 390.567 249.218C385.683 243.675 382.911 235.852 382.911 226.753L382.479 226.753L382.048 226.753C382.048 236.024 384.874 244.062 389.919 249.789C394.969 255.521 402.218 258.909 410.997 258.909L410.997 258.477ZM382.479 226.753H382.911C382.911 217.654 385.683 209.83 390.567 204.286C395.446 198.748 402.455 195.459 410.997 195.459L410.997 195.027L410.997 194.596C402.218 194.596 394.969 197.984 389.919 203.716C384.874 209.443 382.048 217.481 382.048 226.753H382.479ZM410.997 195.027V195.459C418.682 195.459 423.645 199.835 426.817 203.699L427.151 203.426L427.485 203.152C424.242 199.201 419.058 194.596 410.997 194.596V195.027ZM427.151 203.426H427.583V170.767H427.151H426.719V203.426H427.151ZM427.151 170.767V171.199H441.847V170.767V170.336H427.151V170.767ZM441.847 170.767H441.416V247.28H441.847H442.279V170.767H441.847ZM475.718 195.027V195.459C482.732 195.459 488.123 197.19 492.054 199.965C495.983 202.739 498.48 206.575 499.68 210.832L500.095 210.715L500.511 210.598C499.261 206.165 496.655 202.157 492.551 199.26C488.449 196.363 482.876 194.596 475.718 194.596V195.027ZM500.095 210.715L499.941 210.311L486.353 215.502L486.507 215.905L486.661 216.308L500.249 211.118L500.095 210.715ZM486.507 215.905L486.927 215.803C486.36 213.475 485.362 211.423 483.573 209.958C481.783 208.492 479.255 207.659 475.718 207.659V208.091V208.522C479.121 208.522 481.434 209.322 483.026 210.626C484.62 211.931 485.547 213.787 486.088 216.007L486.507 215.905ZM475.718 208.091L475.718 207.659C472.551 207.659 470.234 208.279 468.696 209.372C467.139 210.478 466.423 212.042 466.423 213.805L466.854 213.805L467.286 213.805C467.286 212.303 467.881 211.01 469.196 210.075C470.531 209.127 472.645 208.522 475.718 208.522L475.718 208.091ZM466.854 213.805H466.423C466.423 215.573 467.083 216.971 468.602 218.096C470.085 219.195 472.376 220.027 475.624 220.759L475.718 220.338L475.813 219.917C472.588 219.19 470.447 218.389 469.116 217.403C467.82 216.443 467.286 215.304 467.286 213.805H466.854ZM475.718 220.338L475.625 220.759C483.157 222.423 489.469 224.116 493.901 226.92C496.108 228.316 497.834 229.98 499.011 232.041C500.188 234.101 500.83 236.583 500.83 239.64L501.261 239.64L501.693 239.64C501.693 236.458 501.023 233.823 499.761 231.613C498.499 229.404 496.661 227.645 494.363 226.191C489.785 223.294 483.326 221.576 475.811 219.916L475.718 220.338ZM501.261 239.64H500.83C500.83 245.732 498.135 250.311 493.669 253.383C489.185 256.468 482.895 258.046 475.718 258.046V258.477V258.909C483.005 258.909 489.486 257.309 494.158 254.094C498.848 250.868 501.693 246.029 501.693 239.64H501.261ZM475.718 258.477L475.718 258.046C462.22 258.046 452.92 250.962 450.475 241.919L450.058 242.032L449.642 242.145C452.212 251.647 461.924 258.909 475.718 258.909L475.718 258.477ZM450.058 242.032L450.211 242.436L463.916 237.245L463.763 236.842L463.61 236.438L449.905 241.628L450.058 242.032ZM463.763 236.842L463.343 236.939C463.914 239.404 465.109 241.626 467.133 243.23C469.157 244.835 471.97 245.788 475.718 245.788L475.718 245.356L475.718 244.925C472.118 244.925 469.508 244.011 467.669 242.554C465.829 241.096 464.721 239.061 464.184 236.744L463.763 236.842ZM475.718 245.356V245.788C479.414 245.788 482.212 245.321 484.099 244.323C485.05 243.821 485.781 243.178 486.271 242.384C486.763 241.59 486.998 240.67 486.998 239.64H486.566H486.134C486.134 240.535 485.932 241.292 485.537 241.93C485.142 242.569 484.538 243.115 483.696 243.56C481.997 244.458 479.371 244.925 475.718 244.925V245.356ZM486.566 239.64L486.998 239.64C486.997 237.502 485.76 236.04 483.777 234.954C481.814 233.878 479.046 233.124 475.813 232.396L475.718 232.817L475.624 233.238C478.864 233.968 481.52 234.701 483.362 235.711C485.185 236.709 486.134 237.93 486.134 239.64L486.566 239.64ZM475.718 232.817L475.812 232.396C468.478 230.766 462.661 228.726 458.684 225.785C454.733 222.865 452.589 219.054 452.589 213.805H452.158H451.726C451.726 219.345 454.015 223.407 458.171 226.479C462.299 229.531 468.262 231.602 475.625 233.238L475.718 232.817ZM452.158 213.805L452.589 213.805C452.589 203.334 461.697 195.459 475.718 195.459L475.718 195.027L475.718 194.596C461.397 194.596 451.726 202.699 451.726 213.805L452.158 213.805ZM649.531 195.027L649.531 195.459C656.545 195.459 661.935 197.19 665.866 199.965C669.796 202.739 672.293 206.575 673.492 210.832L673.908 210.715L674.323 210.598C673.074 206.165 670.468 202.157 666.364 199.26C662.261 196.364 656.688 194.596 649.531 194.596L649.531 195.027ZM673.908 210.715L673.754 210.311L660.165 215.502L660.319 215.905L660.473 216.308L674.062 211.118L673.908 210.715ZM660.319 215.905L660.738 215.803C660.171 213.475 659.174 211.423 657.385 209.958C655.595 208.492 653.068 207.659 649.531 207.659L649.531 208.091L649.531 208.522C652.934 208.522 655.246 209.322 656.838 210.626C658.432 211.931 659.359 213.787 659.9 216.007L660.319 215.905ZM649.531 208.091V207.659C646.364 207.659 644.046 208.279 642.508 209.372C640.951 210.478 640.234 212.042 640.234 213.805L640.666 213.805L641.097 213.805C641.097 212.303 641.693 211.01 643.008 210.075C644.343 209.127 646.458 208.522 649.531 208.522V208.091ZM640.666 213.805H640.234C640.234 215.573 640.895 216.971 642.414 218.096C643.897 219.195 646.188 220.027 649.436 220.759L649.531 220.338L649.626 219.917C646.4 219.19 644.259 218.389 642.928 217.403C641.632 216.443 641.097 215.304 641.097 213.805H640.666ZM649.531 220.338L649.438 220.759C656.969 222.423 663.282 224.116 667.714 226.92C669.921 228.317 671.647 229.98 672.824 232.041C674 234.101 674.642 236.583 674.642 239.64L675.074 239.64L675.505 239.64C675.505 236.458 674.835 233.823 673.573 231.613C672.312 229.404 670.473 227.645 668.175 226.191C663.597 223.295 657.138 221.576 649.624 219.916L649.531 220.338ZM675.074 239.64H674.642C674.642 245.732 671.947 250.311 667.481 253.383C662.998 256.467 656.707 258.046 649.531 258.046L649.531 258.477L649.531 258.909C656.818 258.909 663.298 257.309 667.97 254.094C672.66 250.868 675.505 246.029 675.505 239.64H675.074ZM649.531 258.477V258.046C636.033 258.046 626.733 250.962 624.287 241.919L623.871 242.032L623.454 242.145C626.024 251.647 635.736 258.909 649.531 258.909V258.477ZM623.871 242.032L624.024 242.436L637.728 237.245L637.575 236.842L637.422 236.438L623.718 241.628L623.871 242.032ZM637.575 236.842L637.154 236.939C637.726 239.404 638.921 241.626 640.945 243.23C642.97 244.835 645.783 245.788 649.531 245.788V245.356V244.925C645.931 244.925 643.32 244.011 641.481 242.554C639.641 241.096 638.532 239.061 637.995 236.744L637.575 236.842ZM649.531 245.356L649.531 245.788C653.226 245.788 656.024 245.321 657.911 244.323C658.862 243.82 659.593 243.178 660.083 242.384C660.574 241.59 660.809 240.67 660.809 239.64H660.378H659.946C659.946 240.535 659.744 241.292 659.349 241.93C658.954 242.569 658.35 243.115 657.508 243.56C655.809 244.458 653.183 244.925 649.531 244.925L649.531 245.356ZM660.378 239.64L660.809 239.64C660.809 237.502 659.572 236.04 657.589 234.954C655.626 233.878 652.859 233.124 649.626 232.396L649.531 232.817L649.436 233.238C652.676 233.968 655.332 234.701 657.174 235.711C658.996 236.709 659.946 237.93 659.946 239.64L660.378 239.64ZM649.531 232.817L649.624 232.396C642.291 230.766 636.474 228.726 632.496 225.785C628.546 222.865 626.402 219.054 626.402 213.805H625.97H625.539C625.539 219.345 627.827 223.407 631.983 226.479C636.111 229.531 642.075 231.602 649.437 233.238L649.531 232.817ZM625.97 213.805L626.402 213.805C626.402 203.334 635.51 195.459 649.531 195.459V195.027V194.596C635.209 194.596 625.539 202.699 625.539 213.805L625.97 213.805ZM343.897 257.08V256.648H329.201V257.08V257.511H343.897V257.08ZM329.201 257.08H329.632V196.429H329.201H328.769V257.08H329.201ZM329.201 196.429V196.861H343.897V196.429V195.998H329.201V196.429ZM343.897 196.429H343.466V257.08H343.897H344.329V196.429H343.897ZM697.397 203.426L697.723 203.708C701.465 199.391 706.838 195.459 714.543 195.459L714.543 195.027L714.543 194.596C706.502 194.596 700.911 198.713 697.071 203.143L697.397 203.426ZM714.543 195.027V195.459C722.23 195.459 728.074 197.93 732.006 202.651C735.949 207.386 738.022 214.445 738.022 223.719L738.454 223.719L738.885 223.719C738.885 214.333 736.789 207.046 732.669 202.099C728.538 197.139 722.426 194.596 714.543 194.596V195.027ZM738.454 223.719H738.022V257.078H738.454H738.885V223.719H738.454ZM738.454 257.078V256.646H723.757V257.078V257.509H738.454V257.078ZM723.757 257.078H724.189V223.719H723.757H723.326V257.078H723.757ZM723.757 223.719L724.189 223.719C724.189 218.582 723.297 214.557 721.152 211.812C718.99 209.044 715.62 207.659 710.869 207.659V208.091V208.522C715.448 208.522 718.523 209.849 720.472 212.344C722.439 214.862 723.326 218.651 723.326 223.719L723.757 223.719ZM710.869 208.091L710.869 207.659C706.117 207.659 702.748 209.044 700.585 211.812C698.441 214.557 697.549 218.582 697.549 223.719L697.98 223.719L698.412 223.719C698.412 218.651 699.298 214.862 701.266 212.344C703.215 209.849 706.29 208.522 710.869 208.522L710.869 208.091ZM697.98 223.719H697.549V257.078H697.98H698.412V223.719H697.98ZM697.98 257.078V256.646H683.285V257.078V257.509H697.98V257.078ZM683.285 257.078H683.716V170.767H683.285H682.853V257.078H683.285ZM683.285 170.767V171.199H697.397V170.767V170.336H683.285V170.767ZM697.397 170.767H696.966V203.426H697.397H697.829V170.767H697.397ZM585.509 228.855V228.424C581.152 228.424 577.804 229.217 575.533 230.711C573.238 232.22 572.073 234.427 572.073 237.136H572.505H572.936C572.936 234.714 573.958 232.78 576.007 231.432C578.081 230.068 581.236 229.287 585.509 229.287V228.855ZM572.505 237.136L572.073 237.136C572.073 239.846 573.238 242.053 575.533 243.562C577.805 245.056 581.152 245.849 585.509 245.849V245.418V244.986C581.236 244.986 578.081 244.205 576.008 242.841C573.958 241.493 572.936 239.559 572.936 237.136L572.505 237.136ZM585.509 245.418L585.509 245.849C589.352 245.849 592.69 245.052 595.082 243.568C597.487 242.077 598.946 239.88 598.946 237.136L598.514 237.136L598.083 237.136C598.083 239.525 596.83 241.469 594.627 242.835C592.412 244.209 589.248 244.986 585.509 244.986L585.509 245.418ZM598.514 237.136H598.946C598.946 234.427 597.781 232.22 595.486 230.711C593.214 229.217 589.867 228.424 585.509 228.424L585.509 228.855L585.509 229.287C589.783 229.287 592.938 230.068 595.011 231.432C597.061 232.78 598.083 234.714 598.083 237.136H598.514ZM225.767 208.091V207.659C220.883 207.659 216.98 209.673 214.309 213.119C211.647 216.553 210.231 221.378 210.231 226.986H210.663H211.094C211.094 221.513 212.477 216.891 214.991 213.648C217.496 210.416 221.146 208.522 225.767 208.522V208.091ZM210.663 226.986L210.231 226.986C210.231 232.596 211.678 237.308 214.358 240.626C217.047 243.955 220.949 245.845 225.767 245.845V245.414V244.982C221.196 244.982 217.546 243.199 215.03 240.084C212.505 236.959 211.094 232.457 211.094 226.986L210.663 226.986ZM225.767 245.414L225.767 245.845C230.618 245.845 234.563 243.894 237.286 240.509C240.001 237.133 241.478 232.364 241.478 226.753L241.047 226.753L240.615 226.753C240.615 232.221 239.176 236.783 236.613 239.968C234.059 243.143 230.364 244.982 225.767 244.982L225.767 245.414ZM241.047 226.753H241.478C241.478 221.141 240.002 216.372 237.286 212.996C234.563 209.611 230.618 207.659 225.767 207.659L225.767 208.091L225.767 208.522C230.364 208.522 234.059 210.361 236.613 213.537C239.176 216.722 240.615 221.284 240.615 226.753H241.047ZM412.513 208.091V207.659C407.635 207.659 403.675 209.61 400.944 212.996C398.22 216.371 396.744 221.141 396.744 226.753H397.175H397.607C397.607 221.284 399.046 216.722 401.616 213.537C404.177 210.362 407.886 208.522 412.513 208.522V208.091ZM397.175 226.753L396.744 226.753C396.744 232.364 398.221 237.134 400.944 240.509C403.675 243.895 407.635 245.845 412.513 245.845V245.414V244.982C407.886 244.982 404.177 243.143 401.616 239.967C399.046 236.783 397.607 232.221 397.607 226.753L397.175 226.753ZM412.513 245.414L412.513 245.845C417.303 245.845 421.204 243.954 423.9 240.627C426.588 237.308 428.049 232.597 428.049 226.986L427.618 226.986L427.186 226.986C427.186 232.456 425.761 236.958 423.229 240.083C420.705 243.199 417.055 244.982 412.513 244.982L412.513 245.414ZM427.618 226.986H428.049C428.049 221.378 426.633 216.553 423.971 213.119C421.301 209.673 417.398 207.659 412.513 207.659L412.513 208.091L412.513 208.522C417.135 208.522 420.784 210.416 423.289 213.648C425.803 216.891 427.186 221.513 427.186 226.986H427.618ZM336.548 169.078V169.509C341.442 169.509 345.273 173.34 345.273 178.234H345.705H346.136C346.136 172.864 341.919 168.646 336.548 168.646V169.078ZM345.705 178.234L345.273 178.234C345.273 183.128 341.442 186.958 336.548 186.958V187.389V187.821C341.919 187.821 346.136 183.604 346.136 178.234L345.705 178.234ZM336.548 187.389L336.548 186.958C331.655 186.958 327.825 183.128 327.825 178.234L327.393 178.234L326.962 178.234C326.962 183.604 331.178 187.821 336.548 187.821L336.548 187.389ZM327.393 178.234H327.825C327.825 173.34 331.655 169.51 336.548 169.509L336.548 169.078L336.548 168.646C331.178 168.646 326.962 172.864 326.962 178.234H327.393Z" fill="url(#paint7_linear_639_9348)" mask="url(#path-6-inside-1_639_9348)"/>
<mask id="mask1_639_9348" style="mask-type:alpha" maskUnits="userSpaceOnUse" x="766" y="183" width="132" height="63">
<path d="M823.462 245.429H811.576L806.483 230.272H783.374L778.291 245.429H766.405L788.045 183.961H801.792L823.462 245.429ZM854.609 183.961C859.331 183.961 863.293 184.842 866.495 186.602C869.716 188.363 872.147 190.784 873.788 193.865C875.449 196.926 876.279 200.408 876.279 204.31C876.279 208.252 875.449 211.754 873.788 214.815C872.127 217.877 869.676 220.288 866.434 222.049C863.193 223.789 859.201 224.66 854.459 224.66H842.693V245.429H831.558V183.961H854.609ZM897.087 245.429H885.951V183.961H897.087V245.429ZM786.374 221.328H803.478L795.159 196.566H794.678L786.374 221.328ZM842.693 215.506H852.958C855.719 215.506 857.98 215.025 859.741 214.064C861.502 213.104 862.803 211.784 863.643 210.103C864.504 208.423 864.933 206.491 864.933 204.31C864.933 202.129 864.504 200.208 863.643 198.548C862.803 196.887 861.492 195.596 859.712 194.676C857.951 193.735 855.679 193.265 852.898 193.265H842.693V215.506Z" fill="white"/>
</mask>
<g mask="url(#mask1_639_9348)">
<rect width="126.49" height="159.15" transform="matrix(0.383268 -0.923637 -0.923637 -0.383268 891.342 303.573)" fill="url(#paint8_linear_639_9348)"/>
<rect width="126.49" height="159.15" transform="matrix(0.383268 -0.923637 -0.923637 -0.383268 891.342 303.573)" fill="#6262FF"/>
<rect width="126.49" height="159.15" transform="matrix(0.383268 -0.923637 -0.923637 -0.383268 891.342 303.573)" fill="url(#paint9_radial_639_9348)" fill-opacity="0.5"/>
<rect width="126.49" height="159.15" transform="matrix(0.383268 -0.923637 -0.923637 -0.383268 891.342 303.573)" fill="#A5A5FF" style="mix-blend-mode:overlay"/>
</g>
</g>
<defs>
<filter id="filter0_ii_639_9348" x="0.546814" y="141.027" width="143.273" height="148.451" filterUnits="userSpaceOnUse" color-interpolation-filters="sRGB">
<feFlood flood-opacity="0" result="BackgroundImageFix"/>
<feBlend mode="normal" in="SourceGraphic" in2="BackgroundImageFix" result="shape"/>
<feColorMatrix in="SourceAlpha" type="matrix" values="0 0 0 0 0 0 0 0 0 0 0 0 0 0 0 0 0 0 127 0" result="hardAlpha"/>
<feMorphology radius="3.45236" operator="dilate" in="SourceAlpha" result="effect1_innerShadow_639_9348"/>
<feOffset dy="-3.45236"/>
<feGaussianBlur stdDeviation="2.58927"/>
<feComposite in2="hardAlpha" operator="arithmetic" k2="-1" k3="1"/>
<feColorMatrix type="matrix" values="0 0 0 0 0 0 0 0 0 0 0 0 0 0 0 0 0 0 0.2 0"/>
<feBlend mode="normal" in2="shape" result="effect1_innerShadow_639_9348"/>
<feColorMatrix in="SourceAlpha" type="matrix" values="0 0 0 0 0 0 0 0 0 0 0 0 0 0 0 0 0 0 127 0" result="hardAlpha"/>
<feMorphology radius="3.45236" operator="dilate" in="SourceAlpha" result="effect2_innerShadow_639_9348"/>
<feOffset dy="3.45236"/>
<feGaussianBlur stdDeviation="5.17854"/>
<feComposite in2="hardAlpha" operator="arithmetic" k2="-1" k3="1"/>
<feColorMatrix type="matrix" values="0 0 0 0 1 0 0 0 0 1 0 0 0 0 1 0 0 0 0.1 0"/>
<feBlend mode="normal" in2="effect1_innerShadow_639_9348" result="effect2_innerShadow_639_9348"/>
</filter>
<filter id="filter1_ddi_639_9348" x="3.62927" y="158.831" width="137.029" height="131.913" filterUnits="userSpaceOnUse" color-interpolation-filters="sRGB">
<feFlood flood-opacity="0" result="BackgroundImageFix"/>
<feColorMatrix in="SourceAlpha" type="matrix" values="0 0 0 0 0 0 0 0 0 0 0 0 0 0 0 0 0 0 127 0" result="hardAlpha"/>
<feOffset dy="10.3571"/>
<feGaussianBlur stdDeviation="13.8095"/>
<feComposite in2="hardAlpha" operator="out"/>
<feColorMatrix type="matrix" values="0 0 0 0 0 0 0 0 0 0 0 0 0 0 0 0 0 0 0.5 0"/>
<feBlend mode="normal" in2="BackgroundImageFix" result="effect1_dropShadow_639_9348"/>
<feColorMatrix in="SourceAlpha" type="matrix" values="0 0 0 0 0 0 0 0 0 0 0 0 0 0 0 0 0 0 127 0" result="hardAlpha"/>
<feOffset dy="3.45236"/>
<feGaussianBlur stdDeviation="5.17854"/>
<feComposite in2="hardAlpha" operator="out"/>
<feColorMatrix type="matrix" values="0 0 0 0 0 0 0 0 0 0 0 0 0 0 0 0 0 0 0.75 0"/>
<feBlend mode="normal" in2="effect1_dropShadow_639_9348" result="effect2_dropShadow_639_9348"/>
<feBlend mode="normal" in="SourceGraphic" in2="effect2_dropShadow_639_9348" result="shape"/>
<feColorMatrix in="SourceAlpha" type="matrix" values="0 0 0 0 0 0 0 0 0 0 0 0 0 0 0 0 0 0 127 0" result="hardAlpha"/>
<feOffset/>
<feGaussianBlur stdDeviation="8.63091"/>
<feComposite in2="hardAlpha" operator="arithmetic" k2="-1" k3="1"/>
<feColorMatrix type="matrix" values="0 0 0 0 1 0 0 0 0 1 0 0 0 0 1 0 0 0 1 0"/>
<feBlend mode="normal" in2="shape" result="effect3_innerShadow_639_9348"/>
</filter>
<filter id="filter2_i_639_9348" x="196.375" y="169.078" width="542.079" height="90.3574" filterUnits="userSpaceOnUse" color-interpolation-filters="sRGB">
<feFlood flood-opacity="0" result="BackgroundImageFix"/>
<feBlend mode="normal" in="SourceGraphic" in2="BackgroundImageFix" result="shape"/>
<feColorMatrix in="SourceAlpha" type="matrix" values="0 0 0 0 0 0 0 0 0 0 0 0 0 0 0 0 0 0 127 0" result="hardAlpha"/>
<feOffset/>
<feGaussianBlur stdDeviation="8.63091"/>
<feComposite in2="hardAlpha" operator="arithmetic" k2="-1" k3="1"/>
<feColorMatrix type="matrix" values="0 0 0 0 1 0 0 0 0 1 0 0 0 0 1 0 0 0 0.1 0"/>
<feBlend mode="normal" in2="shape" result="effect1_innerShadow_639_9348"/>
</filter>
<linearGradient id="paint0_linear_639_9348" x1="72.1833" y1="142.754" x2="72.1833" y2="286.027" gradientUnits="userSpaceOnUse">
<stop stop-color="white" stop-opacity="0.1"/>
<stop offset="1" stop-color="#121212" stop-opacity="0"/>
</linearGradient>
<linearGradient id="paint1_linear_639_9348" x1="72.1833" y1="142.754" x2="72.1833" y2="286.027" gradientUnits="userSpaceOnUse">
<stop stop-color="white" stop-opacity="0.2"/>
<stop offset="1" stop-color="#121212" stop-opacity="0"/>
</linearGradient>
<linearGradient id="paint2_linear_639_9348" x1="72.1438" y1="176.093" x2="72.1438" y2="252.768" gradientUnits="userSpaceOnUse">
<stop stop-color="#F2F2F2"/>
<stop offset="1" stop-color="#B3B3B3"/>
</linearGradient>
<linearGradient id="paint3_linear_639_9348" x1="72.1438" y1="176.093" x2="72.1438" y2="252.768" gradientUnits="userSpaceOnUse">
<stop stop-color="#F2F2F2"/>
<stop offset="1" stop-color="#B3B3B3"/>
</linearGradient>
<linearGradient id="paint4_linear_639_9348" x1="72.1438" y1="176.093" x2="72.1438" y2="252.768" gradientUnits="userSpaceOnUse">
<stop stop-color="#F2F2F2"/>
<stop offset="1" stop-color="#B3B3B3"/>
</linearGradient>
<linearGradient id="paint5_linear_639_9348" x1="72.1438" y1="176.093" x2="72.1438" y2="252.768" gradientUnits="userSpaceOnUse">
<stop stop-color="white"/>
<stop offset="0.425" stop-color="white" stop-opacity="0"/>
</linearGradient>
<linearGradient id="paint6_linear_639_9348" x1="467.414" y1="169.078" x2="467.414" y2="259.435" gradientUnits="userSpaceOnUse">
<stop stop-color="#1A1A1A"/>
<stop offset="1" stop-color="#0D0D0D"/>
</linearGradient>
<linearGradient id="paint7_linear_639_9348" x1="467.414" y1="169.078" x2="467.414" y2="259.435" gradientUnits="userSpaceOnUse">
<stop stop-color="white" stop-opacity="0.1"/>
<stop offset="0.425" stop-color="white" stop-opacity="0"/>
</linearGradient>
<linearGradient id="paint8_linear_639_9348" x1="-72.1561" y1="-5.05123" x2="-35.0737" y2="24.4746" gradientUnits="userSpaceOnUse">
<stop stop-color="#EBF3D0"/>
<stop offset="1" stop-color="#EBF3D0" stop-opacity="0"/>
</linearGradient>
<radialGradient id="paint9_radial_639_9348" cx="0" cy="0" r="1" gradientUnits="userSpaceOnUse" gradientTransform="translate(129.954 44.0556) rotate(94.5815) scale(218.372 116.739)">
<stop stop-color="#FFFDB1"/>
<stop offset="0.344597" stop-color="#FEE4BF"/>
<stop offset="0.695017" stop-color="#F0BDD0" stop-opacity="0"/>
<stop offset="1" stop-color="#FF8126" stop-opacity="0"/>
</radialGradient>
<clipPath id="clip0_639_9348">
<rect width="897" height="428" fill="white" transform="translate(0.5 0.695068)"/>
</clipPath>
</defs>
</svg>
