<svg width="320" height="49" viewBox="0 0 320 49" fill="none" xmlns="http://www.w3.org/2000/svg">
<g transform="translate(0, 4.5)">
<path d="M24.0447 0.00268931C23.3061 -0.0453566 22.7043 0.556795 22.7043 1.29392V19.9796H41.5457C42.2858 19.9796 42.8905 19.3802 42.8417 18.6447C42.1784 8.64961 34.1209 0.658154 24.0447 0.00268931Z" fill="url(#paint0_linear_742_1476)"/>
<path d="M42.8417 38.6651C42.1492 28.2305 33.398 19.9796 22.7043 19.9796V38.6653C22.7043 39.4024 23.3043 40 24.0445 40H41.5457C42.2858 40 42.8905 39.4006 42.8417 38.6651Z" fill="url(#paint1_linear_742_1476)"/>
<path d="M1.34045 0.00268931C0.601861 -0.0453566 0 0.556795 0 1.29392V19.9796C0 30.5897 8.32008 39.2721 18.8411 39.9565C19.5797 40.0046 20.1816 39.4024 20.1816 38.6653V19.9796C20.1816 9.36949 11.8615 0.68709 1.34045 0.00268931Z" fill="url(#paint2_linear_742_1476)"/>
<path d="M115.396 28.9082C115.396 29.909 116.148 30.709 117.074 30.709H117.858L117.859 36.001H115.53C112.75 36.0009 110.497 33.5738 110.497 30.5713L110.496 4.63477H115.396V28.9082ZM169.291 13.6885H174.836V18.3154H169.291V27.8154C169.291 29.9013 170.323 31.0379 172.178 31.0381C173.134 31.0381 174.281 30.6451 174.836 30.1494L176.041 34.8379C175.104 35.251 173.708 35.6641 172.14 35.6641C167.091 35.6639 164.472 32.5864 164.472 27.8154V18.3154H160.131V13.9365H161.508C163.458 13.9364 164.797 12.4904 164.797 10.3838V7.90527H169.291V13.6885ZM85.8223 25.501C85.8223 29.1152 86.9893 31.0361 90.0488 31.0361C93.1084 31.0361 94.2753 29.1152 94.2754 25.501V13.6865H99.0938V35.167H94.5049V32.6885C93.2619 34.2375 91.4449 35.6621 88.8633 35.6621C83.7384 35.6621 81.004 32.11 81.0039 25.501V13.6865H85.8223V25.501ZM150.445 13.1914C155.092 13.1914 157.635 15.6696 158.438 18.7471L153.983 20.585C153.62 18.974 152.721 17.8174 150.445 17.8174C148.399 17.8174 147.539 18.6852 147.539 19.8418C147.539 20.9983 148.323 21.639 150.445 22.1553C155.379 23.3325 158.821 24.5714 158.821 28.9912C158.821 33.4112 155.188 35.6621 150.445 35.6621C145.97 35.6621 142.854 33.1219 142.031 29.8379L146.525 28C146.889 29.6936 148.036 31.0156 150.445 31.0156C152.855 31.0156 154.002 30.3544 154.002 28.9912C154.002 27.6281 152.568 27.0915 150.445 26.5752C145.626 25.4186 142.72 23.6626 142.72 19.8418C142.72 16.0208 145.798 13.1914 150.445 13.1914ZM186.449 13.1084C191.536 13.1084 195.533 15.2154 195.533 22.4443V29.2393C195.533 30.4785 196.164 31.3252 197.407 31.3252L196.298 35.6621C194.137 35.4762 192.588 34.5059 191.689 33.2461C190.293 34.7332 188.209 35.6621 185.627 35.6621C180.368 35.662 177.366 32.3163 177.366 28.1855C177.366 24.055 181.191 20.8742 186.449 20.874C188.151 20.874 189.586 21.3081 190.714 22.0723V21.8037C190.714 19.0774 189.375 17.7139 186.449 17.7139C182.651 17.714 180.396 19.5665 180.388 19.5732L178.188 15.5869C178.201 15.5771 181.354 13.1085 186.449 13.1084ZM207.443 13.1914C212.09 13.1915 214.633 15.6697 215.437 18.7471L210.98 20.585C210.617 18.9741 209.719 17.8175 207.443 17.8174C205.397 17.8174 204.536 18.6852 204.536 19.8418C204.536 20.9983 205.321 21.639 207.443 22.1553C212.377 23.3325 215.819 24.5714 215.819 28.9912C215.819 33.4111 212.186 35.662 207.443 35.6621C202.969 35.6621 199.852 33.1219 199.029 29.8379L203.522 28C203.886 29.6936 205.034 31.0156 207.443 31.0156C209.853 31.0156 211 30.3543 211 28.9912C211 27.6282 209.566 27.0915 207.443 26.5752C202.624 25.4186 199.718 23.6626 199.718 19.8418C199.718 16.0208 202.796 13.1914 207.443 13.1914ZM63.6631 4.59375V16.1602C64.7149 14.7763 66.3979 13.1855 68.9795 13.1855C74.6397 13.1858 78.3115 17.916 78.3115 24.4219C78.3114 30.9275 74.6396 35.657 68.9795 35.6572C66.3979 35.6572 64.447 34.0664 63.4717 32.6826V35.1611H58.8438V4.59375H63.6631ZM139.339 31.6914C139.339 33.7763 139.376 35.1332 139.377 35.1611H134.749V32.6826C133.774 34.0664 131.804 35.6572 129.223 35.6572C123.543 35.6572 119.871 30.9277 119.871 24.4219C119.871 17.9159 123.543 13.1855 129.223 13.1855C131.804 13.1856 133.468 14.7764 134.52 16.1602V4.59375H139.339V31.6914ZM107.222 35.166H102.403V13.6855H107.222V35.166ZM223.133 16.1602C224.376 14.6111 226.173 13.1855 228.755 13.1855C233.861 13.1856 236.596 16.7384 236.596 23.3477V35.1611H231.776V23.3477C231.776 19.7332 230.61 17.8125 227.55 17.8125C224.49 17.8126 223.324 19.7333 223.324 23.3477V35.1611H218.505V4.59375H223.133V16.1602ZM186.449 25.1699C183.619 25.17 182.186 26.286 182.186 28.1035C182.186 29.9208 183.619 31.036 186.449 31.0361C188.935 31.0361 190.714 29.9209 190.714 28.1035C190.714 26.286 189.279 25.1699 186.449 25.1699ZM68.4814 17.8125C65.3647 17.8127 63.5294 20.5799 63.5293 24.5039C63.5293 28.428 65.4028 31.031 68.4814 31.0312C71.5793 31.0312 73.4921 28.3459 73.4922 24.4219C73.4922 20.4976 71.5794 17.8125 68.4814 17.8125ZM129.72 17.8125C126.603 17.8125 124.69 20.4976 124.69 24.4219C124.691 28.3459 126.603 31.0312 129.72 31.0312C132.779 31.0312 134.673 28.4282 134.673 24.5039C134.673 20.5798 132.837 17.8125 129.72 17.8125ZM104.812 3.99902C106.495 3.9991 107.814 5.42468 107.814 7.24219C107.814 9.05946 106.495 10.4843 104.812 10.4844C103.13 10.4844 101.81 9.05951 101.81 7.24219C101.81 5.42463 103.13 3.99902 104.812 3.99902Z" fill="url(#paint3_linear_742_1476)"/>
<path d="M252.935 22.1042H248.528V19.4207H252.771C254.013 19.4207 255.044 19.1902 255.864 18.7292C256.692 18.2683 257.31 17.5847 257.716 16.6785C258.122 15.7722 258.325 14.6628 258.325 13.3503C258.325 12.0457 258.122 10.948 257.716 10.0574C257.31 9.15894 256.7 8.47925 255.888 8.01831C255.083 7.55737 254.075 7.3269 252.864 7.3269H248.435V4.64331H253.063C254.798 4.64331 256.29 4.99487 257.54 5.698C258.79 6.39331 259.751 7.39331 260.423 8.698C261.103 10.0027 261.442 11.5535 261.442 13.3503C261.442 15.1628 261.103 16.7253 260.423 18.0378C259.743 19.3425 258.771 20.3464 257.505 21.0496C256.239 21.7527 254.716 22.1042 252.935 22.1042ZM250.146 4.64331V22.1042H247.028V4.64331H250.146ZM272.132 22.3621C270.585 22.3621 269.203 21.9988 267.984 21.2722C266.765 20.5378 265.804 19.4988 265.101 18.155C264.398 16.8113 264.046 15.2214 264.046 13.3855C264.046 11.5339 264.398 9.93628 265.101 8.59253C265.804 7.24097 266.765 6.2019 267.984 5.47534C269.203 4.74878 270.585 4.3855 272.132 4.3855C273.671 4.3855 275.05 4.74878 276.269 5.47534C277.488 6.2019 278.449 7.24097 279.152 8.59253C279.855 9.93628 280.206 11.5339 280.206 13.3855C280.206 15.2292 279.855 16.823 279.152 18.1667C278.449 19.5105 277.488 20.5457 276.269 21.2722C275.05 21.9988 273.671 22.3621 272.132 22.3621ZM272.132 19.573C273.078 19.573 273.921 19.3347 274.663 18.8582C275.413 18.3816 275.999 17.6824 276.421 16.7605C276.851 15.8386 277.066 14.7136 277.066 13.3855C277.066 12.0496 276.851 10.9207 276.421 9.99878C275.999 9.06909 275.413 8.36597 274.663 7.8894C273.921 7.41284 273.078 7.17456 272.132 7.17456C271.179 7.17456 270.328 7.41675 269.578 7.90112C268.835 8.37769 268.249 9.0769 267.82 9.99878C267.39 10.9207 267.175 12.0496 267.175 13.3855C267.175 14.7136 267.39 15.8386 267.82 16.7605C268.249 17.6746 268.835 18.3738 269.578 18.8582C270.328 19.3347 271.179 19.573 272.132 19.573ZM290.955 22.3621C289.385 22.3621 287.986 21.9988 286.76 21.2722C285.541 20.5457 284.58 19.5105 283.877 18.1667C283.181 16.823 282.834 15.2292 282.834 13.3855C282.834 11.5339 283.181 9.93628 283.877 8.59253C284.58 7.24097 285.541 6.2019 286.76 5.47534C287.986 4.74878 289.385 4.3855 290.955 4.3855C291.924 4.3855 292.83 4.52612 293.674 4.80737C294.517 5.08862 295.267 5.49878 295.924 6.03784C296.58 6.56909 297.119 7.21753 297.541 7.98315C297.971 8.74097 298.256 9.59644 298.396 10.5496H295.256C295.146 10.0105 294.963 9.53394 294.705 9.11987C294.455 8.698 294.142 8.34253 293.767 8.05347C293.4 7.7644 292.978 7.54565 292.502 7.39722C292.033 7.24878 291.529 7.17456 290.99 7.17456C289.974 7.17456 289.088 7.42456 288.33 7.92456C287.58 8.42456 286.998 9.1394 286.584 10.0691C286.17 10.991 285.963 12.0964 285.963 13.3855C285.963 14.6746 286.17 15.78 286.584 16.7019C286.998 17.6238 287.58 18.3347 288.33 18.8347C289.088 19.3269 289.974 19.573 290.99 19.573C291.529 19.573 292.033 19.4988 292.502 19.3503C292.971 19.2019 293.388 18.9832 293.756 18.6941C294.131 18.405 294.447 18.0535 294.705 17.6394C294.963 17.2175 295.146 16.741 295.256 16.2097H298.408C298.275 17.1082 298.002 17.9324 297.588 18.6824C297.174 19.4324 296.638 20.0847 295.982 20.6394C295.334 21.1863 294.584 21.6121 293.732 21.9167C292.881 22.2136 291.955 22.3621 290.955 22.3621ZM307.785 22.3855C306.379 22.3855 305.168 22.1589 304.153 21.7058C303.137 21.2527 302.352 20.6003 301.797 19.7488C301.242 18.8894 300.953 17.8582 300.93 16.655H303.988C304.012 17.3191 304.184 17.8816 304.504 18.3425C304.824 18.7957 305.266 19.1433 305.828 19.3855C306.391 19.6199 307.043 19.7371 307.785 19.7371C308.496 19.7371 309.117 19.6355 309.649 19.4324C310.18 19.2214 310.594 18.9285 310.891 18.5535C311.196 18.1707 311.348 17.7253 311.348 17.2175C311.348 16.7878 311.227 16.4246 310.985 16.1277C310.75 15.823 310.395 15.5613 309.918 15.3425C309.449 15.1238 308.86 14.9324 308.149 14.7683L306.227 14.2996C304.61 13.9167 303.387 13.3386 302.559 12.5652C301.738 11.7917 301.328 10.7878 301.328 9.55347C301.328 8.52222 301.598 7.61987 302.137 6.84644C302.684 6.06519 303.438 5.45972 304.399 5.03003C305.367 4.60034 306.481 4.3855 307.738 4.3855C309.012 4.3855 310.117 4.60425 311.055 5.04175C312 5.47925 312.735 6.10034 313.258 6.90503C313.789 7.7019 314.071 8.6355 314.102 9.70581H311.113C311.051 8.86206 310.715 8.20581 310.106 7.73706C309.496 7.2605 308.696 7.02222 307.703 7.02222C307.055 7.02222 306.485 7.12378 305.992 7.3269C305.508 7.53003 305.129 7.81128 304.856 8.17065C304.59 8.52222 304.457 8.92847 304.457 9.3894C304.457 9.8269 304.582 10.1941 304.832 10.491C305.09 10.7878 305.449 11.0378 305.91 11.241C306.371 11.4441 306.918 11.6199 307.551 11.7683L309.262 12.1785C310.051 12.3582 310.762 12.5886 311.395 12.8699C312.035 13.1511 312.582 13.491 313.035 13.8894C313.496 14.2878 313.848 14.7527 314.09 15.2839C314.332 15.8152 314.453 16.4285 314.453 17.1238C314.453 18.1785 314.184 19.1003 313.645 19.8894C313.113 20.6785 312.348 21.2917 311.348 21.7292C310.356 22.1667 309.168 22.3855 307.785 22.3855Z" fill="url(#paint4_linear_742_1476)"/>
</g>
<defs>
<linearGradient id="paint0_linear_742_1476" x1="21.4222" y1="0" x2="21.4222" y2="40" gradientUnits="userSpaceOnUse">
<stop stop-color="#262626"/>
<stop offset="1" stop-color="#0D0D0D"/>
</linearGradient>
<linearGradient id="paint1_linear_742_1476" x1="21.4222" y1="0" x2="21.4222" y2="40" gradientUnits="userSpaceOnUse">
<stop stop-color="#262626"/>
<stop offset="1" stop-color="#0D0D0D"/>
</linearGradient>
<linearGradient id="paint2_linear_742_1476" x1="21.4222" y1="0" x2="21.4222" y2="40" gradientUnits="userSpaceOnUse">
<stop stop-color="#262626"/>
<stop offset="1" stop-color="#0D0D0D"/>
</linearGradient>
<linearGradient id="paint3_linear_742_1476" x1="147.72" y1="3.99902" x2="147.72" y2="36.001" gradientUnits="userSpaceOnUse">
<stop stop-color="#262626"/>
<stop offset="1" stop-color="#0D0D0D"/>
</linearGradient>
<linearGradient id="paint4_linear_742_1476" x1="245.446" y1="13.1042" x2="315.446" y2="13.1042" gradientUnits="userSpaceOnUse">
<stop stop-color="#0766FF"/>
<stop offset="1" stop-color="#589EFF"/>
</linearGradient>
</defs>
</svg>
