<svg width="284" height="40" viewBox="0 0 284 40" fill="none" xmlns="http://www.w3.org/2000/svg">
<path d="M24.0447 0.00268931C23.3061 -0.0453566 22.7043 0.556795 22.7043 1.29392V19.9796H41.5457C42.2858 19.9796 42.8905 19.3802 42.8417 18.6447C42.1784 8.64961 34.1209 0.658154 24.0447 0.00268931Z" fill="url(#paint0_linear_742_1462)"/>
<path d="M42.8417 38.6651C42.1492 28.2305 33.398 19.9796 22.7043 19.9796V38.6653C22.7043 39.4024 23.3043 40 24.0445 40H41.5457C42.2858 40 42.8905 39.4006 42.8417 38.6651Z" fill="url(#paint1_linear_742_1462)"/>
<path d="M1.34045 0.00268931C0.601861 -0.0453566 0 0.556795 0 1.29392V19.9796C0 30.5897 8.32008 39.2721 18.8411 39.9565C19.5797 40.0046 20.1816 39.4024 20.1816 38.6653V19.9796C20.1816 9.36949 11.8615 0.68709 1.34045 0.00268931Z" fill="url(#paint2_linear_742_1462)"/>
<path d="M115.396 28.9082C115.396 29.909 116.148 30.709 117.074 30.709H117.858L117.859 36.001H115.53C112.75 36.0009 110.497 33.5738 110.497 30.5713L110.496 4.63477H115.396V28.9082ZM169.291 13.6885H174.836V18.3154H169.291V27.8154C169.291 29.9013 170.323 31.0379 172.178 31.0381C173.134 31.0381 174.281 30.6451 174.836 30.1494L176.041 34.8379C175.104 35.251 173.708 35.6641 172.14 35.6641C167.091 35.6639 164.472 32.5864 164.472 27.8154V18.3154H160.131V13.9365H161.508C163.458 13.9364 164.797 12.4904 164.797 10.3838V7.90527H169.291V13.6885ZM85.8223 25.501C85.8223 29.1152 86.9893 31.0361 90.0488 31.0361C93.1084 31.0361 94.2753 29.1152 94.2754 25.501V13.6865H99.0938V35.167H94.5049V32.6885C93.2619 34.2375 91.4449 35.6621 88.8633 35.6621C83.7384 35.6621 81.004 32.11 81.0039 25.501V13.6865H85.8223V25.501ZM150.445 13.1914C155.092 13.1914 157.635 15.6696 158.438 18.7471L153.983 20.585C153.62 18.974 152.721 17.8174 150.445 17.8174C148.399 17.8174 147.539 18.6852 147.539 19.8418C147.539 20.9983 148.323 21.639 150.445 22.1553C155.379 23.3325 158.821 24.5714 158.821 28.9912C158.821 33.4112 155.188 35.6621 150.445 35.6621C145.97 35.6621 142.854 33.1219 142.031 29.8379L146.525 28C146.889 29.6936 148.036 31.0156 150.445 31.0156C152.855 31.0156 154.002 30.3544 154.002 28.9912C154.002 27.6281 152.568 27.0915 150.445 26.5752C145.626 25.4186 142.72 23.6626 142.72 19.8418C142.72 16.0208 145.798 13.1914 150.445 13.1914ZM186.449 13.1084C191.536 13.1084 195.533 15.2154 195.533 22.4443V29.2393C195.533 30.4785 196.164 31.3252 197.407 31.3252L196.298 35.6621C194.137 35.4762 192.588 34.5059 191.689 33.2461C190.293 34.7332 188.209 35.6621 185.627 35.6621C180.368 35.662 177.366 32.3163 177.366 28.1855C177.366 24.055 181.191 20.8742 186.449 20.874C188.151 20.874 189.586 21.3081 190.714 22.0723V21.8037C190.714 19.0774 189.375 17.7139 186.449 17.7139C182.651 17.714 180.396 19.5665 180.388 19.5732L178.188 15.5869C178.201 15.5771 181.354 13.1085 186.449 13.1084ZM207.443 13.1914C212.09 13.1915 214.633 15.6697 215.437 18.7471L210.98 20.585C210.617 18.9741 209.719 17.8175 207.443 17.8174C205.397 17.8174 204.536 18.6852 204.536 19.8418C204.536 20.9983 205.321 21.639 207.443 22.1553C212.377 23.3325 215.819 24.5714 215.819 28.9912C215.819 33.4111 212.186 35.662 207.443 35.6621C202.969 35.6621 199.852 33.1219 199.029 29.8379L203.522 28C203.886 29.6936 205.034 31.0156 207.443 31.0156C209.853 31.0156 211 30.3543 211 28.9912C211 27.6282 209.566 27.0915 207.443 26.5752C202.624 25.4186 199.718 23.6626 199.718 19.8418C199.718 16.0208 202.796 13.1914 207.443 13.1914ZM63.6631 4.59375V16.1602C64.7149 14.7763 66.3979 13.1855 68.9795 13.1855C74.6397 13.1858 78.3115 17.916 78.3115 24.4219C78.3114 30.9275 74.6396 35.657 68.9795 35.6572C66.3979 35.6572 64.447 34.0664 63.4717 32.6826V35.1611H58.8438V4.59375H63.6631ZM139.339 31.6914C139.339 33.7763 139.376 35.1332 139.377 35.1611H134.749V32.6826C133.774 34.0664 131.804 35.6572 129.223 35.6572C123.543 35.6572 119.871 30.9277 119.871 24.4219C119.871 17.9159 123.543 13.1855 129.223 13.1855C131.804 13.1856 133.468 14.7764 134.52 16.1602V4.59375H139.339V31.6914ZM107.222 35.166H102.403V13.6855H107.222V35.166ZM223.133 16.1602C224.376 14.6111 226.173 13.1855 228.755 13.1855C233.861 13.1856 236.596 16.7384 236.596 23.3477V35.1611H231.776V23.3477C231.776 19.7332 230.61 17.8125 227.55 17.8125C224.49 17.8126 223.324 19.7333 223.324 23.3477V35.1611H218.505V4.59375H223.133V16.1602ZM186.449 25.1699C183.619 25.17 182.186 26.286 182.186 28.1035C182.186 29.9208 183.619 31.036 186.449 31.0361C188.935 31.0361 190.714 29.9209 190.714 28.1035C190.714 26.286 189.279 25.1699 186.449 25.1699ZM68.4814 17.8125C65.3647 17.8127 63.5294 20.5799 63.5293 24.5039C63.5293 28.428 65.4028 31.031 68.4814 31.0312C71.5793 31.0312 73.4921 28.3459 73.4922 24.4219C73.4922 20.4976 71.5794 17.8125 68.4814 17.8125ZM129.72 17.8125C126.603 17.8125 124.69 20.4976 124.69 24.4219C124.691 28.3459 126.603 31.0312 129.72 31.0312C132.779 31.0312 134.673 28.4282 134.673 24.5039C134.673 20.5798 132.837 17.8125 129.72 17.8125ZM104.812 3.99902C106.495 3.9991 107.814 5.42468 107.814 7.24219C107.814 9.05946 106.495 10.4843 104.812 10.4844C103.13 10.4844 101.81 9.05951 101.81 7.24219C101.81 5.42463 103.13 3.99902 104.812 3.99902Z" fill="url(#paint3_linear_742_1462)"/>
<path d="M243.897 22.0332L250.073 4.57227H253.999L260.222 22.0332H256.8L253.729 12.9043C253.425 11.9512 253.104 10.9082 252.769 9.77539C252.433 8.64258 252.058 7.32617 251.644 5.82617H252.417C252.003 7.33398 251.628 8.6543 251.292 9.78711C250.964 10.9199 250.651 11.959 250.354 12.9043L247.272 22.0332H243.897ZM247.53 17.791V15.2598H256.589V17.791H247.53ZM262.755 22.0332V4.57227H269.365C270.677 4.57227 271.794 4.81055 272.716 5.28711C273.638 5.76367 274.341 6.42773 274.826 7.2793C275.318 8.12305 275.564 9.11133 275.564 10.2441C275.564 11.377 275.314 12.3691 274.814 13.2207C274.322 14.0645 273.607 14.7246 272.669 15.2012C271.74 15.6777 270.622 15.916 269.318 15.916H264.654V13.3027H269.06C269.802 13.3027 270.423 13.1777 270.923 12.9277C271.431 12.6699 271.814 12.3105 272.072 11.8496C272.329 11.3887 272.458 10.8535 272.458 10.2441C272.458 9.62695 272.329 9.0918 272.072 8.63867C271.814 8.18555 271.431 7.83398 270.923 7.58398C270.423 7.33398 269.802 7.20898 269.06 7.20898H265.872V22.0332H262.755ZM281.683 4.57227V22.0332H278.566V4.57227H281.683Z" fill="url(#paint4_linear_742_1462)"/>
<defs>
<linearGradient id="paint0_linear_742_1462" x1="21.4222" y1="0" x2="21.4222" y2="40" gradientUnits="userSpaceOnUse">
<stop stop-color="#262626"/>
<stop offset="1" stop-color="#0D0D0D"/>
</linearGradient>
<linearGradient id="paint1_linear_742_1462" x1="21.4222" y1="0" x2="21.4222" y2="40" gradientUnits="userSpaceOnUse">
<stop stop-color="#262626"/>
<stop offset="1" stop-color="#0D0D0D"/>
</linearGradient>
<linearGradient id="paint2_linear_742_1462" x1="21.4222" y1="0" x2="21.4222" y2="40" gradientUnits="userSpaceOnUse">
<stop stop-color="#262626"/>
<stop offset="1" stop-color="#0D0D0D"/>
</linearGradient>
<linearGradient id="paint3_linear_742_1462" x1="147.72" y1="3.99902" x2="147.72" y2="36.001" gradientUnits="userSpaceOnUse">
<stop stop-color="#262626"/>
<stop offset="1" stop-color="#0D0D0D"/>
</linearGradient>
<linearGradient id="paint4_linear_742_1462" x1="243.558" y1="13.0332" x2="283.558" y2="13.0332" gradientUnits="userSpaceOnUse">
<stop stop-color="#A82DFF"/>
<stop offset="1" stop-color="#FF79D0"/>
</linearGradient>
</defs>
</svg>
