<svg width="275" height="49" viewBox="0 0 275 49" fill="none" xmlns="http://www.w3.org/2000/svg">
<g filter="url(#filter0_ddi_742_1436)">
<path d="M28.2405 2.62525C27.5019 2.5772 26.9001 3.17935 26.9001 3.91648V22.6022H45.7415C46.4816 22.6022 47.0863 22.0027 47.0375 21.2672C46.3742 11.2722 38.3167 3.28071 28.2405 2.62525Z" fill="url(#paint0_linear_742_1436)"/>
<path d="M47.0375 41.2876C46.345 30.8531 37.5938 22.6022 26.9001 22.6022V41.2879C26.9001 42.025 27.5001 42.6226 28.2403 42.6226H45.7415C46.4816 42.6226 47.0863 42.0231 47.0375 41.2876Z" fill="url(#paint1_linear_742_1436)"/>
<path d="M5.53625 2.62525C4.79766 2.5772 4.1958 3.17935 4.1958 3.91648V22.6022C4.1958 33.2123 12.5159 41.8947 23.0369 42.5791C23.7755 42.6271 24.3774 42.025 24.3774 41.2879V22.6022C24.3774 11.992 16.0573 3.30965 5.53625 2.62525Z" fill="url(#paint2_linear_742_1436)"/>
<path d="M26.9331 22.6353C37.5946 22.6522 46.3137 30.8832 47.0044 41.2896C47.0518 42.0045 46.4644 42.5892 45.7417 42.5894H28.2407C27.5185 42.5894 26.9331 42.0065 26.9331 41.2876V22.6353ZM5.53369 2.65771C16.0378 3.34101 24.3442 12.0096 24.3442 22.6021V41.2876C24.3442 42.0071 23.757 42.5931 23.0386 42.5464C12.5347 41.8629 4.229 33.1944 4.229 22.6021V3.9165C4.229 3.19719 4.81545 2.61125 5.53369 2.65771ZM28.2388 2.65771C38.2985 3.31228 46.342 11.2909 47.0044 21.269C47.0518 21.984 46.4644 22.5697 45.7417 22.5698H26.9331V3.9165C26.9331 3.19704 27.5203 2.61098 28.2388 2.65771Z" stroke="url(#paint3_linear_742_1436)" stroke-width="0.065561"/>
</g>
<g filter="url(#filter1_ddi_742_1436)">
<mask id="path-3-inside-1_742_1436" fill="white">
<path d="M119.591 31.5308C119.591 32.5316 120.343 33.3315 121.27 33.3315H122.054L122.055 38.6235H119.726C116.946 38.6235 114.693 36.1964 114.693 33.1938L114.692 7.25732H119.591V31.5308ZM173.487 16.311H179.032V20.938H173.487V30.438C173.487 32.5239 174.519 33.6604 176.374 33.6606C177.33 33.6606 178.477 33.2676 179.032 32.772L180.237 37.4604C179.3 37.8735 177.904 38.2866 176.335 38.2866C171.287 38.2865 168.667 35.209 168.667 30.438V20.938H164.327V16.5591H165.704C167.654 16.5589 168.993 15.1129 168.993 13.0063V10.5278H173.487V16.311ZM90.0181 28.1235C90.0181 31.7377 91.1851 33.6587 94.2446 33.6587C97.3042 33.6587 98.4711 31.7377 98.4712 28.1235V16.3091H103.29V37.7896H98.7007V35.311C97.4577 36.8601 95.6407 38.2846 93.0591 38.2847C87.9342 38.2847 85.1998 34.7326 85.1997 28.1235V16.3091H90.0181V28.1235ZM154.641 15.814C159.288 15.814 161.831 18.2922 162.634 21.3696L158.179 23.2075C157.816 21.5966 156.917 20.4399 154.641 20.4399C152.595 20.4399 151.735 21.3077 151.735 22.4644C151.735 23.6208 152.519 24.2615 154.641 24.7778C159.575 25.9551 163.017 27.1939 163.017 31.6138C163.017 36.0337 159.384 38.2847 154.641 38.2847C150.166 38.2847 147.049 35.7444 146.227 32.4604L150.721 30.6226C151.085 32.3161 152.232 33.6382 154.641 33.6382C157.051 33.6382 158.198 32.9769 158.198 31.6138C158.198 30.2507 156.764 29.7141 154.641 29.1978C149.822 28.0412 146.916 26.2852 146.916 22.4644C146.916 18.6434 149.994 15.814 154.641 15.814ZM190.645 15.731C195.732 15.731 199.729 17.838 199.729 25.0669V31.8618C199.729 33.101 200.36 33.9478 201.603 33.9478L200.494 38.2847C198.333 38.0987 196.784 37.1285 195.885 35.8687C194.489 37.3557 192.404 38.2847 189.823 38.2847C184.564 38.2845 181.562 34.9388 181.562 30.8081C181.562 26.6775 185.386 23.4967 190.645 23.4966C192.347 23.4966 193.781 23.9307 194.91 24.6948V24.4263C194.91 21.7 193.571 20.3364 190.645 20.3364C186.847 20.3365 184.592 22.189 184.583 22.1958L182.384 18.2095C182.397 18.1997 185.549 15.7311 190.645 15.731ZM211.639 15.814C216.286 15.8141 218.829 18.2922 219.632 21.3696L215.176 23.2075C214.813 21.5967 213.915 20.44 211.639 20.4399C209.593 20.4399 208.732 21.3077 208.732 22.4644C208.732 23.6208 209.517 24.2615 211.639 24.7778C216.573 25.9551 220.015 27.194 220.015 31.6138C220.015 36.0337 216.382 38.2846 211.639 38.2847C207.164 38.2847 204.047 35.7444 203.225 32.4604L207.718 30.6226C208.082 32.3162 209.23 33.6382 211.639 33.6382C214.049 33.6381 215.196 32.9769 215.196 31.6138C215.196 30.2507 213.762 29.7141 211.639 29.1978C206.82 28.0412 203.914 26.2852 203.914 22.4644C203.914 18.6434 206.992 15.814 211.639 15.814ZM67.8589 7.21631V18.7827C68.9107 17.3989 70.5937 15.8081 73.1753 15.8081C78.8355 15.8084 82.5073 20.5386 82.5073 27.0444C82.5072 33.5501 78.8354 38.2795 73.1753 38.2798C70.5937 38.2798 68.6428 36.689 67.6675 35.3052V37.7837H63.0396V7.21631H67.8589ZM143.535 34.314C143.535 36.3988 143.572 37.7558 143.573 37.7837H138.945V35.3052C137.97 36.689 136 38.2797 133.418 38.2798C127.739 38.2798 124.067 33.5503 124.067 27.0444C124.067 20.5384 127.739 15.8081 133.418 15.8081C136 15.8082 137.664 17.3989 138.715 18.7827V7.21631H143.535V34.314ZM111.417 37.7886H106.599V16.3081H111.417V37.7886ZM227.329 18.7827C228.572 17.2337 230.369 15.8081 232.951 15.8081C238.057 15.8081 240.792 19.3609 240.792 25.9702V37.7837H235.972V25.9702C235.972 22.3558 234.805 20.4351 231.746 20.4351C228.686 20.4352 227.52 22.3559 227.52 25.9702V37.7837H222.701V7.21631H227.329V18.7827ZM190.645 27.7925C187.815 27.7926 186.381 28.9086 186.381 30.7261C186.382 32.5434 187.815 33.6586 190.645 33.6587C193.131 33.6587 194.909 32.5435 194.91 30.7261C194.91 28.9085 193.475 27.7925 190.645 27.7925ZM72.6772 20.4351C69.5605 20.4353 67.7252 23.2025 67.7251 27.1265C67.7251 31.0506 69.5986 33.6536 72.6772 33.6538C75.7751 33.6538 77.6879 30.9685 77.688 27.0444C77.688 23.1202 75.7752 20.4351 72.6772 20.4351ZM133.916 20.4351C130.798 20.4351 128.886 23.1202 128.886 27.0444C128.886 30.9685 130.799 33.6538 133.916 33.6538C136.975 33.6538 138.869 31.0507 138.869 27.1265C138.869 23.2023 137.033 20.4351 133.916 20.4351ZM109.008 6.62158C110.691 6.62166 112.01 8.04724 112.01 9.86475C112.01 11.682 110.691 13.1069 109.008 13.1069C107.326 13.1069 106.006 11.6821 106.005 9.86475C106.005 8.04719 107.325 6.62158 109.008 6.62158Z"/>
</mask>
<path d="M119.591 31.5308C119.591 32.5316 120.343 33.3315 121.27 33.3315H122.054L122.055 38.6235H119.726C116.946 38.6235 114.693 36.1964 114.693 33.1938L114.692 7.25732H119.591V31.5308ZM173.487 16.311H179.032V20.938H173.487V30.438C173.487 32.5239 174.519 33.6604 176.374 33.6606C177.33 33.6606 178.477 33.2676 179.032 32.772L180.237 37.4604C179.3 37.8735 177.904 38.2866 176.335 38.2866C171.287 38.2865 168.667 35.209 168.667 30.438V20.938H164.327V16.5591H165.704C167.654 16.5589 168.993 15.1129 168.993 13.0063V10.5278H173.487V16.311ZM90.0181 28.1235C90.0181 31.7377 91.1851 33.6587 94.2446 33.6587C97.3042 33.6587 98.4711 31.7377 98.4712 28.1235V16.3091H103.29V37.7896H98.7007V35.311C97.4577 36.8601 95.6407 38.2846 93.0591 38.2847C87.9342 38.2847 85.1998 34.7326 85.1997 28.1235V16.3091H90.0181V28.1235ZM154.641 15.814C159.288 15.814 161.831 18.2922 162.634 21.3696L158.179 23.2075C157.816 21.5966 156.917 20.4399 154.641 20.4399C152.595 20.4399 151.735 21.3077 151.735 22.4644C151.735 23.6208 152.519 24.2615 154.641 24.7778C159.575 25.9551 163.017 27.1939 163.017 31.6138C163.017 36.0337 159.384 38.2847 154.641 38.2847C150.166 38.2847 147.049 35.7444 146.227 32.4604L150.721 30.6226C151.085 32.3161 152.232 33.6382 154.641 33.6382C157.051 33.6382 158.198 32.9769 158.198 31.6138C158.198 30.2507 156.764 29.7141 154.641 29.1978C149.822 28.0412 146.916 26.2852 146.916 22.4644C146.916 18.6434 149.994 15.814 154.641 15.814ZM190.645 15.731C195.732 15.731 199.729 17.838 199.729 25.0669V31.8618C199.729 33.101 200.36 33.9478 201.603 33.9478L200.494 38.2847C198.333 38.0987 196.784 37.1285 195.885 35.8687C194.489 37.3557 192.404 38.2847 189.823 38.2847C184.564 38.2845 181.562 34.9388 181.562 30.8081C181.562 26.6775 185.386 23.4967 190.645 23.4966C192.347 23.4966 193.781 23.9307 194.91 24.6948V24.4263C194.91 21.7 193.571 20.3364 190.645 20.3364C186.847 20.3365 184.592 22.189 184.583 22.1958L182.384 18.2095C182.397 18.1997 185.549 15.7311 190.645 15.731ZM211.639 15.814C216.286 15.8141 218.829 18.2922 219.632 21.3696L215.176 23.2075C214.813 21.5967 213.915 20.44 211.639 20.4399C209.593 20.4399 208.732 21.3077 208.732 22.4644C208.732 23.6208 209.517 24.2615 211.639 24.7778C216.573 25.9551 220.015 27.194 220.015 31.6138C220.015 36.0337 216.382 38.2846 211.639 38.2847C207.164 38.2847 204.047 35.7444 203.225 32.4604L207.718 30.6226C208.082 32.3162 209.23 33.6382 211.639 33.6382C214.049 33.6381 215.196 32.9769 215.196 31.6138C215.196 30.2507 213.762 29.7141 211.639 29.1978C206.82 28.0412 203.914 26.2852 203.914 22.4644C203.914 18.6434 206.992 15.814 211.639 15.814ZM67.8589 7.21631V18.7827C68.9107 17.3989 70.5937 15.8081 73.1753 15.8081C78.8355 15.8084 82.5073 20.5386 82.5073 27.0444C82.5072 33.5501 78.8354 38.2795 73.1753 38.2798C70.5937 38.2798 68.6428 36.689 67.6675 35.3052V37.7837H63.0396V7.21631H67.8589ZM143.535 34.314C143.535 36.3988 143.572 37.7558 143.573 37.7837H138.945V35.3052C137.97 36.689 136 38.2797 133.418 38.2798C127.739 38.2798 124.067 33.5503 124.067 27.0444C124.067 20.5384 127.739 15.8081 133.418 15.8081C136 15.8082 137.664 17.3989 138.715 18.7827V7.21631H143.535V34.314ZM111.417 37.7886H106.599V16.3081H111.417V37.7886ZM227.329 18.7827C228.572 17.2337 230.369 15.8081 232.951 15.8081C238.057 15.8081 240.792 19.3609 240.792 25.9702V37.7837H235.972V25.9702C235.972 22.3558 234.805 20.4351 231.746 20.4351C228.686 20.4352 227.52 22.3559 227.52 25.9702V37.7837H222.701V7.21631H227.329V18.7827ZM190.645 27.7925C187.815 27.7926 186.381 28.9086 186.381 30.7261C186.382 32.5434 187.815 33.6586 190.645 33.6587C193.131 33.6587 194.909 32.5435 194.91 30.7261C194.91 28.9085 193.475 27.7925 190.645 27.7925ZM72.6772 20.4351C69.5605 20.4353 67.7252 23.2025 67.7251 27.1265C67.7251 31.0506 69.5986 33.6536 72.6772 33.6538C75.7751 33.6538 77.6879 30.9685 77.688 27.0444C77.688 23.1202 75.7752 20.4351 72.6772 20.4351ZM133.916 20.4351C130.798 20.4351 128.886 23.1202 128.886 27.0444C128.886 30.9685 130.799 33.6538 133.916 33.6538C136.975 33.6538 138.869 31.0507 138.869 27.1265C138.869 23.2023 137.033 20.4351 133.916 20.4351ZM109.008 6.62158C110.691 6.62166 112.01 8.04724 112.01 9.86475C112.01 11.682 110.691 13.1069 109.008 13.1069C107.326 13.1069 106.006 11.6821 106.005 9.86475C106.005 8.04719 107.325 6.62158 109.008 6.62158Z" fill="url(#paint4_linear_742_1436)"/>
<path d="M119.591 31.5308L119.54 31.5308L119.54 31.5308L119.591 31.5308ZM122.054 33.3315L122.105 33.3315L122.105 33.2804H122.054V33.3315ZM122.055 38.6235V38.6746H122.106L122.106 38.6235L122.055 38.6235ZM119.726 38.6235L119.726 38.6746H119.726V38.6235ZM114.693 33.1938L114.744 33.1938L114.744 33.1938L114.693 33.1938ZM114.692 7.25732V7.20621H114.641L114.641 7.25733L114.692 7.25732ZM119.591 7.25732H119.642V7.20621H119.591V7.25732ZM173.487 16.311H173.436V16.3621H173.487V16.311ZM179.032 16.311H179.083V16.2599H179.032V16.311ZM179.032 20.938V20.9891H179.083V20.938H179.032ZM173.487 20.938V20.8869H173.436V20.938H173.487ZM176.374 33.6606L176.374 33.7118H176.374V33.6606ZM179.032 32.772L179.081 32.7592L179.06 32.6779L178.998 32.7339L179.032 32.772ZM180.237 37.4604L180.257 37.5072L180.297 37.4897L180.286 37.4477L180.237 37.4604ZM176.335 38.2866L176.335 38.3377H176.335V38.2866ZM168.667 20.938H168.719V20.8869H168.667V20.938ZM164.327 20.938H164.276V20.9891H164.327V20.938ZM164.327 16.5591V16.508H164.276V16.5591H164.327ZM165.704 16.5591L165.704 16.6102L165.704 16.6102L165.704 16.5591ZM168.993 10.5278V10.4767H168.942V10.5278H168.993ZM173.487 10.5278H173.538V10.4767H173.487V10.5278ZM90.0181 28.1235L89.967 28.1235L89.967 28.1235L90.0181 28.1235ZM94.2446 33.6587L94.2446 33.7098H94.2446V33.6587ZM98.4712 28.1235L98.5223 28.1235V28.1235H98.4712ZM98.4712 16.3091V16.258H98.4201V16.3091H98.4712ZM103.29 16.3091H103.341V16.258H103.29V16.3091ZM103.29 37.7896V37.8407H103.341V37.7896H103.29ZM98.7007 37.7896H98.6496V37.8407H98.7007V37.7896ZM98.7007 35.311H98.7518V35.1657L98.6608 35.279L98.7007 35.311ZM93.0591 38.2847L93.0591 38.3358L93.0591 38.3358L93.0591 38.2847ZM85.1997 28.1235L85.1486 28.1235L85.1486 28.1235L85.1997 28.1235ZM85.1997 16.3091V16.258H85.1486V16.3091H85.1997ZM90.0181 16.3091H90.0692V16.258H90.0181V16.3091ZM154.641 15.814L154.641 15.7629H154.641L154.641 15.814ZM162.634 21.3696L162.654 21.4169L162.695 21.3999L162.684 21.3567L162.634 21.3696ZM158.179 23.2075L158.129 23.2188L158.143 23.2779L158.199 23.2548L158.179 23.2075ZM154.641 20.4399L154.641 20.3888H154.641L154.641 20.4399ZM151.735 22.4644L151.684 22.4644L151.684 22.4644L151.735 22.4644ZM154.641 24.7778L154.629 24.8275L154.629 24.8275L154.641 24.7778ZM163.017 31.6138L163.068 31.6138L163.068 31.6138L163.017 31.6138ZM154.641 38.2847L154.641 38.3358H154.641V38.2847ZM146.227 32.4604L146.208 32.4131L146.167 32.4299L146.177 32.4729L146.227 32.4604ZM150.721 30.6226L150.771 30.6118L150.758 30.5521L150.702 30.5752L150.721 30.6226ZM154.641 33.6382L154.641 33.6893H154.641V33.6382ZM158.198 31.6138L158.249 31.6138L158.249 31.6138L158.198 31.6138ZM154.641 29.1978L154.653 29.1481L154.653 29.1481L154.641 29.1978ZM146.916 22.4644L146.864 22.4644L146.864 22.4644L146.916 22.4644ZM190.645 15.731L190.645 15.6798L190.645 15.6798L190.645 15.731ZM199.729 31.8618L199.678 31.8618L199.678 31.8618L199.729 31.8618ZM201.603 33.9478L201.653 33.9604L201.669 33.8966H201.603V33.9478ZM200.494 38.2847L200.489 38.3356L200.532 38.3393L200.543 38.2973L200.494 38.2847ZM195.885 35.8687L195.927 35.839L195.891 35.7882L195.848 35.8337L195.885 35.8687ZM189.823 38.2847L189.823 38.3358H189.823V38.2847ZM181.562 30.8081L181.511 30.8081V30.8081H181.562ZM190.645 23.4966L190.645 23.4455L190.645 23.4455L190.645 23.4966ZM194.91 24.6948L194.881 24.7371L194.961 24.7912V24.6948H194.91ZM194.91 24.4263L194.961 24.4263L194.961 24.4263L194.91 24.4263ZM190.645 20.3364L190.645 20.2853L190.645 20.2853L190.645 20.3364ZM184.583 22.1958L184.539 22.2205L184.568 22.2744L184.616 22.2353L184.583 22.1958ZM182.384 18.2095L182.353 18.1693L182.319 18.1961L182.34 18.2342L182.384 18.2095ZM211.639 15.814L211.639 15.7629H211.639V15.814ZM219.632 21.3696L219.652 21.4169L219.693 21.3999L219.682 21.3567L219.632 21.3696ZM215.176 23.2075L215.126 23.2188L215.14 23.2779L215.196 23.2548L215.176 23.2075ZM211.639 20.4399L211.639 20.3888H211.639V20.4399ZM208.732 22.4644L208.681 22.4644L208.681 22.4644L208.732 22.4644ZM211.639 24.7778L211.627 24.8275L211.627 24.8275L211.639 24.7778ZM220.015 31.6138L220.066 31.6138L220.066 31.6138L220.015 31.6138ZM211.639 38.2847L211.639 38.3358L211.639 38.3358L211.639 38.2847ZM203.225 32.4604L203.206 32.4131L203.165 32.4299L203.176 32.4729L203.225 32.4604ZM207.718 30.6226L207.768 30.6118L207.755 30.5521L207.699 30.5752L207.718 30.6226ZM211.639 33.6382L211.639 33.6893L211.639 33.6893L211.639 33.6382ZM215.196 31.6138L215.247 31.6138L215.247 31.6138L215.196 31.6138ZM211.639 29.1978L211.651 29.1481L211.651 29.1481L211.639 29.1978ZM203.914 22.4644L203.862 22.4644L203.862 22.4644L203.914 22.4644ZM67.8589 7.21631H67.91V7.16519H67.8589V7.21631ZM67.8589 18.7827H67.8078V18.9344L67.8996 18.8136L67.8589 18.7827ZM73.1753 15.8081L73.1753 15.757H73.1753V15.8081ZM82.5073 27.0444L82.5584 27.0444V27.0444H82.5073ZM73.1753 38.2798L73.1753 38.3309L73.1753 38.3309L73.1753 38.2798ZM67.6675 35.3052L67.7093 35.2757L67.6164 35.1439V35.3052H67.6675ZM67.6675 37.7837V37.8348H67.7186V37.7837H67.6675ZM63.0396 37.7837H62.9884V37.8348H63.0396V37.7837ZM63.0396 7.21631V7.16519H62.9884V7.21631H63.0396ZM143.573 37.7837V37.8348H143.625L143.624 37.7823L143.573 37.7837ZM138.945 37.7837H138.894V37.8348H138.945V37.7837ZM138.945 35.3052H138.996V35.1439L138.903 35.2757L138.945 35.3052ZM133.418 38.2798L133.418 38.3309L133.418 38.3309L133.418 38.2798ZM124.067 27.0444L124.016 27.0444L124.016 27.0444L124.067 27.0444ZM133.418 15.8081L133.418 15.757H133.418V15.8081ZM138.715 18.7827L138.675 18.8136L138.766 18.9344V18.7827H138.715ZM138.715 7.21631V7.16519H138.664V7.21631H138.715ZM143.535 7.21631H143.586V7.16519H143.535V7.21631ZM111.417 37.7886V37.8397H111.469V37.7886H111.417ZM106.599 37.7886H106.548V37.8397H106.599V37.7886ZM106.599 16.3081V16.257H106.548V16.3081H106.599ZM111.417 16.3081H111.469V16.257H111.417V16.3081ZM227.329 18.7827H227.277V18.9281L227.368 18.8147L227.329 18.7827ZM232.951 15.8081L232.951 15.757H232.951V15.8081ZM240.792 37.7837V37.8348H240.843V37.7837H240.792ZM235.972 37.7837H235.921V37.8348H235.972V37.7837ZM231.746 20.4351V20.3839L231.746 20.3839L231.746 20.4351ZM227.52 37.7837V37.8348H227.571V37.7837H227.52ZM222.701 37.7837H222.65V37.8348H222.701V37.7837ZM222.701 7.21631V7.16519H222.65V7.21631H222.701ZM227.329 7.21631H227.38V7.16519H227.329V7.21631ZM190.645 27.7925L190.645 27.7414L190.645 27.7414L190.645 27.7925ZM186.381 30.7261L186.33 30.7261L186.33 30.7261L186.381 30.7261ZM190.645 33.6587L190.645 33.7098H190.645V33.6587ZM194.91 30.7261L194.961 30.7261V30.7261H194.91ZM72.6772 20.4351L72.6772 20.3839L72.6772 20.3839L72.6772 20.4351ZM67.7251 27.1265L67.674 27.1265V27.1265H67.7251ZM72.6772 33.6538L72.6772 33.7049H72.6772V33.6538ZM77.688 27.0444L77.7391 27.0444V27.0444H77.688ZM133.916 20.4351L133.916 20.3839H133.916V20.4351ZM128.886 27.0444L128.835 27.0444L128.835 27.0444L128.886 27.0444ZM133.916 33.6538L133.916 33.7049L133.916 33.7049L133.916 33.6538ZM138.869 27.1265L138.92 27.1265L138.92 27.1265L138.869 27.1265ZM109.008 6.62158L109.008 6.57047H109.008V6.62158ZM112.01 9.86475L112.061 9.86475V9.86475H112.01ZM109.008 13.1069L109.008 13.158L109.008 13.158L109.008 13.1069ZM106.005 9.86475L105.954 9.86475L105.954 9.86475L106.005 9.86475ZM119.591 31.5308L119.54 31.5308C119.54 32.5565 120.312 33.3827 121.27 33.3827V33.3315V33.2804C120.375 33.2804 119.642 32.5067 119.642 31.5308L119.591 31.5308ZM121.27 33.3315V33.3827H122.054V33.3315V33.2804H121.27V33.3315ZM122.054 33.3315L122.003 33.3316L122.004 38.6235L122.055 38.6235L122.106 38.6235L122.105 33.3315L122.054 33.3315ZM122.055 38.6235V38.5724H119.726V38.6235V38.6746H122.055V38.6235ZM119.726 38.6235L119.726 38.5724C116.978 38.5724 114.744 36.1718 114.744 33.1938L114.693 33.1938L114.642 33.1938C114.642 36.2209 116.914 38.6746 119.726 38.6746L119.726 38.6235ZM114.693 33.1938L114.744 33.1938L114.743 7.25732L114.692 7.25732L114.641 7.25733L114.642 33.1938L114.693 33.1938ZM114.692 7.25732V7.30844H119.591V7.25732V7.20621H114.692V7.25732ZM119.591 7.25732H119.54V31.5308H119.591H119.642V7.25732H119.591ZM173.487 16.311V16.3621H179.032V16.311V16.2599H173.487V16.311ZM179.032 16.311H178.981V20.938H179.032H179.083V16.311H179.032ZM179.032 20.938V20.8869H173.487V20.938V20.9891H179.032V20.938ZM173.487 20.938H173.436V30.438H173.487H173.538V20.938H173.487ZM173.487 30.438H173.436C173.436 31.4887 173.696 32.3083 174.197 32.8656C174.698 33.4238 175.435 33.7117 176.374 33.7118L176.374 33.6606L176.374 33.6095C175.457 33.6094 174.751 33.3289 174.273 32.7973C173.794 32.2648 173.538 31.4732 173.538 30.438H173.487ZM176.374 33.6606V33.7118C176.858 33.7118 177.389 33.6123 177.87 33.4506C178.349 33.2891 178.782 33.0642 179.066 32.8101L179.032 32.772L178.998 32.7339C178.727 32.9755 178.309 33.1948 177.837 33.3537C177.366 33.5125 176.845 33.6095 176.374 33.6095V33.6606ZM179.032 32.772L178.982 32.7847L180.187 37.4732L180.237 37.4604L180.286 37.4477L179.081 32.7592L179.032 32.772ZM180.237 37.4604L180.216 37.4137C179.284 37.8246 177.895 38.2355 176.335 38.2355V38.2866V38.3377C177.912 38.3377 179.315 37.9225 180.257 37.5072L180.237 37.4604ZM176.335 38.2866L176.335 38.2355C173.822 38.2354 171.92 37.4695 170.646 36.1163C169.371 34.7626 168.719 32.8145 168.719 30.438H168.667H168.616C168.616 32.8325 169.274 34.8086 170.571 36.1864C171.869 37.5647 173.801 38.3377 176.335 38.3377L176.335 38.2866ZM168.667 30.438H168.719V20.938H168.667H168.616V30.438H168.667ZM168.667 20.938V20.8869H164.327V20.938V20.9891H168.667V20.938ZM164.327 20.938H164.378V16.5591H164.327H164.276V20.938H164.327ZM164.327 16.5591V16.6102H165.704V16.5591V16.508H164.327V16.5591ZM165.704 16.5591L165.704 16.6102C166.692 16.6101 167.528 16.2434 168.117 15.6074C168.706 14.9717 169.044 14.0705 169.044 13.0063H168.993H168.942C168.942 14.0488 168.61 14.9239 168.042 15.5379C167.474 16.1516 166.666 16.5079 165.704 16.508L165.704 16.5591ZM168.993 13.0063H169.044V10.5278H168.993H168.942V13.0063H168.993ZM168.993 10.5278V10.5789H173.487V10.5278V10.4767H168.993V10.5278ZM173.487 10.5278H173.436V16.311H173.487H173.538V10.5278H173.487ZM90.0181 28.1235L89.967 28.1235C89.967 29.9342 90.2589 31.3312 90.9426 32.2764C91.6289 33.2251 92.7032 33.7098 94.2446 33.7098L94.2446 33.6587L94.2446 33.6076C92.7265 33.6076 91.6875 33.1317 91.0255 32.2165C90.3608 31.2976 90.0692 29.9271 90.0692 28.1235L90.0181 28.1235ZM94.2446 33.6587V33.7098C95.786 33.7098 96.8604 33.2252 97.5466 32.2764C98.2303 31.3312 98.5223 29.9342 98.5223 28.1235L98.4712 28.1235L98.4201 28.1235C98.42 29.9271 98.1285 31.2976 97.4638 32.2165C96.8017 33.1318 95.7628 33.6076 94.2446 33.6076V33.6587ZM98.4712 28.1235H98.5223V16.3091H98.4712H98.4201V28.1235H98.4712ZM98.4712 16.3091V16.3602H103.29V16.3091V16.258H98.4712V16.3091ZM103.29 16.3091H103.238V37.7896H103.29H103.341V16.3091H103.29ZM103.29 37.7896V37.7384H98.7007V37.7896V37.8407H103.29V37.7896ZM98.7007 37.7896H98.7518V35.311H98.7007H98.6496V37.7896H98.7007ZM98.7007 35.311L98.6608 35.279C97.4231 36.8215 95.6193 38.2335 93.0591 38.2336L93.0591 38.2847L93.0591 38.3358C95.662 38.3358 97.4923 36.8987 98.7405 35.343L98.7007 35.311ZM93.0591 38.2847V38.2336C90.5096 38.2336 88.5609 37.3508 87.248 35.6512C85.9334 33.9495 85.2509 31.4222 85.2508 28.1235L85.1997 28.1235L85.1486 28.1235C85.1486 31.4339 85.8333 33.9871 87.1671 35.7137C88.5027 37.4425 90.4837 38.3358 93.0591 38.3358V38.2847ZM85.1997 28.1235H85.2508V16.3091H85.1997H85.1486V28.1235H85.1997ZM85.1997 16.3091V16.3602H90.0181V16.3091V16.258H85.1997V16.3091ZM90.0181 16.3091H89.967V28.1235H90.0181H90.0692V16.3091H90.0181ZM154.641 15.814V15.8651C156.955 15.8651 158.741 16.482 160.048 17.4784C161.355 18.4749 162.186 19.8534 162.585 21.3825L162.634 21.3696L162.684 21.3567C162.28 19.8084 161.437 18.4091 160.11 17.3971C158.783 16.385 156.974 15.7629 154.641 15.7629V15.814ZM162.634 21.3696L162.615 21.3224L158.16 23.1603L158.179 23.2075L158.199 23.2548L162.654 21.4169L162.634 21.3696ZM158.179 23.2075L158.229 23.1963C158.046 22.3851 157.727 21.6816 157.161 21.1813C156.595 20.6804 155.788 20.3888 154.641 20.3888V20.4399V20.4911C155.77 20.4911 156.55 20.7778 157.093 21.2579C157.637 21.7386 157.949 22.419 158.129 23.2188L158.179 23.2075ZM154.641 20.4399L154.641 20.3888C153.612 20.3888 152.873 20.607 152.39 20.9779C151.905 21.3502 151.684 21.8722 151.684 22.4644H151.735H151.786C151.786 21.8999 151.995 21.4097 152.452 21.059C152.91 20.7068 153.624 20.4911 154.641 20.4911L154.641 20.4399ZM151.735 22.4644L151.684 22.4644C151.684 23.057 151.886 23.5214 152.36 23.9011C152.83 24.2776 153.566 24.5689 154.629 24.8275L154.641 24.7778L154.653 24.7282C153.594 24.4704 152.876 24.1832 152.424 23.8213C151.976 23.4624 151.786 23.0282 151.786 22.4644L151.735 22.4644ZM154.641 24.7778L154.629 24.8275C157.097 25.4164 159.182 26.0188 160.65 27.022C161.383 27.5229 161.962 28.123 162.357 28.8705C162.752 29.6179 162.966 30.5156 162.966 31.6138L163.017 31.6138L163.068 31.6138C163.068 30.502 162.852 29.5874 162.447 28.8227C162.043 28.058 161.452 27.4461 160.708 26.9376C159.222 25.9222 157.119 25.3165 154.653 24.7281L154.641 24.7778ZM163.017 31.6138H162.966C162.966 33.8079 162.065 35.4603 160.577 36.5657C159.087 37.6724 157.005 38.2336 154.641 38.2336V38.2847V38.3358C157.02 38.3358 159.125 37.7714 160.638 36.6477C162.152 35.5227 163.068 33.8396 163.068 31.6138H163.017ZM154.641 38.2847L154.641 38.2336C150.187 38.2336 147.093 35.7064 146.277 32.448L146.227 32.4604L146.177 32.4729C147.006 35.7825 150.146 38.3358 154.641 38.3358L154.641 38.2847ZM146.227 32.4604L146.246 32.5078L150.741 30.6699L150.721 30.6226L150.702 30.5752L146.208 32.4131L146.227 32.4604ZM150.721 30.6226L150.671 30.6333C150.855 31.488 151.237 32.253 151.881 32.8043C152.525 33.3559 153.427 33.6893 154.641 33.6893L154.641 33.6382L154.641 33.5871C153.446 33.5871 152.57 33.2594 151.947 32.7266C151.324 32.1935 150.951 31.4507 150.771 30.6118L150.721 30.6226ZM154.641 33.6382V33.6893C155.849 33.6893 156.749 33.5239 157.348 33.1816C157.649 33.0099 157.875 32.7933 158.025 32.5306C158.176 32.2679 158.249 31.9619 158.249 31.6138H158.198H158.147C158.147 31.9472 158.077 32.2351 157.937 32.4798C157.796 32.7244 157.585 32.9287 157.298 33.0928C156.721 33.4218 155.843 33.5871 154.641 33.5871V33.6382ZM158.198 31.6138L158.249 31.6138C158.249 30.9089 157.876 30.4195 157.241 30.0442C156.61 29.6708 155.714 29.4062 154.653 29.1481L154.641 29.1978L154.629 29.2474C155.691 29.5057 156.573 29.7675 157.189 30.1322C157.803 30.4952 158.147 30.9556 158.147 31.6138L158.198 31.6138ZM154.641 29.1978L154.653 29.1481C152.246 28.5702 150.323 27.8442 149.003 26.7902C147.686 25.7387 146.967 24.3591 146.967 22.4644L146.916 22.4644L146.864 22.4644C146.864 24.3904 147.598 25.7993 148.939 26.8701C150.277 27.9384 152.218 28.6687 154.629 29.2475L154.641 29.1978ZM146.916 22.4644H146.967C146.967 20.5684 147.73 18.9199 149.069 17.7447C150.409 16.5692 152.328 15.8651 154.641 15.8651L154.641 15.814L154.641 15.7629C152.307 15.7629 150.363 16.4734 149.002 17.6679C147.64 18.8627 146.864 20.5393 146.864 22.4644H146.916ZM190.645 15.731V15.7821C193.183 15.7821 195.439 16.3078 197.061 17.7266C198.681 19.1441 199.678 21.4617 199.678 25.0669H199.729H199.78C199.78 21.4432 198.778 19.0928 197.128 17.6496C195.48 16.2076 193.194 15.6798 190.645 15.6798V15.731ZM199.729 25.0669H199.678V31.8618H199.729H199.78V25.0669H199.729ZM199.729 31.8618L199.678 31.8618C199.678 32.4895 199.838 33.0241 200.161 33.4027C200.485 33.7824 200.969 33.9989 201.603 33.9989V33.9478V33.8966C200.994 33.8966 200.541 33.6897 200.239 33.3363C199.936 32.9817 199.78 32.4734 199.78 31.8618L199.729 31.8618ZM201.603 33.9478L201.554 33.9351L200.444 38.272L200.494 38.2847L200.543 38.2973L201.653 33.9604L201.603 33.9478ZM200.494 38.2847L200.498 38.2337C198.351 38.049 196.816 37.0857 195.927 35.839L195.885 35.8687L195.844 35.8983C196.752 37.1713 198.315 38.1485 200.489 38.3356L200.494 38.2847ZM195.885 35.8687L195.848 35.8337C194.463 37.3095 192.392 38.2336 189.823 38.2336V38.2847V38.3358C192.417 38.3358 194.516 37.402 195.923 35.9036L195.885 35.8687ZM189.823 38.2847L189.823 38.2336C187.205 38.2335 185.153 37.4008 183.756 36.0585C182.359 34.7162 181.613 32.8608 181.613 30.8081H181.562H181.511C181.511 32.8861 182.266 34.769 183.685 36.1322C185.104 37.4955 187.182 38.3357 189.823 38.3358L189.823 38.2847ZM181.562 30.8081L181.613 30.8081C181.613 26.7151 185.404 23.5478 190.645 23.5477L190.645 23.4966L190.645 23.4455C185.369 23.4456 181.511 26.6399 181.511 30.8081L181.562 30.8081ZM190.645 23.4966V23.5477C192.338 23.5477 193.762 23.9794 194.881 24.7371L194.91 24.6948L194.938 24.6525C193.801 23.8819 192.356 23.4455 190.645 23.4455V23.4966ZM194.91 24.6948H194.961V24.4263H194.91H194.859V24.6948H194.91ZM194.91 24.4263L194.961 24.4263C194.961 23.0555 194.624 22.0172 193.91 21.3224C193.196 20.6278 192.115 20.2853 190.645 20.2853V20.3364V20.3875C192.101 20.3875 193.152 20.7269 193.839 21.3956C194.526 22.0641 194.859 23.0708 194.859 24.4263L194.91 24.4263ZM190.645 20.3364L190.645 20.2853C186.83 20.2854 184.564 22.1459 184.551 22.1563L184.583 22.1958L184.616 22.2353C184.62 22.2322 186.863 20.3877 190.645 20.3875L190.645 20.3364ZM184.583 22.1958L184.628 22.1711L182.429 18.1848L182.384 18.2095L182.34 18.2342L184.539 22.2205L184.583 22.1958ZM182.384 18.2095L182.416 18.2497C182.424 18.2432 185.566 15.7822 190.645 15.7821L190.645 15.731L190.645 15.6798C185.533 15.68 182.369 18.1562 182.353 18.1693L182.384 18.2095ZM211.639 15.814L211.639 15.8651C213.953 15.8651 215.739 16.4821 217.046 17.4785C218.353 18.4749 219.184 19.8535 219.583 21.3825L219.632 21.3696L219.682 21.3567C219.278 19.8084 218.435 18.4092 217.108 17.3972C215.781 16.3851 213.972 15.7629 211.639 15.7629L211.639 15.814ZM219.632 21.3696L219.613 21.3224L215.157 23.1603L215.176 23.2075L215.196 23.2548L219.652 21.4169L219.632 21.3696ZM215.176 23.2075L215.226 23.1963C215.043 22.3852 214.724 21.6817 214.159 21.1814C213.592 20.6805 212.786 20.3889 211.639 20.3888L211.639 20.4399L211.639 20.4911C212.768 20.4911 213.548 20.7779 214.091 21.258C214.634 21.7387 214.946 22.419 215.126 23.2188L215.176 23.2075ZM211.639 20.4399V20.3888C210.61 20.3888 209.87 20.607 209.387 20.9779C208.902 21.3502 208.681 21.8721 208.681 22.4644H208.732H208.783C208.783 21.9 208.992 21.4097 209.449 21.059C209.908 20.7068 210.622 20.4911 211.639 20.4911V20.4399ZM208.732 22.4644L208.681 22.4644C208.681 23.057 208.883 23.5214 209.358 23.9011C209.828 24.2776 210.564 24.5689 211.627 24.8275L211.639 24.7778L211.651 24.7282C210.592 24.4704 209.874 24.1832 209.422 23.8212C208.973 23.4624 208.783 23.0282 208.783 22.4644L208.732 22.4644ZM211.639 24.7778L211.627 24.8275C214.095 25.4164 216.18 26.0188 217.648 27.0221C218.381 27.523 218.96 28.1231 219.355 28.8705C219.75 29.618 219.964 30.5156 219.964 31.6138L220.015 31.6138L220.066 31.6138C220.066 30.502 219.85 29.5874 219.445 28.8227C219.041 28.058 218.45 27.4461 217.706 26.9376C216.22 25.9222 214.117 25.3165 211.651 24.7281L211.639 24.7778ZM220.015 31.6138H219.964C219.964 33.8078 219.063 35.4602 217.575 36.5656C216.085 37.6724 214.003 38.2335 211.639 38.2336L211.639 38.2847L211.639 38.3358C214.018 38.3357 216.123 37.7714 217.636 36.6477C219.15 35.5226 220.066 33.8396 220.066 31.6138H220.015ZM211.639 38.2847V38.2336C207.185 38.2336 204.091 35.7064 203.275 32.448L203.225 32.4604L203.176 32.4729C204.004 35.7825 207.144 38.3358 211.639 38.3358V38.2847ZM203.225 32.4604L203.244 32.5078L207.738 30.6699L207.718 30.6226L207.699 30.5752L203.206 32.4131L203.225 32.4604ZM207.718 30.6226L207.668 30.6333C207.852 31.488 208.234 32.2531 208.878 32.8043C209.523 33.3559 210.425 33.6893 211.639 33.6893V33.6382V33.5871C210.444 33.5871 209.567 33.2594 208.945 32.7266C208.322 32.1935 207.948 31.4507 207.768 30.6118L207.718 30.6226ZM211.639 33.6382L211.639 33.6893C212.847 33.6893 213.747 33.5239 214.346 33.1815C214.647 33.0098 214.873 32.7933 215.023 32.5305C215.174 32.2679 215.247 31.9619 215.247 31.6138H215.196H215.145C215.145 31.9472 215.075 32.2351 214.935 32.4798C214.795 32.7244 214.583 32.9287 214.296 33.0927C213.719 33.4218 212.841 33.587 211.639 33.5871L211.639 33.6382ZM215.196 31.6138L215.247 31.6138C215.247 30.9089 214.874 30.4195 214.239 30.0443C213.608 29.6708 212.712 29.4062 211.651 29.1481L211.639 29.1978L211.627 29.2474C212.689 29.5057 213.571 29.7675 214.187 30.1322C214.801 30.4952 215.145 30.9556 215.145 31.6138L215.196 31.6138ZM211.639 29.1978L211.651 29.1481C209.244 28.5702 207.321 27.8442 206.001 26.7902C204.684 25.7387 203.965 24.3591 203.965 22.4644L203.914 22.4644L203.862 22.4644C203.863 24.3904 204.596 25.7993 205.937 26.8701C207.275 27.9384 209.216 28.6687 211.627 29.2475L211.639 29.1978ZM203.914 22.4644H203.965C203.965 20.5684 204.728 18.9199 206.067 17.7447C207.407 16.5692 209.326 15.8651 211.639 15.8651V15.814V15.7629C209.305 15.7629 207.361 16.4734 206 17.6679C204.638 18.8627 203.862 20.5393 203.862 22.4644H203.914ZM67.8589 7.21631H67.8078V18.7827H67.8589H67.91V7.21631H67.8589ZM67.8589 18.7827L67.8996 18.8136C68.9477 17.4346 70.6175 15.8592 73.1753 15.8592V15.8081V15.757C70.5698 15.757 68.8736 17.3632 67.8182 18.7518L67.8589 18.7827ZM73.1753 15.8081L73.1753 15.8592C75.9898 15.8593 78.3084 17.0349 79.9243 19.019C81.5409 21.0039 82.4562 23.8007 82.4562 27.0444H82.5073H82.5584C82.5584 23.7823 81.6379 20.9611 80.0035 18.9544C78.3684 16.9468 76.0209 15.7571 73.1753 15.757L73.1753 15.8081ZM82.5073 27.0444L82.4562 27.0444C82.4561 30.288 81.5408 33.0847 79.9242 35.0694C78.3083 37.0532 75.9898 38.2285 73.1753 38.2287L73.1753 38.2798L73.1753 38.3309C76.0209 38.3308 78.3683 37.1413 80.0034 35.1339C81.6378 33.1274 82.5584 30.3065 82.5584 27.0444L82.5073 27.0444ZM73.1753 38.2798V38.2287C70.6154 38.2287 68.6783 36.6507 67.7093 35.2757L67.6675 35.3052L67.6257 35.3346C68.6072 36.7273 70.572 38.3309 73.1753 38.3309V38.2798ZM67.6675 35.3052H67.6164V37.7837H67.6675H67.7186V35.3052H67.6675ZM67.6675 37.7837V37.7326H63.0396V37.7837V37.8348H67.6675V37.7837ZM63.0396 37.7837H63.0907V7.21631H63.0396H62.9884V37.7837H63.0396ZM63.0396 7.21631V7.26742H67.8589V7.21631V7.16519H63.0396V7.21631ZM143.535 34.314H143.484C143.484 36.3994 143.521 37.7568 143.522 37.7851L143.573 37.7837L143.624 37.7823C143.623 37.7547 143.586 36.3982 143.586 34.314H143.535ZM143.573 37.7837V37.7326H138.945V37.7837V37.8348H143.573V37.7837ZM138.945 37.7837H138.996V35.3052H138.945H138.894V37.7837H138.945ZM138.945 35.3052L138.903 35.2757C137.934 36.6505 135.978 38.2286 133.418 38.2287L133.418 38.2798L133.418 38.3309C136.022 38.3309 138.005 36.7274 138.987 35.3346L138.945 35.3052ZM133.418 38.2798V38.2287C130.594 38.2287 128.271 37.0533 126.653 35.0695C125.034 33.0848 124.118 30.2881 124.118 27.0444L124.067 27.0444L124.016 27.0444C124.016 30.3066 124.936 33.1276 126.573 35.1341C128.211 37.1415 130.563 38.3309 133.418 38.3309V38.2798ZM124.067 27.0444H124.118C124.118 23.8007 125.033 21.0037 126.652 19.0188C128.271 17.0348 130.594 15.8592 133.418 15.8592V15.8081V15.757C130.563 15.757 128.211 16.9466 126.573 18.9542C124.936 20.961 124.016 23.7822 124.016 27.0444H124.067ZM133.418 15.8081L133.418 15.8592C135.976 15.8593 137.626 17.4344 138.675 18.8136L138.715 18.7827L138.756 18.7518C137.701 17.3634 136.024 15.757 133.418 15.757L133.418 15.8081ZM138.715 18.7827H138.766V7.21631H138.715H138.664V18.7827H138.715ZM138.715 7.21631V7.26742H143.535V7.21631V7.16519H138.715V7.21631ZM143.535 7.21631H143.484V34.314H143.535H143.586V7.21631H143.535ZM111.417 37.7886V37.7375H106.599V37.7886V37.8397H111.417V37.7886ZM106.599 37.7886H106.65V16.3081H106.599H106.548V37.7886H106.599ZM106.599 16.3081V16.3592H111.417V16.3081V16.257H106.599V16.3081ZM111.417 16.3081H111.366V37.7886H111.417H111.469V16.3081H111.417ZM227.329 18.7827L227.368 18.8147C228.606 17.2721 230.391 15.8592 232.951 15.8592V15.8081V15.757C230.348 15.757 228.537 17.1952 227.289 18.7507L227.329 18.7827ZM232.951 15.8081L232.951 15.8592C235.491 15.8592 237.435 16.7422 238.745 18.4419C240.058 20.1438 240.74 22.6715 240.74 25.9702H240.792H240.843C240.843 22.6597 240.158 20.1063 238.826 18.3795C237.493 16.6505 235.517 15.757 232.951 15.757L232.951 15.8081ZM240.792 25.9702H240.74V37.7837H240.792H240.843V25.9702H240.792ZM240.792 37.7837V37.7326H235.972V37.7837V37.8348H240.792V37.7837ZM235.972 37.7837H236.023V25.9702H235.972H235.921V37.7837H235.972ZM235.972 25.9702H236.023C236.023 24.1594 235.731 22.7624 235.048 21.8173C234.361 20.8685 233.287 20.3839 231.746 20.3839V20.4351V20.4862C233.264 20.4862 234.303 20.9619 234.965 21.8772C235.63 22.796 235.921 24.1665 235.921 25.9702H235.972ZM231.746 20.4351L231.746 20.3839C230.204 20.384 229.13 20.8686 228.444 21.8173C227.761 22.7625 227.469 24.1595 227.469 25.9702H227.52H227.571C227.571 24.1666 227.862 22.7961 228.527 21.8772C229.189 20.962 230.227 20.4862 231.746 20.4862L231.746 20.4351ZM227.52 25.9702H227.469V37.7837H227.52H227.571V25.9702H227.52ZM227.52 37.7837V37.7326H222.701V37.7837V37.8348H227.52V37.7837ZM222.701 37.7837H222.752V7.21631H222.701H222.65V37.7837H222.701ZM222.701 7.21631V7.26742H227.329V7.21631V7.16519H222.701V7.21631ZM227.329 7.21631H227.277V18.7827H227.329H227.38V7.21631H227.329ZM190.645 27.7925L190.645 27.7414C189.224 27.7414 188.147 28.0214 187.422 28.5361C186.696 29.0526 186.33 29.802 186.33 30.7261H186.381H186.432C186.432 29.8326 186.784 29.1153 187.482 28.6194C188.182 28.1218 189.236 27.8436 190.645 27.8436L190.645 27.7925ZM186.381 30.7261L186.33 30.7261C186.33 31.65 186.696 32.3992 187.422 32.9155C188.147 33.43 189.225 33.7098 190.645 33.7098L190.645 33.6587L190.645 33.6076C189.236 33.6075 188.182 33.3296 187.482 32.8322C186.784 32.3365 186.433 31.6194 186.432 30.7261L186.381 30.7261ZM190.645 33.6587V33.7098C191.895 33.7098 192.972 33.4296 193.738 32.9164C194.506 32.4022 194.961 31.654 194.961 30.7261L194.91 30.7261L194.859 30.7261C194.858 31.6156 194.424 32.3337 193.681 32.8314C192.936 33.3302 191.881 33.6076 190.645 33.6076V33.6587ZM194.91 30.7261H194.961C194.961 29.802 194.595 29.0525 193.868 28.536C193.144 28.0213 192.066 27.7414 190.645 27.7414V27.7925V27.8436C192.055 27.8436 193.109 28.1217 193.809 28.6194C194.507 29.1153 194.859 29.8326 194.859 30.7261H194.91ZM72.6772 20.4351L72.6772 20.3839C71.1017 20.3841 69.8485 21.0845 68.9909 22.2796C68.1344 23.473 67.674 25.1573 67.674 27.1265L67.7251 27.1265L67.7762 27.1265C67.7762 25.1717 68.2335 23.5103 69.0739 22.3392C69.9132 21.1696 71.1361 20.4863 72.6772 20.4862L72.6772 20.4351ZM67.7251 27.1265H67.674C67.674 29.0959 68.1441 30.7396 69.0058 31.8922C69.8686 33.0464 71.1218 33.7048 72.6772 33.7049L72.6772 33.6538L72.6772 33.6027C71.1541 33.6026 69.9312 32.9594 69.0876 31.831C68.2429 30.701 67.7762 29.0811 67.7762 27.1265H67.7251ZM72.6772 33.6538V33.7049C74.2427 33.7049 75.5104 33.0256 76.3853 31.8512C77.259 30.6782 77.739 29.0141 77.7391 27.0444L77.688 27.0444L77.6369 27.0444C77.6368 28.9988 77.1604 30.6395 76.3033 31.7901C75.4472 32.9393 74.2096 33.6027 72.6772 33.6027V33.6538ZM77.688 27.0444H77.7391C77.7391 25.0747 77.2591 23.4106 76.3853 22.2376C75.5105 21.0632 74.2428 20.3839 72.6772 20.3839V20.4351V20.4862C74.2097 20.4862 75.4473 21.1495 76.3034 22.2987C77.1605 23.4493 77.6369 25.0899 77.6369 27.0444H77.688ZM133.916 20.4351V20.3839C132.341 20.3839 131.068 21.0631 130.191 22.2376C129.315 23.4106 128.835 25.0747 128.835 27.0444H128.886H128.937C128.937 25.0899 129.414 23.4493 130.273 22.2987C131.131 21.1496 132.373 20.4862 133.916 20.4862V20.4351ZM128.886 27.0444L128.835 27.0444C128.835 29.0141 129.315 30.6782 130.191 31.8512C131.068 33.0257 132.341 33.7049 133.916 33.7049V33.6538V33.6027C132.374 33.6027 131.131 32.9392 130.273 31.7901C129.414 30.6394 128.937 28.9988 128.937 27.0444L128.886 27.0444ZM133.916 33.6538L133.916 33.7049C135.462 33.7049 136.715 33.0465 137.58 31.8924C138.445 30.7398 138.92 29.0961 138.92 27.1265H138.869H138.818C138.818 29.0811 138.346 30.7011 137.499 31.8311C136.652 32.9596 135.429 33.6027 133.916 33.6027L133.916 33.6538ZM138.869 27.1265L138.92 27.1265C138.92 25.1572 138.459 23.4729 137.602 22.2794C136.745 21.0843 135.491 20.3839 133.916 20.3839L133.916 20.4351L133.916 20.4862C135.457 20.4862 136.68 21.1695 137.519 22.339C138.36 23.5102 138.818 25.1716 138.818 27.1265L138.869 27.1265ZM109.008 6.62158L109.008 6.6727C110.659 6.67277 111.959 8.07167 111.959 9.86475H112.01H112.061C112.061 8.02281 110.723 6.57054 109.008 6.57047L109.008 6.62158ZM112.01 9.86475L111.959 9.86474C111.959 11.6576 110.659 13.0557 109.008 13.0558L109.008 13.1069L109.008 13.158C110.723 13.158 112.061 11.7065 112.061 9.86475L112.01 9.86475ZM109.008 13.1069V13.0558C107.357 13.0558 106.057 11.6576 106.056 9.86474L106.005 9.86475L105.954 9.86475C105.954 11.7065 107.294 13.158 109.008 13.158V13.1069ZM106.005 9.86475H106.056C106.056 8.07165 107.357 6.6727 109.008 6.6727V6.62158V6.57047C107.294 6.57047 105.954 8.02274 105.954 9.86475H106.005Z" fill="url(#paint5_linear_742_1436)" mask="url(#path-3-inside-1_742_1436)"/>
</g>
<path d="M255.253 22.1558H249.277C248.449 22.1558 247.979 21.2063 248.483 20.5483L258.459 7.50223C259.04 6.7426 260.253 7.15339 260.253 8.10968V17.1558H266.23C267.058 17.1558 267.527 18.1052 267.024 18.7632L257.048 31.8093C256.467 32.5689 255.253 32.1581 255.253 31.2018V22.1558Z" fill="url(#paint6_linear_742_1436)"/>
<defs>
<filter id="filter0_ddi_742_1436" x="-0.000100613" y="0.000120282" width="51.236" height="48.3918" filterUnits="userSpaceOnUse" color-interpolation-filters="sRGB">
<feFlood flood-opacity="0" result="BackgroundImageFix"/>
<feColorMatrix in="SourceAlpha" type="matrix" values="0 0 0 0 0 0 0 0 0 0 0 0 0 0 0 0 0 0 127 0" result="hardAlpha"/>
<feOffset dy="1.57346"/>
<feGaussianBlur stdDeviation="2.09795"/>
<feComposite in2="hardAlpha" operator="out"/>
<feColorMatrix type="matrix" values="0 0 0 0 0 0 0 0 0 0 0 0 0 0 0 0 0 0 0.5 0"/>
<feBlend mode="normal" in2="BackgroundImageFix" result="effect1_dropShadow_742_1436"/>
<feColorMatrix in="SourceAlpha" type="matrix" values="0 0 0 0 0 0 0 0 0 0 0 0 0 0 0 0 0 0 127 0" result="hardAlpha"/>
<feOffset dy="0.524488"/>
<feGaussianBlur stdDeviation="0.786732"/>
<feComposite in2="hardAlpha" operator="out"/>
<feColorMatrix type="matrix" values="0 0 0 0 0 0 0 0 0 0 0 0 0 0 0 0 0 0 0.75 0"/>
<feBlend mode="normal" in2="effect1_dropShadow_742_1436" result="effect2_dropShadow_742_1436"/>
<feBlend mode="normal" in="SourceGraphic" in2="effect2_dropShadow_742_1436" result="shape"/>
<feColorMatrix in="SourceAlpha" type="matrix" values="0 0 0 0 0 0 0 0 0 0 0 0 0 0 0 0 0 0 127 0" result="hardAlpha"/>
<feOffset/>
<feGaussianBlur stdDeviation="1.31122"/>
<feComposite in2="hardAlpha" operator="arithmetic" k2="-1" k3="1"/>
<feColorMatrix type="matrix" values="0 0 0 0 1 0 0 0 0 1 0 0 0 0 1 0 0 0 1 0"/>
<feBlend mode="normal" in2="shape" result="effect3_innerShadow_742_1436"/>
</filter>
<filter id="filter1_ddi_742_1436" x="59.7683" y="4.57704" width="184.295" height="38.5445" filterUnits="userSpaceOnUse" color-interpolation-filters="sRGB">
<feFlood flood-opacity="0" result="BackgroundImageFix"/>
<feColorMatrix in="SourceAlpha" type="matrix" values="0 0 0 0 0 0 0 0 0 0 0 0 0 0 0 0 0 0 127 0" result="hardAlpha"/>
<feOffset dy="1.22673"/>
<feGaussianBlur stdDeviation="1.63564"/>
<feComposite in2="hardAlpha" operator="out"/>
<feColorMatrix type="matrix" values="0 0 0 0 0 0 0 0 0 0 0 0 0 0 0 0 0 0 0.5 0"/>
<feBlend mode="normal" in2="BackgroundImageFix" result="effect1_dropShadow_742_1436"/>
<feColorMatrix in="SourceAlpha" type="matrix" values="0 0 0 0 0 0 0 0 0 0 0 0 0 0 0 0 0 0 127 0" result="hardAlpha"/>
<feOffset dy="0.408909"/>
<feGaussianBlur stdDeviation="0.613364"/>
<feComposite in2="hardAlpha" operator="out"/>
<feColorMatrix type="matrix" values="0 0 0 0 0 0 0 0 0 0 0 0 0 0 0 0 0 0 0.75 0"/>
<feBlend mode="normal" in2="effect1_dropShadow_742_1436" result="effect2_dropShadow_742_1436"/>
<feBlend mode="normal" in="SourceGraphic" in2="effect2_dropShadow_742_1436" result="shape"/>
<feColorMatrix in="SourceAlpha" type="matrix" values="0 0 0 0 0 0 0 0 0 0 0 0 0 0 0 0 0 0 127 0" result="hardAlpha"/>
<feOffset/>
<feGaussianBlur stdDeviation="1.02227"/>
<feComposite in2="hardAlpha" operator="arithmetic" k2="-1" k3="1"/>
<feColorMatrix type="matrix" values="0 0 0 0 1 0 0 0 0 1 0 0 0 0 1 0 0 0 1 0"/>
<feBlend mode="normal" in2="shape" result="effect3_innerShadow_742_1436"/>
</filter>
<linearGradient id="paint0_linear_742_1436" x1="25.618" y1="2.62256" x2="25.618" y2="42.6226" gradientUnits="userSpaceOnUse">
<stop stop-color="#EDEDED"/>
<stop offset="1" stop-color="#B9B9B9"/>
</linearGradient>
<linearGradient id="paint1_linear_742_1436" x1="25.618" y1="2.62256" x2="25.618" y2="42.6226" gradientUnits="userSpaceOnUse">
<stop stop-color="#EDEDED"/>
<stop offset="1" stop-color="#B9B9B9"/>
</linearGradient>
<linearGradient id="paint2_linear_742_1436" x1="25.618" y1="2.62256" x2="25.618" y2="42.6226" gradientUnits="userSpaceOnUse">
<stop stop-color="#EDEDED"/>
<stop offset="1" stop-color="#B9B9B9"/>
</linearGradient>
<linearGradient id="paint3_linear_742_1436" x1="25.618" y1="2.62256" x2="25.618" y2="42.6226" gradientUnits="userSpaceOnUse">
<stop stop-color="white"/>
<stop offset="0.425" stop-color="white" stop-opacity="0"/>
</linearGradient>
<linearGradient id="paint4_linear_742_1436" x1="151.916" y1="6.62158" x2="151.916" y2="38.6235" gradientUnits="userSpaceOnUse">
<stop stop-color="#EDEDED"/>
<stop offset="1" stop-color="#B9B9B9"/>
</linearGradient>
<linearGradient id="paint5_linear_742_1436" x1="151.916" y1="6.62158" x2="151.916" y2="38.6235" gradientUnits="userSpaceOnUse">
<stop stop-color="white"/>
<stop offset="0.425" stop-color="white" stop-opacity="0"/>
</linearGradient>
<linearGradient id="paint6_linear_742_1436" x1="268.253" y1="5.15576" x2="240.709" y2="25.1329" gradientUnits="userSpaceOnUse">
<stop stop-color="#7EFF9C"/>
<stop offset="1" stop-color="#07CF00"/>
</linearGradient>
</defs>
</svg>
